<mxfile host="Electron" agent="Mozilla/5.0 (Windows NT 10.0; Win64; x64) AppleWebKit/537.36 (KHTML, like Gecko) draw.io/26.1.1 Chrome/132.0.6834.210 Electron/34.3.3 Safari/537.36" version="26.1.1">
  <diagram name="Page-1" id="xKROhjnQLXk7kpzua7hs">
    <mxGraphModel dx="2612" dy="931" grid="0" gridSize="10" guides="0" tooltips="1" connect="0" arrows="0" fold="1" page="1" pageScale="1" pageWidth="850" pageHeight="1100" math="0" shadow="0">
      <root>
        <mxCell id="0" />
        <mxCell id="1" parent="0" />
        <mxCell id="7rcC4zyVuGGbeMlEar-x-1" value="" style="aspect=fixed;sketch=0;html=1;dashed=0;whitespace=wrap;verticalLabelPosition=bottom;verticalAlign=top;fillColor=#2875E2;strokeColor=#ffffff;points=[[0.005,0.63,0],[0.1,0.2,0],[0.9,0.2,0],[0.5,0,0],[0.995,0.63,0],[0.72,0.99,0],[0.5,1,0],[0.28,0.99,0]];shape=mxgraph.kubernetes.icon2;kubernetesLabel=1;prIcon=api" vertex="1" parent="1">
          <mxGeometry x="-680" y="361.8" width="90" height="86.4" as="geometry" />
        </mxCell>
        <mxCell id="7rcC4zyVuGGbeMlEar-x-48" style="edgeStyle=orthogonalEdgeStyle;rounded=0;orthogonalLoop=1;jettySize=auto;html=1;" edge="1" parent="1" source="7rcC4zyVuGGbeMlEar-x-4">
          <mxGeometry relative="1" as="geometry">
            <mxPoint x="-375" y="260" as="targetPoint" />
          </mxGeometry>
        </mxCell>
        <mxCell id="7rcC4zyVuGGbeMlEar-x-50" value="" style="edgeStyle=orthogonalEdgeStyle;rounded=0;orthogonalLoop=1;jettySize=auto;html=1;" edge="1" parent="1" source="7rcC4zyVuGGbeMlEar-x-4">
          <mxGeometry relative="1" as="geometry">
            <mxPoint x="-585" y="413.5999999999999" as="targetPoint" />
          </mxGeometry>
        </mxCell>
        <mxCell id="7rcC4zyVuGGbeMlEar-x-4" value="" style="shape=image;verticalLabelPosition=bottom;labelBackgroundColor=default;verticalAlign=top;aspect=fixed;imageAspect=0;image=data:image/png,iVBORw0KGgoAAAANSUhEUgAAAKoAAABfCAYAAAB4KVwoAAAAAXNSR0IArs4c6QAAAARnQU1BAACxjwv8YQUAAAAJcEhZcwAADsMAAA7DAcdvqGQAABe8SURBVHhe7Z0JeFTVFcf/M5lM9gXIAoEkGCAEEtYQNgkQQEGrLGpdSlFwqSJYQEGtCyKgdWnVKovFWrS2rhSwssoiCMoSCFsgQFjComwJWSezz/SeO++Rl8lsmZnYDH0/vve9++68eRDmP+eec+65NworAzIyzRylcJaRadbIQpUJCGShygQEslBlAgJZqDIBgSxUmYBAFqpMQCALVSYgkIUqExDIQpUJCGShygQEslBlAgJZqDIBgSxUmYBAFqpMQCALVSYgcFk4bTp/BrXrVwpXNhRKJRQRkVBGRLFzFJTRMQiKS4AqJU24I/BYX1GDrPAQtFUHCz0yzQ2XQjUc3ocrj9wpXLlHGdMCqqRkKOMSoWrdFkH8SEJwWjpUqR2Eu5oXy65W4d7i8/hXx7a4p1WM0CvT3HC7FEW363tcfeZRWA16occ7lC3jEJI9gB+hOYMQ1Kad8Mr/jv+UV+OO4+dgZv8Fy9OTMa5ltPCKTHPDozVT+oIdKJv5MKw6rdDjO6r2HRHSZyDCcm9CSM6NQu8vxzo23N9+7CxMwo+/OiMVt8ZG8rZM88PjxX2GQwUonX4/rNpaocd/qDO6Iebp+fz8S0AiHcNEapD86Bu7tMfwmAjhSqa54XHUr+7WG3ELPoUi3P8fpuHoIVx5cAzK5z4FS8VVobdpoMDplqNn6omUCFMqhJZMc6RR6Sl1l+6IX/wFlFFNE3TUrluBS/fdBO3GVUKPf9lcpcHY42eFq/pEBsmZuuZMoz+d4E5dEUdiZRF+U2CpLMfV2b9H+byZ7MIi9PrO9upa/IpZUp3FsacTJQu1WePVp0Pppvi/fsUj+aaidu1yVD73GGAyCj3es6tGi5FFzkVKRAUFCS2Z5ojXZoQS/PFLliEovrXQ43802zdD//zDgNF7se5kIh1+pAS1bqxznEoWanPGp/FOlZTCLSsl9psCKxOX4cwpGJ6bBKvBIPR6ToFGh5uKSqBxI9JYWaTNHp8dMxIpiZVE2xToyiugVphgfG5io8R6qFaHYcyS1pjd+7mtg1VCyz0ajQaHDx+GVuu/nLI9e/fuEVoyIn6JIGj4JzegKeb7DdUaUKpXrWTWlcSq1wmvOIdEOpSJtNJsFnpck9gIoa5duwYvvvA81qxZI/T4l6qqKrwyfz6OHTsm9MgQfhEqQYFV/PtfIfiGTkKP/7AIPmoIE6uR3AC9c2tWpNUjj4n0qskzkRJtGiHU3bt2o0ePnsjfvUvosXHq1El+3rljBy5dusTbUrZ9/z0uXLggXNVRUVGOwsJDwlUd9OU8d+4cSq9cEXrqqK6u5q/9P+HxzJSnWKorUTp1PIzFR4Qe30nolYXgiHDhCtCbFVDP/xsUYfUnH44ykQ5mIr1iNAk9nvFsUhz+mJIoXDlnT34+Fix4D6+/8SZmzXwK06fPQO/sbP7axAfuR2xsLHcNysrKMGrUKPzu0cdw5swZZiHnoU2bNiwmNLJ7WuDpZ57h71m4YAF27tyB8IgIVFZUYOasWUhP78yflZycDJ1ejxomylG33IIJE+7n71m8eBGKjx9HeHg4amtrMW36dKSmtuevXc/4zaKK0GRA/KLP+eSAv6DSQikhQVYYn38QVq1G6AFO6AxeiZToFKoWWq7Zzaxon5wcJCYmok+fHCaynbzfaDTAzNyMnJy++OBvH2LevPlYt24dSk6fhsGgx513/Rovz52HV//4GoqOFnGru4u9t6joCN75y7v461+XIC8vD3v37OXPI7p17877Z780B6u++QY//fQTCgoK+DPpWfNfeRU33JCGb9hr/w/4XagE1avSdKu6m83a+IrSwdCsVilsYtXUoERvRO7h016JlOgYGiK0nFNTU8OEmo8bb7QV0PTr3x/5e/LrBVXdutlqFTKzspCUlITi4mKkpKSyIf9nPD1rJp6YOgU6dj9ZwpIzJUhISECrVq34ex59bDI7HuNtYtCNg/i5c+fOiIiMxHk21B8uLORuxUuzX8STM6Zzl6G8vJzfd73TJEIlFGHhiHv3E1T3HYFFuU9gY+eboVe5F0QDFAooVY59SBKr7sWHMaTwFC56KVKiU5h7i/r91i0s0KnEvLlzcce4sXj9tT/y4Xrrli3CHcx3ZGIWIQurCg7GBx8sQdGRIjw2+XG8t2AhItgwT4SGhLJ76jISZ8+exZ49ddG+dBShKgSLxYJg9rz4+ATkDRvOj9tuH41bb7nVdtN1TpMJlSiuVWPAkMV4d+gMTL37fQx6cjc+zx4vvOoZweFhQssxYUzDmeePCleNhxL9ngRTO9hwPXbsOCxfsfLaMXrMWOzcZRv+CRqiN23ahA+WLOGWtmvXrtAy65naPhVpaWlY9tVXuHrVVnTTNTMTJ0+ewLZt3+PgwYNY+vcPsX//Pv6aM3r07MneX4Z27dph+PDhLKDbjZ8dBGjXI00m1JIqKwZsscIUWpdMrw6Jwpxb5+HZ0W/CpPQs0lZHua8RNSi8T9j3j6oL0pyh0+lQw4KkYUwcUoYOHYqqykqYhAxDXFwrrF71DRPPz5g06UHuy0568CFmeSv5UH2l9Ap69+6NSDaUd+rUCbePHo0Vy5fjn5/8g12n4/77H4CKjR5pHTrwe0QSE1sjMioKXbp0wW8nTMAq9ndQiiwzKxO33367cNf1jd+jfuJ8jRU9N1igl4jUnv4lO7Dk00lQm10n8VukpyE8wXlNwVV1GBJ/9SRMCu++c/OTE/B823jhyjsomJo0cSJmzXqaWz0Z/+N3i3pRY0UvNyIldrYfgJnj3oGVe2DOCYlxvTzkucxhXouU6B/p3qK6IzhYzYfjSA+sv4x3+NWilums6LrWjNpQz4Z1YtqWtzB52wLhqj7qyAjE98wUrhrycWoPTMweLVw1njAWsFTmZCCYBWwyzRu/WdRyvRVZay2NEimxYPA0HE3sIlzVJyzelrpxxLK2XfBQb9/8sztaRskiDRD8ItQqAxPpGjNq3Az3jjArg7gL4Ci4CotrKbTq82lyFu7teyfMPopMXh4dOPg89JvYu9O+NqE8WAVzjQlWgwVWvYUn/xTBSnYooAwPgkLt+jsxa+NreGjHEuGKDfvRUYjv3tDSzsvIxeyuQ4Ur72mlCkJpnwzh6pehsrIS365fz3OivXr34tOlvkITER99tJTnaktLS3lg17JlS/ztw79j27ZtePutPyMkJARvvf0On8YNVHyyqCTSPv/W48IJLTS7yqErrIb+uAaGM1oYSrTQF2ugO1KD2j2VqM2vgO5oDYwX9LDqGpbevTdkGi5F1RVhR7ZJEFo2KoNDMD5nnF9ESsxo49yt8IQ1a1bzxD8dUx6fzFNY7sjPz8dnn32KL774HF9++aXQ6z1UafX7J6Zi86ZNfPaLREqIuVqqLSD0ej2qq6t4O1DxWqi0qmPMFxocPFALc6UJLHx3idVohfmqEYbTtagtqIT2QBUM57SwaG05SF1wGN7Je5K3aSZKHPbpsR+274UOI5/gQ74/oIV801r7JtRlXy0TWuBVUZS4bxR+iGEp/1pRUcHbN910M55/4QXMnTefW8/rDa+FOmGZBmsPN77qXsSiMcN4TgftvipuhUmwK3vchU0tO+A8LW9h/ud/2qQje9gjeLj3bShTu56hagwzmEh9WXVKhc1Unidl08aNQss5lOy/5557+THuDs+3SnLGvn22maxu3bpj8uOPIzu7D7KystC+/fVXTeXVp/Wn7Tp8dtB7kdpjKjVwwYb/8AO+MKswpzYCOdl3Y8yAe7Av1r9rsjqHheA5HxP8GyWizMsbxs/Hjx93WyNKvuM99zKhsiMz03nazRMMBgMvJySSU5L5+Xqm0ULdfMqEp9c3zTIMY4Rtzb0lNAxF7ZpmUzXaDC3Uh80myC+kEj1iwMCBGDN2LG8Tmza5t6r+goQqogpqXErQGVTVdeJEcZMus/GWRkX9JhYDdXq7Emcq3K9DagyKpEIoe6wCWpyDurAKisieUGc+BYvZDL1Gww9/zEu8lpKIZ5J8W+L9n6+/5lE28eLs2ejVqzcvoj558iRiYmKw9KOP+WuOoJK8t/78J+bVKHDvfb/hRSsi9P6Plv6dV0g98rtH+Rdi5coVLJo/gqSktoiPj+P9VLVFUOXV0aNFvE2lgq1bNxx5yH+lOlbitddfd5plWLbsK+66SFcmUIZg5KhRGD16jNBTxz8/+QTHjh1Fx06d8MADE4Xe+ixf/m/sKyhAu3bJ9coXpaxevYrX5sbFx2PatOlCr2MaZVE/ZcO9X0UaWQpl3gIohy7mIrXqzagNMkKj3QOz7icog4IQFh2NWPYhRLJhUx0e3qCI2hNIGNPbJvgsUmLjxg38TMM4iZQYPnwEP1P6adeu+ktUpNASEloYWFhYyGtLpVCkTq/t378fGzd8i5fnvMQtNwmWBEmpJhIe3UOHKFKCXACxX3qIInXGxYsX8dSTM/Dpv/7VYPkMBYgfLV2KPzz7DE97STFbzPz5X69cWc+yS1m5YgW/Z/36ddeyEPasWb2G30OW3B0ef+pk0F7Z4r8hQdl9NYJumwtFm7r/cEup+HwrtOc+EdoMJrTg0FBExMZy0UbFxXEBU58r4QZR9oDdd3NSAt5O9s0vJY4fP4bz58/z9rBhdZVUuYMHCy3mGm3eJLTcYOd90JdJZAX7kCnd1b17d9x51108+Bo//re8nmDC/Q8Iwdgdwt224moxSJMeffv2E+5wzJtvvoHTp0/z9h0suFu0+H1evrhw0SKMHDmK99MiQ8rFSqGVDCKOShOPMPFRfldkt4MvL6XT6CCkz3OGx0JdV2xEcZkfrCmzmMrcD6DIWsP+dskCPOZXWKvr9mA1Vu6HsaJuaYYUlVqN0MhIbmVJuLFsmIpJTOQCFo9oNpxEJyQgJzIc65L9s6OLNIiSlvxRMfSgQbm8TTWiYsrIJXaejL1rM33GDMx5eS4XKAVfJFhi3Lhx/HrcOKlQM64FadKjb1/nAqCh+fSpU7z961/fzcsHRfehTZskPlxTyosoKiriS2tEyGURyxBpHZk94hIdEWnNrgjllEVycnKElnM8Furnh/wQ5QdroRz+FyiS9wsddViq2PPtPrzas0thtbjfQJisEbkJJGDxCGK+XmeYsTXFt3ypCCXNt7Phl6CiZ3ufcPiIOuFu2fKd0PKO3NxcDB48RLhqGtYKy73JhbnvN7/hbXtIvKFs1CK+ZUO4lOw+ffh5j2SdlwgtWCQo2CQOHjhQz8ISosCpLpd8e3d4JFQjM3wri3zcA0oUaZxtqLHHWtVQkBZDKXMB/ilcNY50JtIfU/y3N9YP27dfm32SDvsi3bv34B86sW7tWn52hdXuW2m11o1WaWnuMx5SC2z/LBFpv9Rg05dOTG11znA+jRwVFYWOHTvyNq2mlf6dohWkfDKtDROhrIHo0z788CPXLG9+/m5+JsgnPcKCRIIWSXqCR0Jdy4b9ar3j/wyPYEO8Mm8hFC2d5BmNbNjXOl7zpL+yAcaqA8KVZ6TDgh1MpL6VrNRHTD2FhYWxYd628E4KWfURI27i7cuXL3N/1hVSn5RQKusKesR1Va5QStdU2T1LRCGp05XeQkGUSDxzkVxBbgBBIr0i2WNADCSJvZK1Xrt22vxRyjC0aNECAwbYrCpF9yJ79+7l9Q6EK/dEikdC/e6Ub9ZUmb3MqSUlLNWu3QrNyXdg0dX957oijVvSVn4VKUXA5KcRNzKRqplr4Yi8YbbkP7Fxgy074Ax7n5T22RKx2L3miHoW1cn9UistxSTZdE4d7Hpho/RnNZnqjAl9YWkjDkJqLbdvt7lHtEpXeiafVByRyI8nWrZqhVQPZ9E8EurOc57vOtKA8AooOtn+8c6wal1/EaxmLaqLX2WugG24ckZ7Zkl3M0vq0Q/VCMSUFEECFItR7I/Jjz0q3MVchR9+cJq6IeytoDR7oXRiIaVI3++JRZVCq2NFpOJzhFGy7Set55LSt5/NGlLm4CpzJc6dPXstzTVQ8E9p2pg2yyAKCmz+7L59Bfzcv59NxJ7g9jMl/7TggvdLkRUp9I9zbSGcDftSLPrLqDryB5g0tq1z7CGR5jNL6m+RkrXyZB7fHprdEYMvR9hbQYulzhiIw6IrpPd4YlGlt9CiQxGpG+CICz/bVrkGsWDV3k3oJxEaLfX+ccePvJ2amlrv7xADr507dqLw0CG+mwyR3cfzfR/cfq77mEhJrF6jcpPMpeku5qN6gtVUheqjs6G7tIpd1P2jkll7NxNp48u23UMfACXdiZtHjuTVSa4OSimJbP5us9BqiMLOOannT3owxVvPojpxdKT9UqNLkTxtfkHQDJMzKFKn4IhIYeKzt9wUPIoFMDS0S6eWpQwYMICfqZhHTF3Rv0Hq57rDrVAPX/ZMRM64L3QkokzON56wGhr5LWCipExAxYHJ0JQsZv7r20g89xb8M9vdEKk1pXX9VJ3k6qAkvTgBQIlvRxujNQdEf5qmdWlK1BH/+Pija/P+tI+AI8RkPYmwpKSEt/v3twlTpHfvbL4Akp5FdbxEr169+NlT3Ar1RJn35nR8DzU+GZ2I4i7vItrkxGk3u3YLnEHW1VC6FYbyXdhweS/yts2C1uzbL22zhxL3tN8UkZGR4XA+3RFDhtQVd1NRsyMapJQkY7OTkdwpnqSn7BkzZiyPyglK/s+fNxcHDtjy2yS6F154/toER9u27XDrrb/ibXtoLy4pNOSnpNTfK5cCMnth2r/PHe6FetU7i3pXphof3xnBh5xWqiic6LIAsSZb8liK1YONdj1hy5WDGLH9Wb+K9bvv6hL3Q4fmCS33UAAhJrFp55TmCA29U6ZM5dE7QRuwvTxnDg8KaX9WGg0IyoNOmTqFtx1hn7AfKOzNZU9/IfoXodrZxuBWqMVeWFQS6Wd3R7DoVehgtFBF4lTmQrQy+b6O3hk/lh3hYq0x+acmgfaaIiiNQmmpxnCbsIOJVlvLi1EI+tBJIDRnbx+YxDLrRpaHrLboP7qCniVG085yoeRDdujQgVnEtny7S3toy8yFixbzmlrxWSL0fPLJaf4/I8PxKmER2haToPeIBTr29O3X79qGcLTRXHR0436dp9syv7hXK3BV6/lYNDojGP++LxLOCuhrLQZ0PDwFV1S2yM9abYD5vO2D9Bc5LdKxMfd1RKua7ktxPUL+NM1YkfClUXtzwKVQKdoPmeP5toYk0mVMpCo3dlpnMSL98FRcUFXz1JS5xGa5/EnPmA7YPPgNtAiWdy+5HnApqUsaz/3HUZ08EykRqgzGyayFaGuKhoK242uCX++4v/Ikcrc+iXJj/WIImcDEpawuVns25A9LU2HleM9EKhKsUOFEt4VINbWAIsr9/qTecLjqDBdrqcH/Flvml8WltMq07i3qcCbSVRMiofYi265CEI53ew+94vz/CypESKyDmFgv6f8/dma+XnEp1Eqda4s6KFWFb5hIQ1XeD91K9ie/x5uYcIPjaNEfHKs+j4FbZuAnbf0lFTKBg0uhuirt69dOhXUP+CZSERLrP3rNwsx0WxV7U3BKcwFDvp8pizVAcSNUoWEHiXTDpEiEB/s3CHoz6xF8PWAOIlQNJwb8wUkm1hu3zsCZ2stCj0yg4FKoNYaGFjWnrU2kkWr/R+rE6DYDkJ/3HvLiewg9/oVEOnDLdJyosS0skwkMXArVfhq+W2IQvp3YdCIV6RKVgs25b3DB3tba9UpKb/hZV8YDLHIHZAIDl0KVzgWQSL97KAoxoU0rUil9WqTjm4FzcWrkx3glcyKyov23pxJlASjAokBLpvnjcmZq9iYt5m/RISM+CNsfiULLsF9OpM44VHWaz+kfqDyFgooTOFh52qdClPiQGGzKfR3dom8QemSaIy6FOmezFl8WGrGVWdL4iP+9SJ1xtPocF2xhVQn2MfFeZNayyliLSqMGlSYNdG5+80pscCQOjngfyWG+b1Ih0zS4FGpZrZXvg9qcReopV/SV14RL1VX2P3W/lp0RFuTFbxaU+UVwWz0lI9MccBlMycg0F2ShygQEslBlAgJZqDIBgSxUmYBAFqpMQCALVSYgkIUqExDIQpUJCGShygQEslBlAgJZqDIBgSxUmYBAFqpMQCALVSYgkIUqExDIQpUJAID/AupHUlu3vVjnAAAAAElFTkSuQmCC;" vertex="1" parent="1">
          <mxGeometry x="-460" y="366.1" width="170" height="95" as="geometry" />
        </mxCell>
        <mxCell id="7rcC4zyVuGGbeMlEar-x-5" value="" style="shape=image;verticalLabelPosition=bottom;labelBackgroundColor=default;verticalAlign=top;aspect=fixed;imageAspect=0;image=data:image/png,iVBORw0KGgoAAAANSUhEUgAAAQ8AAABSCAYAAABKSFGjAAAAAXNSR0IArs4c6QAAAARnQU1BAACxjwv8YQUAAAAJcEhZcwAADsMAAA7DAcdvqGQAACr5SURBVHhe7Z0JXFTl+sd/szDMwMimKLggIG6oBWpetyxRM6Bccrth1FVcMlOuWzeVMku0m9t1QbJEb5F0cU0NSU00I7cSKRVcUBRTwIVFB2aY7fyf95wZBARGSPn/+9/z9XOcs7znPe9Z3t95nud934OEIyAiIiJSR6SWXxEREZE6IYqHiIhIvRDFQ0REpF6I4iEiIlIvRPEQERGpF6J4iIiI1AtRPEREROqFKB4iIiL1QhQPERGReiGKh4iISL0QxUNERKReiOIhIiJSL0TxEBERqRd1GlXLmU3gODP0JjOkcgXu3SvCtYxfcSX3DvJuF8JYVoJm7k3h6eWL1m3aoYWnG2QmHcycBCYoAJkE9+4WI+3n47iceQ43c66iTOUINzc3fr+mTZvizOl0/HAoBZcvXUBxYRG0Og04uRIShQPULo3RtUtHvPziADz//PNo274TTBIT5JBBKpFCKkqhiEiD8UjiwZKwyaDXwc7ODqmpR7Bu3TocPnwYhpJiNG3pC2e3xrCXcLhXXIDfb+ShRFcGd1dn9Hr2OYwcNhTujV2wLuZTJO3bh8bNPODj4wP3Jk2ownO4nZ+P7MtZuHXrNgYMGISnuvVAe/+n4dKkGZq6OMBMwnC/qBB5N3Pwy6nTOPzDj5T+AgY82wtz3l+A3j2fha60DAp7JYkanZSl3CIiIk+ORxIPo9EIo0kQj3dmRiJxy3/w0pChGDdhMtp37ga1WyPIqcaSDjDjAhqNHvl5N5D52ynsO3AEx3/4HnnXLmH4qJEYP3Um2jzVHVBIYDbTD+VvL6P9KH+Y9byVUlyqR/q5S8gv1KBYz0GnN6CZayO0cLZD69at4dzEDWdPpeHz5Qux68B+RLwxAdEfRsNeoYJUIYeUFaJepGLJoIVIsSw9hEINr3bPIviNv2FkgJtlpUit6POQumU9Nu85iawCvbBO5QavNn0xcspYBLer7TrqkffTNqxP2IWTlwvI4qVVdA/cvAMwNGwyRvbx4J+fh7iegIjxm5ADL4zbGIewVpb1Io8V2+JBroqJpjK9EaNHjUBOTg7iNsXDt1NXHD6RhoO/XMDNvLsoLS0FZyrjLZMm7s3QsZ0P2rX0wDPtW8HF0R4Fd/Lh4tEC3x39FfuPnUYOWSelWg2VwA4OChm8PZuiQ5vW6NsjEL4+TXHq5wxs/joBZ+5KwdHDxpmNcDAWQ01K4960GYYHByG4Z3ukHt6PyRET4O/XDpvjv4IbbZOQktVPPh6Ih4JcKTWJ2gP00NzW0P8CbgMXIO4ffaG2LDckOV9FIOKLHKD/AhyY19ey9v8gV7dhytT1yLJcNIUzXVOq7ZoCixAQHi8vRez0gIevoz4LCTMisemi9Yo/jDpgMpZGj4RfVQURxaNBsCkeRn0ZJFIJZkyfhu8PHUZK6klk3ynFktivcLNIR296R5jwoJYZOSkgV0BKQqIw3kdT/RXErF2HvKISLPs0HjkFZdBLVOQLSamCG8klIT8DZpo3Q87RE2UowdPtWiNsRCg6tmmMz7/ah8Tvf4HctTmMuhJyjQxQyGTQkbvU0dsTc8YPhSNlMTLkBbi7OOObb76Bg5MTZLL6BECs4lHDQ2fSI2ffQkSuPAmSPfhNjEPsaC9hWwPypxAP7UksCZ+PlGKq5D1nYtW8YHjRbRfQo+DUJsyfvw1ZdMsfvo452PZmBNZfplmFH4bMm4vJPb3ovtMyuwfH12PJ4t2CKHWehsSVQ1DJfhHFo0GwXcPkcqSl/YKvNsfj08824lqBDv/4eB1ulshgUrmTq2KGjCYpVX4GJ5HCQC6InPYruXcPiz5ciLziUvxj8WpcvFUKrdQqNsw2kMKOK+Pz4Gi+TGoPk70zTp6/hncX/Qtx235E5NjBmB02EPK7l6CSmZjEQGswQapyxplcLWYvWocrd3VI3JOEK7/nIGpBFGRPKnIqU8ArJBqrXhMe9KyvdyGdnxOpiv7ILl44oA7Ggg8qCgdDAbduZDWQ8DGLI2vjZqRaLBGGZt96QThkfhgXE4tpfSzCwWD3oM80xMaMgx9bd3YNln9fs3Ui8uSwWcskUhliYmLwfNAAPN2zD1Zs3AqN1JksDDtIjOymURYSjgSEJpIFiZksA/o13LuN8GEvws29JZaujYNW7gy9zIGPi8hRRml1tJ+R9jOSgBjI6hDmTSQkclUjmBxcsGXvYby/8t94KegvmDoyCBLNbZhMdAwJuSUmA8xmMwpNblj8r03QmKT4cHE0tm5NxI2cq0LhnxBeLw+FP5vRpCPjOr/qAeTjp8REImJkKAYNGkRTKIaPj8SaQ3nlLs/DaJC1dw0i37DuMwihIyMQGZOCvPKdcpAwUdjGWx2MQwst6ZeQzVQZ/c0UrJkRjtAXLfmNmYKF2zOgYW9lts/EBMrRCrO4WLoIJFzNQ+qyKRgeypanYNtNSxIeFoMgi2H8cITy6a35pqOgQuVn5N3OE2aaeMDtgWFaCXWfAQhgM6aTOH2GX0XkYPe2k/ycx+hZCPPmZx/GOwyzRnvwsyd370YBPyfSkNgUj8KiQhw8eBBvjJ+In89exqUbd2G2c6S3O6Ayl5ALYk/OB1kMEhlZDzLYye2ZLwR7SjAstD/2HTqB7Nz7KC6TQyKn1w8TDBIP9msmJWH7GyR2ZFEwN4asGMqFiYLeJIHMwRl7LzB3ZzNGDx2I5/r05F0iJh5yTg8lDDAoXFHKKfDNdwcw+KUQ3C28i6tXn6x4wM0NwmNbhfxkzA8Lx5JvMpBDfo2buxtLShU2A7sXh2PMe8nIq1LJWGVJnhOOKSt3I4Mqqprt407v4+IcZHyzBOHhJAzMR6J3tF+vYAQPDkbfNpYIQbMAfjl4cKdK5dGcWkNm+xLsPkuCZVLweSo0WUj9NBLh0T/yLlf1aJAcFY6F+7Kg4UVLXx6bYNtS/xmO8A8ScPK6HgprOQtYvnMQPn0bciqcm4e7pUTXz+FcTQeU9cCsxEQkJsZhHK/GREE6TvC3zwvBg/z4VTXhFxREqYjMH5EqqkeDY1M8Lp7PQMGtfDzdtQd+SLsAicqJrAdmNZRBa2dvsSL05I4wu9RMD52BxAQI8m8MT0fg6wMnIbNXwVGihcKkgd7MoRSOKDOTmLAWFioCc3k4iZn+l5N0yGFPq5XMq6G0zpR/8i8X8VXyD5g3PgQ+0kKYJUrcNSshtTdAqb9BAuKCy7/r0JTExsPNHdduWN56T4qCAjx0BFMW1s9agZPMxw+YjNjdSUhMYBUjCUlfzEQPZ6p+x1dgzsYsyw4C+u/XY0U61S7nICygtDvZPgk7kZQYjeBmlKAgBcs/Z86RG3qMn4mZs2diXF+Lh+8/lF+eOXsIyquZKR2bluzmRYrFGuKThDx30m/iB0OgvppVy1uazuuOB4JmrEL8Nir3zlUY2VzYkrNlDhZ+T3s2H4Loasqpv7gey/c8yFnRbyiC6JyZVbEiYg4SThVUY3mRsJG6sn4+LJDKc/EcMtgvuSx+tmIV3m0t552Daw/MKJEGwqZ4XLt2HZ6ezeHu3hS/X6dXIwuI8rvRxEnKrQbmcsjJ/VArzNAV38LAfn3w62/ncLu4DGaZikTBjt/HjibWH8SOuSfk4jDMJBRMK5jlQZvY/5SeTVLoFUrInDzxafxe/H5HizfeeBWGknw42SvpiVXwfUDs7MiWKdOy4pCbJYeRd6eeHDl7dgkPuDoA/pYHXH9oE7bl04zzECz4uHILgKJ5MKIXj+Stg7zt65FcofamnxJMdK+Xx8KqCTxuPTBzkhAM1WSQJcPP2Ub//VbsrhBr8CgvhwJuLFYwnXcUakCNvvNiMTfEHx7OCijUaiHWoE3Bel70/DF52TT0qFrOGcF87CJj2y6US6OqB+ZSWr5Fm6yJTe+OQWhoOCI/out0KqeCRVMF6/pWrau37ipBLpE7+9VAU8KvEGlAbIpH7s18NGnSBPYKKfLy2PvWKh5CwJM5GgwpVXUZZ4JCSuKgUMDLryN++vUSYEcWiUwJicwOMqrorC+HEGBlboodX+EFQWJyIQReTRI5PzF0ej3KjBKyeJri8y+3oWc3Xzzl2wR2ZiN5PipmnECv00KtJCGh9MWa+1A6VIrOPTb0zPTfOAeRXwlV2e/VoYLPTu/Ug4csIjCM1lXn47cj94L572QZpP78QNw8WgjB15zUg+VNmuX0W4ADBw7gwOdhgnn+CJy0iJFbyJBqy6F2rljzq+KGtj4Wl6giaSdwklXqzgMQxFfWKnTrgR7sNz8dGRXNGu8hWBqfiKVv9hUCpvo8ZBxJwPp3I0hIxlSJ6dQHBRqRdSvyv4NN8dBqtfRmF15fUunDTyOzNljAk9kLRrJCtCYJnOl14OauwNlr+VBJdCgtzENJwU2U0iQt0wjBTspLTxYJszR4ASGY+LB8mMXBJik5QI5ld2EuyIa9rIwsmZO4Ry7U4D7dYCTB4LuTsomO79nUBSWlWtwr0cC1cWMhw3qTg03jhYBgxSl0+BQs/Dqd3nMkjsOWYml582Ie8nKFOT+fmqq5F/wsvoUgwgJew8YhiNXnqwmYMiQU4TMWYtP2k8jIr0+tykFOtjDn3772eEFdyMm22BNn12BMlWsiTNaOddVYAAo3BIxYgDhy43Z+uhSTX+0hCImpQIjphM1HMrPY6klZTRaMyBPHpngolUq+hymDBSpZt5CKk4RVeJpMZDfowawFKVo0doSCVhfkZKFvB3csmvk6vl63GJtjojFn0l/RWMXsFdrHsj9H6kGzlnmOX8/a880ldzFp2ADsWPc+dmyYh20JMfBuSg9ju/YkZGSnyEwwkunBxMjXuwV+/fU0b7t4e9cUon90WCcxPuBZafJDD6rsC77YibipFTs25SCvaqtLNZRbGTcqOCHqvpgbH4+5w8hVUOiRdzYVCZ/OR+RroQh9LRJrjtQvflPetPk4Yb07H7omlafKHesqooC6TQBGjo/mhSTx43GCS1N8EiuiKrT8WPe/fu3huNJDWK+7GmrRAmlwbIqHi4sLiouLePdAXc0dYu4FsxKEgANVXWMp/Nwd0Igrw5rF8/DujNfhKC3DD8nbkPLNZvg2VmD5BzPRSFIGpYQkh+/jwZwW5rCw4pA7Qy6OSXsfsya8ihf69UXKt1uxYlUM3on6CMeOnYDZYITeSNaLzEAukgMMpffRtlVznP0tHW5N3NHMvTrbui54YewyFhCsOsUiemoY+jav2qXRCx6P0BGJ9c5luFlbIqwoPBA0dRXidx9A0rZYLJ0xDsEd3aDPz8Duj8IxZcujRjwU5aJRY0zhj9BnVjXXpOK0FEP4AKue70VaUKCpoRysn0cYlq6dLDR5X92F5Iv8BnLvOgnrTFnIsiXI13MsMRYvtH5Uv07ksWFTPHx8W/Nm9u3bBfy4EuZWCBOr8iw+QVmQaDBLgvX1kJhNUMhlpCV2OHDsV4RPX4J3P46FsrEXgl8ajlMnjkNm0COkfz+YtRp+PwYvQASzOpj14aSU4sXenbAmYQf8uz2HCW9NxZ1SB5QYZCgsuQ9ORq6NiYSHRMvRXoEOfq3xw+EUPPXUU2jU4K8hD3h4CnNZ2TVV9AcuhZ+X9Ul/uJIpnP0QEBKGmaupMs7gIwl16IzmAS8fYS7jQuVWnT9CebPr2XMPAqK1chJrxozBmDHhWF/ef6MaKF8hZ7oGt/kZUtYA/IU3HHOQfKD2o2UdSBYsFu+/CFaMSINiWzx8WkOr1SE/Pw++beiuklCUC4iEqjxpiNDLVHBtOLIaivQy5JRIsXFfGm5y7ihxbI1Dv17Fpdx7uJh9AxfOZ6F9+/YkHDLe8mCwFhdBQKSQUb5uTo5woRf8yau3sWLDdkyetQm/Xb6Hxi19kXv7FmQKO34nA9U6P3JTHBRypP1yCr1794bRILTiNBwKDOgvVPSc75L5LtcPcTEZyaz/giwAfZ+xWi7pWBPGKlkENrEelVVw69JJCJRqNKi5b0ZlAroJ5SjYl4z0aspRUCHe8qgonvmLYA3c/g6bj9RQEiaC5cfzRwAfSdYgZU9qzWW/nWdxTZjLw88QXhgyUjiHvC3LkVBTl52CZGzaIuzdY+QQ4TqJNCg2xcO7eUu4t26H0ydS0b2FkqyGUug4FdV0e9jRxDp16WX2MNAEcmHMEnuUaYvgpqRFlr2xDA72cly/nIVFn/4HB27YI+N6Pp5q7YQys46Po1ScpFJyX8xmqi/CI+ftpEa22RmFpVq4Up1r1rQx7ubfgtmogAplJGzFCH6uM86n/YS8q7kYOvBFSFkUtoFR9B+HkaxfRv42zPkguVIrgv5mMubP28ZXFI8RkxFc/pYMwLP9WOSkANtWrEd6xZYKUwHSdx8U3qwd2wqVtyokBBV3YSj6j8IQ1r+ieDcWViqHHgU/rUHk53wjc91wG4JxL7NyapC6eA7WVyqokG84iWD4mwkWy8QNwVOF7uOaIwsx5Z8pyNHyG8rRX0/BktnrhSZv76EIbsev5lEPnoVpnWmGXJdNs1kfEdbZTdjGH+9UAuZMWiG0ALWZjMmDq2khEnni2B5VS5ZB6PDRaObqiE/WfIqXpy+FTuUJTlcCObksnJTFOgwwkmgozEYYORm6+6rxrzl/w8C3V0PLDBTKRmkugYHSaGGPwe2dsGBmOIInf0zSI4dOSsJDsHEuHM3rTDI4lOXjy3/OwP6jGYj9NpVcoUaQlBQiaeM8xMcn4usTd6GU66Enkfnik7/jP2s/ROJXW3Dh8lUSMC3sWG/WOmNjYJwtWA/TqUJHMTYGw82NHmqThl7KQg1WB0zDqo/pLVkxqKgh62PqHOzmu4Gz3qBq+p+qSHGB0MuTje/4NLZyN+3Lm/iKyr93VfTWJhGatnsuyofIsZabNzdZLCAhT1jyUzuroSkmYfYeh7jyJuBHOG9TDna/G4k1rEMbYR0hS34XCpgwyDwwJDoW07o9qMisp2vk+7uRYxUwVlbaXH5uDLe+5KItEDrEVUSfhW3zmVDVaLdA0W4cVq0Mq2VULaVhHdBqDOKy2JY1TiNSV2xaHixJv2f7Ii0tDU6OKrRwd+VHzNaGYD2QV0H/seZW5uIwl4TvuyGTUmUqgD0dWUGuh3VELuvjweBMJn7/EoMEP1+4gX4BbdFIooNcJiFRkUKvN0PJXBaJDFp6HXXxckWrJmp8u2s3wl4bS/mzQwhi1OA0C0Z0gtBy4kWVpOA2i2dQhW3ljyHz4pG4tIpwMNRU8TcKfSH8yCLRsH1o0sjc4NdvMpYmVBEORptxiJ7aAx5MH7WUngS5Uv3xDsOqjXMxpLMHFDL2KYEC6NV+6PvmKsRb4ih1RkbuxNJExM8bAv9Wghjx50fSJZQzvpJwMNTdpiFuZzwWvBHM76NgZWXnZiJhpWsS/OZSJMZXIxwMhR9GsuN9MA5927lVGhinsJysPv80Tl6sWVwYeuZOWa5pdZOmGtdO5NGwaXkYDAYcOZKK0JAXcPl6HjZ/fxrbfzgDg1kGiYmEQc4q8gPLw2CW4vmnPPB+xDAMmraK/zCPkSo66w9ikKhgkMrQzbkUn/1zFl6ktzQLgLKgKxuez/qLsA5hrEeqjJZ9PJ2QuHA8Jn64Dr9d00GjNeI/n0zAmfTTWLk3G/cKruOz2a/CeO8mRoQMwg+pJ9A5sDtZHUyqLJ1HRCpDbsSgj1KrWB5/MjQZ2PQPcmf4b32oEUAiFD3Cr7KAijxxbFoerLt3wNOd4O7ujmNHj+KZzm1huF8AFp+Qyaq+RgVro3nz5rh79y6/LMQySGj4ifUpBRo5qGAkQ8PEJr6Ph/BtVDbP8mQD69gb5tyVmzh7IQdjhgyGnbmUz+/WrVt887FBq0ELFyWe7d4BG2LXolevXuj8VBcqLyVizcb/zVxNR0a1L2Q9UlOFdht1F7KO+Lk/IWp/jItJxKpXmWBokP71ehysNPpXpCGwKR4GgwmN3VzRqVMn7NuXDB8PNzR2EuIJJtPDrRpsyLyzszMf8DQajeSuCGNUmHnDXJOy0vvo2M4XN28WgAwJoXuIxfZhI3OZyLBOZ2yyVzXCusRv0TWwDbp4NyPrRYf79++jkZMTDKX3MGnkC7iYeQYH9x/AxImTKC/m+rDuav/F6E9ixew5iPzbfCRftwYWGHrk7V2I5YeYqnhgSGhtY1z+DKjhPz4W8R/NRfRnSxEsxi0aHJviIZXLqT4aERISggPf7YNH40bwa92CtxpkZElUhf8IUEkJ3zOVxS5YnIMNdGMpWXMupy/FM10DcOlyNkpJe3jh4Cu9IDIsSiInAZCaDbwVcvxyAU6fzsLfRr9Mbg3tT8dk3zRlnzYM6dkRa2PXoaWXN156eSj/mQAWY+Etl/9WFD0wcjS9kVnPzfGhCB05BmNYczDr+s5/AU0Bv4nRGNfGkv5PjlvPoMoD9UQaDJviwTAb9ejf/znk5t3Ab2mn8Ey3QN4FYS5KVVgIJSsrCy1btuQtEN7q4H0JJg8mtPRwR6f2Hjj0w2EoHIQAG+srwqo7H1Ql90XOWnDo10yWjUHVBFu3b0Nn2qedTyu0aNEC+bfv4q8jh6H0VjY2/fvfeHt6JJSUF+uyziTovx2v0bHY+cVchPUgEbEEKQtManh1HoKZMfH/K59OFPn/h82AqfWr6ezDxl27dsXAgQPx9jsLEP7uMhQ4+sK17C50Mjvo6bXPfyWMBEVF7sVnn/wDvxzciqV7LkOpagyNXgr7kktYNHkQXFq1wYxPtpIqOYCTCp3LasIkVaD0fhFWzhgDfzcjHN29sWZTIt6ZNBZvvzYMJ367hJMnj5OFJIGD2pF3leRSGQkJG2cjIiLypLBpeTALQ6FQ8FbGmDFjcGD/d3BzVqOjnzfkBg3fksJcDwX5MXbMlzGTW2G0Q+LOFIQOG4WQ7gHQF/8OiV0p5Go1/tJvAH788RzkfFDzvnCQWpCYi+Hg6oB1m/+DRs1b4nbBDQzs3x0/HjuMxKQkLPrgPTQiF0atduDdKzbsvxqDSERE5DFjUzzYpzas7gkTj0uXLuHn4z9hyKB+sNcXwcACDRIzFGaTMDSfzA+TXIGdew9g/8Hf8OHkFxFFvneghxQDnukANpL++LET0JYZUSa1PQZFYXIgTXDF77ek+GxTElo180GXVm2xcM57cFR64qeffsJLL70EP28feHh44K233uL/DISIiMiTxaZ4MN1g1gcLfrKBcUHP9cNnMf/Cs93aorUzC4gKsQpKxY9PYR8hNMu0cHGSoFOH5jjz2xG0dOTw7/enYsEbw+EiK8Y7f38NY0Kfg7y0dpeFwUFHVkoxlGS5tG3rSSU24X7xdfTu3g4hA3vgtqYMnbv3xodLliFu45dISkrGjh07LHuLiIg8KWzHPPj/jLyAsKQpBw9g5PBh+OnUGWTk3MHHW0/AzMn5JlapzATI9Ci7n4/YD2egUUku+g8ORumde3Cyt8f3h38g18MTJ9J/w6ABA7FqVQK+zczjW1VqK4a2tAjzJ45C38B2iN+2C138OyGgXWtynxxQUGLA9ewr8GnVAp6N1Qih4z33bF/Mi5pv2VtERORJYNPyYEFQ1j+DTczCeLbf8wgICMCq5Z8gpH9v+LqqyV0hC4WTwWzkoL+dh0WRb8LZpMWI0BdhLNSgnZ8XYjasRZMOTyNy2Q58/Gky0n/NwrO9O1iOUjMmiRPMWhO6tGlHFsV32H0oE/NW78CwSdEY+Nr7eHtaJLIuZ8NBpcaKFWuQmpqKwMBAy94iIiJPCpuWB7/ZyAasycglseNbMw4f2IvRo0djT9I+NPUNxFsfrMQ99ocQim9hRvjLGNC9M+bOmY6Q4EHo26svGnu3RXbeHfxz4y6cvaElYbmHL5bPwfnLFzA/dn+tlkeZXApVyQ1sXfkO9CVFOJKZizKzAs1cVPDwbIUALxdcvnAZ/1z8EZJ27sSC9+YjcsYMyNn4l//z7MVYyWx0vZSBWY/vq4EiIg2CTcuDWRyVkEjxArkGI4YNxcQJ4+EkvYPo995Ez+4+mBv5Ol4d3BvT3xiJubNmYGDwEGz8/jjGzF6N12bFIv3cDbRt7oD10RHwdiyFnd52swhnUkAuUaGZU2Nk/5qOFpIytJXdg93v53B8yyaMDH0BQX264dRPP+Dz2LWY+fdIy551JRvLuzz4NACbXJ8Zi5jjRZbtj4KQh//SbMuyyP9rspbDX+KP5Y/vu0u2+d84Zg3YFA++16dUGMXKen4qJMJ3RlesjkGzZs3Q//lBuH/+FBaOfA5PuUowbGgoko+kYvuePXBRq/DWG0OxaNJAxM0div3rpuLLuWNx+vtD+Hb/SXJ1DHxvUFaImiZ7mRxO9uyDyXrMe/8DjBj6El58cRBGh7+Bj5cvhb2dEp98sgy/pP+KV/76V5jlcsjs6t/Ho+MnV/jz0xZeQcpbKizv5YOxe+oiICIi/x2w+llnWIcxJycn7Nq1Cz169MCoUaPg7++Pbt26IT8/H1FRUVizZg26d++Oj95bgMPfH8TJo8ewZuW/0K9PX4z72+vQaO5VOzamKhIJB6dG7O+HKFBYWEjH3INrOTm4efMmbty4gW3btuG1116Dvb093yL0uFC6+CBw3AYc/awrEl6PwjFrw5AxDzsmdYWrndU6mY0Upi38G8EXs88Cme/4QtJlOdkhtaSvQG4yuS4qYbsqsPL2ouPLMaKtit8mUflixOeZli2MIqTMrJz33juWTYyiFEQFeQr72nlixJpM9kc+HyJ7qT8kYdGIe6VCWjpO0aH6lUvILw57qWyqCvmVY+uanI/DiFbW407A8rcoP+v1ZNR4XswN9MfsNVXKfSfzoXOrSGb82Erpy68hf0/HIq7C/fF8JQ6Z9Czw59h2NjLp3+y2NVmbNd0fwUL1fb9COX6JgqekN2J+p3kjK6+vcO3I6vZ9JQaZdIK1HbOmc6jPvX1k6C1bK2azmTMajZzJZOJ/DQYD/8vW63Q6fv78+fMcVWLu6NGj3L179zi9Xs+dOnWKmzVrFhcQ2I1r4taMc3Vuwvm16cBNn/53rnfPPtwXXyVy3/30MxcwbhnXfeK/uG4TVlY7BU6M4SKX/pu7VXSHc3RQcGfOZnB6o4GmMq5Mb+bLxcrCjsnKYi1b3bnCLesMjiwPy7KF+5u5EHhw838WFo/OcOHQfRGXdp8WDIXc9nBaHr6Z0/JbH86j9vRJXBgz7rrP5w7majltYRq3qDstW7fnbuCC4MKFbcnll7VnFnGB8OHmn2EbafPGIA4uYdx22pfT5gp591zL5bKNhgxuEZUlcHEapzXQ5swNXIhSyYXtFo5ckSufdOSAQG5+Ch1Hq+UyVlO+VC5lz8rlUk47Kuxgo1xCfi7cKxsz+PxyE8I4JYK4DXzBbFwTw1Fuqgs4nylJXO59LVd4ZgP3Ci2j8zK6umx7beclXE+X4Ru4jEIqd24SN9Wb9pV7PCjLljDOpUJZCndQ2Spcw4NzqOzWY11axnW05kdl0V7fzIUpwQV9ZtmZ396RW3ZJWKxKbfeHv0bW41iXLdsqXZ/7lms/5SCfrrpj1nYOdb63daBe4sHmWWVl81Yxsa5jU0lJCb9cVkYVvIzS64ycrpSlEyr5q2PCuA1fbOa+O/aLTfEI+NsK7uP4b7lzFzP4bx5nZ1/jSnVayktPx+DKRYMdz1rGxyoelgcybLewpL2dyxWym2pldxjdjAhKxXg4j9rTs7w7cosy+QWBn+dzHtaHW1vI5eYWWoSGIeQfuELIn38wgjdwhfwScT2N274lTRAPdhyP+Vwav0Egba4Hh3HCkSvC5/PqdssSYdgunPMOyzJR6WF/lHK9bBVIhnANI/YKS7VeE34+jEsiYbBS6di1ntfD1zNjMe3bYRGXYVmufD+FcockPCip8LII5JZl0zxfUUO4zRXKmhROYmS9hjbEo9b7c30t16t831xubU9wvVbzW/hjeMx5UJm1mQe57ftJ/NjCQ8es/RzqfG/rQJ3tfKtrwFpI2DybmOljXccmNqKWwUbYyuxou1wGhULOfBA+HuHk0gjF5LYoHYV0FeFNqwqT2aCFT6uWuJBxjvKTwq2xO5T2SqHXq5njj2c9fkOgVGsrmaKSIQm0tsoHOivwKOmVFUM0AV0RhFwUsZHzShcos+Iw1uoeWNwincWF8hk+CyGnJ8C11QCMfT8GKZqOeGVUIP9F8uzzp4G8aHTl9xOmrkvyyCQW9n0IeYV7YZ2vKXRko1w8LpTGMmuFfYKBUds14cvduSs61nDsRzmviteTn6fzefhJY2Qijcq9N8x6HjQ1GkvOD/kI5fm5wKXyB9JqvoZVqO3+oOUIjO2Zie3JVPa8JOw43gtjhwvfkg+aNAuuK3uTOxGK2Ut3INOlN14Z1LH+51CXe1sHHl+QoAb4HqiWySwxU6U3wsHBAbqSUqgUtj8XaNDp0KyxG3Jv3oRLIxc4OqrYgFvIefGyJHqSaIrIc/WAD/+nFXTYO8kfI06PQMptLR9YpTchn6x66pq+CuRz9352EZSLs0EmOu1/BfSWeYBfBJKua5HxZQS65u3A2C7kH888ZvH/if4bQO8y4bjW6csQy8Y/gK1y1cofvCaMx3peSkz9sUpe3GNqOq/1/nhgRFgvHNuZhOxDO5DScyxGtOQ3QNl3GTLu5+Lo4hAof1yE3p6eGLCpupiKlSd4DrXQENWPEJpk2cHY31rxaOKOe3cK4OrYiF9fG0q5BJ4ezZCRkcEHZUlY+Q8OsQvUECPg8r6Ow16XERC+nZOLzNM6hL0/H4EuFgWv9S30aOkrvbHT05ACT+Ftl5mGzM5RWDTKw/I21VVIq0PmAXrosoCO/cMw67ODyN0/Fbkr1/J/+tGzJXnrh/bS205IzVNrWetAreWyRe3XxKdzbxKnbGTXkN/jPS8f+HiTmO2vHEB9PNep9vvD8BgVgaBDcZjw+V70ChshWCTIw+mtO3D6jgcCg6di0e40ZK/uiJQVOx4EjCvxJM+hdp64eFj7ibCRt2yS0xpXtRo6TQmcHGwPjHNUquDeRIGsixf51hvSDcFlonx4JXlC6IqykbI0FIGT0hD25SL04iuJCi5kgez4PA6ZRWSRnI3DiLeYyW2FbmQXMq0vZdL5UYWymZ6RiajwKKTkUfqi04ieEo284REYy54kdxIR2ifmUB6KivKQ8n4Eos4Le7G3TdGeCAwIX4RjLLJu1OF0agp0dEBXtnXUbEx12YGpr8chm73qNJmIG+2J3rH8N9f/GLWWyxY2rsmgCExVxmD2+ynIo2vIts9e/KBiPN7z6oi35wUh+6OxiEplzQ065B2KQleft5FSbr7VgrcPAqlKZ16ie0dlrUzt94fHIxRh/Y8h5VBHjAgWpIORFjsCQdMt56ej63uMXDVPF7pyxEPH/IPn8AewKR7Mh2KwN711vi7IzMIhhE8E0qkZTegQGIALV87D3cUBLg5CvnoDG9rP4idmlElN0EvsYDQrEehrBz25w+kZ2Rgc+hIJh54KpecH4bHpccM3s1J5VK6+GLHFBVHHsrH5ZRfLVg9EbDmIqdffhr+rK1yD96L3vAhaS5XA8iYMeWsWfDaFQtWIbt4jpGc3f9brOsz2UdExu2KRcj6ObgwT/Nuey3D0s47Y/AI9cK4+mJ0XgUXBQGGh0K7WawX5zIF7EeJJfq6dCr13BGLzsWXoxTbKe2HtpSREXJ8NX9Yk16grYprEYMfEBw9pvbFRrtqxcU1YuY9tgE/8AHg2UsEz/Bi6jiJrw8pjPi+PiUnIWO2DhEGudN/peK9nYuzWRQiyGEW1Ig/B23N8EBdC92661Z54QK33h8cDocNpqXMEXil3Mej67DiKKETDn52fyhOz8mbh4BZ2jYhqjvmHzuEPICFRIHugdpibwKiPeFSlrEz4sw0dOnTAqVOnsCHlIrZ++yNkqqbQG8tIEPSQkKtix0lQ+Hsevlo+AdcvX0LUnJlI//kolA5CnIT9vRcmNlaXyAo7nYpBXJE/IczkrhDQOz3PE11/j3s88Zr/Y+x9XYLZXa4ggwThz8YTd1uqwj4sxCo2+yZqbGwsxgzqgTaNybooug6VjOwsbRF0t6/DyVyIlVGT4NO8Cd75+zS8N/cdONjTviR1Qp9U9ls9onD8idGlYEKrrogil4i32tOjEbGkCGGjgoTt/0/QkbuX90s0ouJ7Yeqrfz7hYDyS5cGaRVmyx1UpjUYjLly4gAEDBmDLli/R9qk+OHjiHC7n5MDdvTE6tvfD0+1a486Vyxg34Q20ae2Ff2/4nN+X/Y1aM/9NVJqYm1N17A3xOHuaijQ8rPdqRHgUdmSRfCh98MonSdg8raamyj8ne8dLELrJAyGfpSBpYgW37E/EI4kH43EKCBMP1gdk9erVWBQ1A5Mi52Bw6Ai0atkcBUWF+DntFPbv2YUjB77D9Nlz8I857/BjXCQkCmaZ8JV1Jh7VuS2icIiINAyPLB4MlrQOyavFmoder4dKpcLe3XvwycrVfPxDzun5r6C39+/Cf2g5bNQw+LTzhdloglzChuXRsdlnD3mkkJJusP4jDCZqorsiItJw1Ek8RERERKyINr6IiEi9EMVDRESkXojiISIiUi9E8RAREakXoniIiIjUC1E8RERE6oUoHiIiIvVCFA8REZF6IYqHiIhIvRDFQ0REpF6I4iEiIlIvRPEQERGpF6J4iIiI1AtRPEREROqFKB4iIiL1QhQPERGReiGKh4iISL0QxUNERKReiOIhIiJSL0TxEBERqReieIiIiNQD4H8ALfRxIUtIc9YAAAAASUVORK5CYII=;" vertex="1" parent="1">
          <mxGeometry x="-455" y="210" width="160" height="48.41" as="geometry" />
        </mxCell>
        <mxCell id="7rcC4zyVuGGbeMlEar-x-54" style="edgeStyle=orthogonalEdgeStyle;rounded=0;orthogonalLoop=1;jettySize=auto;html=1;exitX=0.362;exitY=0.961;exitDx=0;exitDy=0;exitPerimeter=0;" edge="1" parent="1" source="7rcC4zyVuGGbeMlEar-x-6">
          <mxGeometry relative="1" as="geometry">
            <mxPoint x="-150" y="600.0000000000002" as="targetPoint" />
            <mxPoint x="-30" y="520" as="sourcePoint" />
          </mxGeometry>
        </mxCell>
        <mxCell id="7rcC4zyVuGGbeMlEar-x-55" style="edgeStyle=orthogonalEdgeStyle;rounded=0;orthogonalLoop=1;jettySize=auto;html=1;" edge="1" parent="1">
          <mxGeometry relative="1" as="geometry">
            <mxPoint x="52.80999999999999" y="589.0000000000002" as="targetPoint" />
            <mxPoint x="45.28999999999999" y="458.5" as="sourcePoint" />
            <Array as="points">
              <mxPoint x="64.77" y="458.4" />
              <mxPoint x="64.77" y="537.4" />
              <mxPoint x="52.769999999999996" y="537.4" />
            </Array>
          </mxGeometry>
        </mxCell>
        <mxCell id="7rcC4zyVuGGbeMlEar-x-56" value="" style="edgeStyle=orthogonalEdgeStyle;rounded=0;orthogonalLoop=1;jettySize=auto;html=1;" edge="1" parent="1">
          <mxGeometry relative="1" as="geometry">
            <mxPoint x="-54" y="340" as="sourcePoint" />
            <mxPoint x="-54" y="280" as="targetPoint" />
            <Array as="points">
              <mxPoint x="-54" y="310" />
              <mxPoint x="-54" y="310" />
            </Array>
          </mxGeometry>
        </mxCell>
        <mxCell id="7rcC4zyVuGGbeMlEar-x-6" value="" style="shape=image;verticalLabelPosition=bottom;labelBackgroundColor=default;verticalAlign=top;aspect=fixed;imageAspect=0;image=data:image/png,iVBORw0KGgoAAAANSUhEUgAAAIMAAABRCAYAAADxaxVCAAAAAXNSR0IArs4c6QAAAARnQU1BAACxjwv8YQUAAAAJcEhZcwAADsMAAA7DAcdvqGQAABZrSURBVHhe7Z0JnI5l98ePobJHi96o8GbpX6lICtlJdmkzqFS8EcaaNVu20oy9aLVkKcJQZJet1f9VslVaJEspUSH7//qe5zl3d9PMmOcZNP6f+/f53D3Pc1/buc75Xec61zLKdNJBAgRwiAl/BggQkCHAnwjIEMBDQIYAHgIyBPAQkCGAh4AMATwEZAjgISBDAA8BGQJ4OO1kCHa3z12clrOJ48eP62emTJkkJiZGf1Mt33kCnBtIFxkoesIZPnOWLOE3f8fxY6RnDv8KkJERNRkohicAGzdskBnTZ8iGzz6TQ4cOykUXXSxly5WVxk2auO8XybFjxyRLKoQJkDEQFRn8RBg0YKBMePVV/W1VkcLv87NmlaeHPiN16tYNCHEOICoyEBNkzpxZuj/RVWbPmoXlJYv7feTIESXCCVdlVkeEw38clkwxmSRhxHCpV79+MGVkcERMhuNuhBMjzHv7bekU10GNCwkIFAsWLCiX588vmzZtkl/371fCHD16VM4//3x5d/UqyZcvn5w4cSIIKjMoIrZKjDMweGHsOOcBTqiXYEro1bu3LF6+TCZNmSyr3lsjtWrX1jQ8BASaNGGiloMMATImIiIDhsTw323bJls2b1Zi4Fjuufdeeejh5poOAbJlyyYjx4yW/AUKyOHDh3XaWLN6tdaBtwiQMRERGWxG2b17t36PccQA1WvU0E/e2dQAbq9wuxdY/vjjj0oMf6AZIGMhqsk76argoFtOAttssqng4IHQe0CAmVKsQBlWG/ZQTzCdnH1ERAZGNbjyqqs0FsBwGHLq5Cn6nkCRPBdccIHs3rVLFi9erOl4EMqcd955XoxhIJ7gNwSzB+8Ccaz+AGcHEZEBA2HMSy+9VG697TY1IgT437VrpU2r1vL1V1/JL3t/kfffe0+axTaRPw4dUmJkyhQjd9auFa7lT1AXKxNWI0sXL5HRI0dJ/DNDZdrUqbLt221KDNogX4Azj8iXlhjQjVx2HRvWq68j10Y8rj1Hjhxy8GBoeoAIGJol54Ili7Uc+TEweSHXW3PnytODh8geF1P4QXqju++W/gMHaEBq7QY4c4hu0ym8eTT99TfkyZ491cB4CAzPd3PzGDCrM+TsOYlydZEinkHt87nRY2TUiBFqeMrznvJ4BKYIUKhwYZmZOFty5szpESjAmUFUmoUIGO6+xvfLuJdekvz58+sKwoiA0TBmmVtvlfkLF4SI4H4rEcKfy5ctk5HDhwtM5DflKYOx+U79EOTbb76RjnHtQw0HOKOIyjMYbDeSKuYmJkrP7j3UO2D8+GEJcn2JEn/LB5gm6tWqLVu2bPG8wF2NGsljrVtJdjfNvLdmjQzo118OHDig6RBj4uTXpGy5cp5XSQkQUduhKRenppb3TAIZkCX8Q/dk6Lf3PqyL1E58zzbS5XPpCIakk7Xr1lVDsnIoVKiQEoE0Om4d5jt5N23cqERQT+GMW7tOHRmaEK8kuvzyy+Xue+5xHudFLWOYP29e+FvKQNF4FurFe/1TRKBP9FPlUFlCgbD1395lJCKA0zYB//rrr9pZ+G6bTqaUpNi6dau+58GAzR95WN9Tjjog0W1ly8oNN96o38mz9csvNU9y9QHykAbR3n7rLXln3nz1MGcb5rnwkImzZsuA/v2lxcOPyIcffKBE3blzp8q34J13ZNHChXLIrbgA8v/TSBcZCCRx40AN6wwJjh0PBX+hZaVbGjqD+nHo4F8VkD17Dv1EWf4AMVeunHoKCo4cCREsJTJgBDBx/ATp0rGTdIiLk369++i7s6VoI8LXX38t1StXkW5duuiZzJpVq+Urt+wGH33wocoX16atLsd//vlnfX/OkgHBeXDFX37xhfTu2UsaNWgov/32m45sOtygbj0Z+9xz+g53CCHMYNeXuF7LY1ieVStX6nve4R0g2L59+2Tdf9eFpn6Xh+kDWB1JYSRhquL2Ffly5cql784WjMgd2sXJD7t3Sxa35NY+HTsqefPk1TRbNUEaBouf/P80IpbEb8ThCQlSu+ad8sbrr8uO77/XdDqHQXHXIxKGSeUKFXVDCUKgCLBwwUKtB+LwDIuPl3eXL1cSsGfx+++/O4W2Uxeq3sWVub1CBS1rRk8JEMFl0nzHw57KD5uGMIjFNEmBbKTj+UKfofy8B/46eACftMltr82bNml/0QPxz9pP1kmlKpU1X0zmmJBs4bJWp8Fr2/ckhebxtW+P9YX0pPKlBVHTslP7DjLu+bH6HZZjSITgobMYlQiaew2tH3tMZkyfLh+8/75UceQY9/zzWg7hyXfUTQEtH3lU7m54l35WLFfezffvaZ0cbl186aVy192NtEx6RhKKoTz1msz8RmYDBEB+0i0I1WDPffIeJfvr4LE+A2InNbbrG/3r2qO75MmTRzfOTgWrx+q1xw/6oHl87duDXJbuly+tiGhpSUNUzkYRG0Z8592J4y5KjgkJkCNnTvll715PyRACFpuyAN8Z8Zc4I+NRyMs7FM0nStSbUo4IgGVlufLlNZ02koPJ1vfJ3rqdTdvXXX+9JL41N5TuyqLAPXv2yGefrpds2bPp0jVfvstcoHqDN6qQhS31+fPnuWnqv/o9e47sUrJkSWnolr/c6fzi889lx44d2h6bYaVuvtnFQQdl8+bNOuWNGTU6VJdLH/LM03LJJZfoSqlAgQKyYP47Ete2raZTfsm7y/W9yUc/Vq9a5dL4HiIeXhG92GYfsi5y3pUAedeuXVpPkaJF9TZZ8WuKy08//SSfrV+vA415tnSZW1SfRraUkGYyIACCffPNN1KjSlWtlM7iltmCZgRUq1ZN52y2lqdMnqzBkxLCiOE+qYf9AraZUULb1q3dFPGutmGiIC7nGTldADli9CipULGip6yUkBoZLI34pe6dtVSBAFlmzkmUG92qxfIQgMY/+6wc/uMPzePJ5PoLEbm8s2TxYpnw6ngNmAtceaUsW/GukqNS+dCRPY+RC1DvwMGD5N7779cbYraJxvulriybdtZ+28cfl8ULF2n5zE5fPXv3lgebP6RTDsZlVdKjW3f5fvt2rcMvH9979Oop/776amnVoqU3TS51hLuqYEHPhikhzT7XGp08aZJWiGAQgZGR+PZb0qRpU7nsX//SoA1hevftK4PdqEBIYIRo1769KrRw4cIaQ7z4yivywssv6c2oosWK6h5F6TJlpGOXTrJ81co0EeFUQMm03bRxrOzaucszGESBCCwDyTPoqQEyeOBAHeX0jzKWl+8Y5OGHmsvHH32sXopLOwwE4OX11j8hWPkTJ0L6I58f9pv2+zudLXYjHr1QxoiAfMizcMECeSC2iWz/7ruQ/p1xrX5XkdYzZNBgeWGsm77D78mXGgH8SDMZEBasWrlKO2Cdh4kY8A83khCO97Acxd17331S4447tJy59yNh12/nGJSpUrWq3oya79bdi5YtlalvvC6t3AjJnTt3uohA3QbW+qHbWSHv9MqECboxRpCK8tkTmDRxovaTfhHHsM/R4j8tVZaKlSqpvJzErv/kkz9lcu/AhRdeqBd/Y5s28XSDETp3fUL6PtVfbi59s+bLHPPXOfyY0xNg5TX1tclynpMFHbVp19YjAvJxu6xt68eVgBgY/V5xxRXS9IEHpG1cO6nXsIFbomfXutZ+tFZtQD+TC6JTQprIYEplvsXF0lmE4RCqWviWky2TUAIKNTbWd0ICyoB169bpJ+QwhWnk6x7AO9rjHWXS4xGoC/To2k1Wu7mcNql71JgxegsLRRPY0RYrGlWeUyIYOGSQHpB17d5dOnXp7MgzXqbPfFMudMGg9iTcH9eIfmCI+g0aSM1ad2q7+ri+xcbGSmyTJjqnA2IrA23lu+wymf/2PLcyG6ZL0aNOpiYPNJP2HTt6UwcgnTrtHsn9sY31knHf/v0krkMHSRg+XJatXCE3udgG55RWb+BHRCUYFSjQOpvHjYZTreW5+4BRUTSf1AEob8BIGJ10HtKMLOkBBiKYm/Xmm2o0lPiUmwZq1amt3//0div1Kh8jkPZR7n2NG6sxyMcD+QkURz83RuVKKhvlAKsJP37Zt08/0Zsf6APdzZmdqAEl5WmnrgsC+/bvr+kAGQlily1dqnnwGhwADhg0SNMpg5zId/HFF8uE1yZJ3rx5Q0F9hPqLiAx4AlMYDx0lKEsN3H1EKPMa1AFMeQCvwGNKNsX480QK2lv/6acyYtgwHckot3vPHtK4SawqD7JZ/WxuARQKgXDPAFnIx4NrRiaC39K3lNY6/CAvIK8fXPcDlm7AyKxm+jz5ZPiNyB131tSpJim2bNmsd0S0blcPB3oAeXhHXcgH4YhhmjrPggfSwzHNmTakiQzmchjlRL50DFIQcbOhBPQWdHj0oyhj9tzEOfppymCJBszY5MMr2HTAb9qjk5Sx6SNSUIctTamHtipVqaK/DSbTjz/8oJ/kwZ0z/5scyaFEiRu8sqeCES45mA7QJfWVd6sRgFH9bbM6U104vWL0YsWK6fuk8pmnQz7AaieS4ZQmMgAbCRUqVvBuRdORIc5dffvttzqXIRxCG1PZaGIZBug4ON/FFvoZVgBlli1dpq6y1h01pYYLJmNd4MnGFC4XkkRDCNq79rrrdA7FsLT1WIsWIfI5+VIz0qlwxHmQlJDWetFnHufOuVmORwJcFOI0F91on62usL4B/eBJFuH8djaUYr4UkGYyWMXNHnxQI1Rlr1MqW8cN69aTqVOmyO5du9WAX23dKk/16yc93XrYlGMGGT1ypDzYtJnuVzByifJbtWypmzGcTH637TtZ+/FaGR6foLuVK1esiJoQLHtHjBqpMiArdffq3kPTWBabbJfnD517IB8y7N+/X0mKzH6YatmMSg+ZAG2xhO3j9ARpqY93cY+3CRHW9dlauMwFmaRDYvT++eef6/uk8tnKAf0pXH2R0CHNZEA5sJllJAEWgrEpwvsDvx/QE8IqFStK1UqVpWb1GjJ50mtajk6Z0PbJtnT92nU0nxqbutwDUAgdZ4kFsR5t/rDutFGPeZe0gq3wK668Uvq5pZ1rXEfcTBdMzklM/Et9JUuV0k+8GXPzxPHj9Tduljz0m9FLmaVLlsjmjRs9eaMF/aTObNmy6sYaoE68bK8ePfW3Ea548eJKbPUg7t3Y50Lb+UylfvnoH6egb0ybprpmAEVC2TSTASAsAsZ1aC9169VTIWg0y3mhIAaB9rugko4iKA8jEMKwAfXa1Cm66whY37MVTTk6xHPjTTdJpcqVdc5mBGAc0KVTZ/Ui1GcKSgtYqgG8GfECdQL+YHj79u06tSF/+dtv11NR0pGdW9rTpkxV49MmMiILu3+dO3TUtX4kcqQE6sULsQFHcAv5lLAzZsjcOXO0TfZvmE6qVqumemSaXfvxx9LTLXlV9z75iH0eeai5Epp3kSIiMvhB1Nvq8daOqaH5D2OiSBvZEAMi5HaGHfvCC7oBxYUV1sZs4gA6Rz46wjr+zdmz5KVXX5EVa1ZLufLltE72L37es0dmz5ylZcy7RApuUrGUozz1tnPuGCAriuvYubPKY0rs27u33v5mV3Lo00/LQ82a6Q4mKwB1vq6fpwNG2EfdVFnW9dkI263LE/K9GywQFrTv2EFlhRwQ4M3pM6SSIzFxRvzQZ6V923ZSrXIVPS3GJtHoKWIymLF5UOD8RQt0U4U/kgEIgXE5F+jQuZOscMavVqO6uizraE23hKIelM/TqUsX3eHDSJBD5/rRo3VDCI/AGOTwBtBuamCjR+HyxYQ3eKiTk8NnExK0PRSM0p4ZMkSNT3rDRndJk2ZNldi0QR/4c4CJEybIyy++pKeoyEzZEjeW8GIY6vODPKG2Xd/cd/3tw1/S3eNPjx8+3C29Q94KXWBgwG/OFkY6nVDGBhBb69xQf3HcOHln3jxvD6dU6Zu1X9RtwX5aEJVnoBEeTtGKumUOh04zZ8/WkYewt5a9Tff9W7dpo4ZFcbhcG3UbPtug5Y1UnD8A3tFJFIHxSpYqqQEQeexwyepICiMJ5FEjODkOhm9UMZKos2r1as7gzZSU5H/15Vf0ChptIiObPV27d1ODo3CT0f3Hkw0Pxh8QUSfvCAKBtU87tG3eMukI5R06Ih05LJ3vnG4OjY/XdNqEjL179fIIULtuHRk/caJ3G533Jp8TRh92TFu3cZ7XJ09SGVJCum5HAxpDMRybEhD+5oI+jIvSMIwtIQEKwJjMh1z94jvl2eYliKODvEN46uR+AxtHgI2eaW6pSpoqKwnoBu1w5Wzn9zv0DCJnzlx6PO1Pp42PPvxQ6+d7rty59bDKFEbd9IVDofWffCr79u+THDlyap56DerrETarJUYlbXBkT5rVv/fnveHLLSHSsrS12IS69+516RtD6eQnnakQWB2frFvnpiPmfUhzwk2vt6leTH8Qd9HCRfKh6wc3qqiraNGiUssF5cWKF9M2Nm3YqLEcMBms/hThMqQLTqH66Zh9snTJUieLFf73ycdatNR3pLkO6HfgDK+fzkWfLFKo8MniVxc5WdTlj2vTVt/74YI1zXNNkaKa58kePfW91ZEcnMLD35JHSun+96nVD6y/ySHa9v04VZ7U2genkj81RDVNGGAoI8zVo3PWQRdcua7o8ojrX6QxGvzzK3n/59prpfg113hM5xo8ARMjjtvDs2bOFEcoLWNMxkWeCuR1ylRvQ908fpBO+5ZGPvL7R4t5Js2T5Nob7+lTSm1Y/adqP6V0QB5LSy6P6dtk4qE+qxP5T9VGSoh6mrCGly5ZKv379NGDHpRkygQcqDwT/6wetSI8cYN9cufxP4+20M7zUMavbB4CSObSSpUr6b0H3iU3RQQ4PYiKDHb96o1pr2uAQxXEBhjO/ZAYlxaTKRQkXeDmqsS5c5L9W0vO8EckDHfeJOW/teSiDEtODmACMpxZREwGM2RKf4XN6oG1OCAwgiBXFbxKFi5ZouXIb54AwxLNDx44SH7as0fLGEjnnwfqN+ApDX6s3QBnDlGTgTMFtpIhAlE5N5q41XNR3rx62OICPtm2bZsSgltDffr31Vs5fqPadwizeuUq/VfiWIHkL5BfypUrLwULFfxLvgBnFhGRwUYzN56qVqyku2HgljJl9KqaHyx5qletphshhGdl3Np88rSpfzOsxRDJgamCvHiSAGceEU3AxhsuZNq2KIbi3h9ghJOH0c3l2Bo1aoSmBPeOMngQjOvnH0Tgt0XEFgVDPKs/wNlBVNEYxvIje7bQRUwbxRbk8fcGhmNhAycHymB4e6gnCBTPPiLSuI1SztdtxIPFixbpJ+8gCnEEWL1qtRcw8q/DEj/Y7wAZDxGRgdGKMTk0YeOIU0kMyx0B/qiEdEY1x9McsuzcsUMJwFkBx8QgqVcJkHEQ+WoiHPCl9m9Hb9y4Uc8oIAZxAoTgD2KCfzs6YyO6TSc3ujF0967dJHHmTDnpRn5q/6r88FEj9X8zYJtVATImohqiNrL5f0k82Ly5Thd4AACzmBb4Y5Cs2bN5RNBlYkCEDI2oPAOgmAWCwf+J5v8HoiYDoCheIaVNIxBMDecO0kUGg60Q8BRMIfymWr4HweK5g9NCBj+oLthHODdx2odtQIRzF4EPD+AhIEMADwEZAngIyBDAQ0CGAB4CMgTwEJAhgIeADAE8BGQI4CEgQwAPARkCeAjIECAMkf8DvxCLycuL1QUAAAAASUVORK5CYII=;" vertex="1" parent="1">
          <mxGeometry x="-130" y="367.73" width="151" height="93.37" as="geometry" />
        </mxCell>
        <mxCell id="7rcC4zyVuGGbeMlEar-x-7" value="" style="shape=image;verticalLabelPosition=bottom;labelBackgroundColor=default;verticalAlign=top;aspect=fixed;imageAspect=0;image=data:image/png,iVBORw0KGgoAAAANSUhEUgAAANIAAAA+CAYAAABeH0W7AAAAAXNSR0IArs4c6QAAAARnQU1BAACxjwv8YQUAAAAJcEhZcwAADsMAAA7DAcdvqGQAAB0qSURBVHhe7Z0LYBTVvca/fW/eL4iAxGAJBAlEiAQ1goBJvQGqAbRFbEWsheT6gOtVoFdEWxXbKqWXlxcIVoj0KthLQasBy7NARISAgUQgARI2kLBJNtn3zr7O/Z/ZSchjkwaVaur89JDsmTMzZx7f/h9z5kThEtwMMjIyXwul9FNGRuZrIAtJRuYb4Lq6dowxHD5yAhcumVB1xQ7D5Tp4vV4oFCoM/kE/xMeFIXvcCPSOjZLWkJHpmVw3Ifl8Pry+7E28s/lD+MnwqdVqqNQacZmafioVSkT16oew8CgseOLHSB8xGFqNWlwuI9PTuG5CWrZyPdbkF4D5fWAKNXx+P/r1iYNaqUJDoxVujxdKcizV2hDE9UnErxfOwV3pw6CRxSTTA7luMZJapYBKpYagCoclJAH1vUbjprsehHbYjzBozI8xesJEDE8dRlZIiYbaKjz7/G9Ra2yQ1paR6VlcNyHdOXokbhk+FE2qaPhDY9AvWgl7zWlYq0vg9zTAr4+FNWwo+gwcRq6eEsxjoaDKL60tI9OzuG5CSh+VhvTUm6Gv3Y9nhlTirUkeTOt/CemqE6jesxpFf3oB/qq/odpowug7RiN/5W/Q54Ze0toyMj2L65q1+/v+3Xjjd79BTnp/PHBPGuD3wut0kQtXh6Ol53H4TA2+rAeWvPZb3HHXGIqPtNKaMjI9i+v6HClGaUP/cD/KzlZhy8efovqKBaHhkTA5FVDqwpD3wFhkD4uD1tMkJiVkZHoq11VIYSSa4UkJyBo1mGyfH6crL8Fqd6JvfDQ0Wi3cXoaBA/ohNiZaTIfLyPRUrvtYu5N/3wbF5RNI7BODRocb4WF6REWEAj4/6oxXYBCiMfSeGQiLjpPWkJHpeXRqBvxeNzwOq/TpqzP87im4MXkkvB43vF4fXIIXguChn/SZ6uL6D4JaFyK1lpHpmQQVEo9XrFcu4uLnu6Warwej3XhIRLFREYiIjILV5YfVZofL5YFWHwKlSnbrZHo2wYXEGGyNV2A8fVSq+eo4BQfqyfoIChVsTI9GRMPsUsLpFHDBaIImujfUGp3UWkamZ9K1KSBBfR3qzVdQVLIHO0s+Q6XJggilC31VDbgxzAO/z4vimhocPvsZLlwuh91hEwUsI9MT6VpI/q92Y1vtFlysPY+PDm/BXw4UUDxUj7ioMPhIKE5y51xuj+ja3RARisJj7+KtD/8b+4/vRJPVJItJpkfSuZDohvb7rv3Zjt1hxdHSIry7ex1O156ALlwFg88Cg2CBRqsSkwwmsw1utRK1Wgam0qC6vgofHN6Eo18WwWJrksUk0+NoKyS6ge1NdXA7bWJGjVuOa8HusuFE+REcv3gQToVZHN3NrZAbfhy9Uo1zTSZERIRAGanHCa8V5912OJwe2q0fKp0Kn5/bj/3HPoHb65a2KCPTM2gjJIe5DrZzn8Jx6STqL1XBaDKhwVAOn8sitQgOtyBXTDU4+MUuHDm3Dw2OWrg9Ajw+LkSyLn4fDC4z9lefx6GqSmy7cAaljka4vF5odGpoQpXkRXpRazbgo883o4HELFslmZ5EKyExNF4+h2j/FYQ0lsFxuYwskgv1XxTCV3MCPmut1K4tPElw9mIpdh75Mz4+8h6qGy+g0WYi960eDlrm83uh1ABer4Djxsv4wFCGM+ZaWCwWMIUfXhKbW3CSZXLC5/OSK6hB0cldMNsaaes9V0yGtZkYkDgXe6XPMv/atLFIOopb6k1mmJos6H9jL9x+xzAMujEc6qbz8FR9BldTWzGJrlzFZ/jLoY0oMRwCNF5YrCSixnoqDbCZLXA6nCRIAX4SjUarxk29HYgM80KhYlCoIVouc6MNgtUNu91OwrSjsPh9fHpyn/gyYHAEbH88kW7URMzbJVV9b9mLeXQe+LnosqS+imJpjetK5Tpk0f6y1hqkiqtYds1FKi1Lzd2GOq9U2eMxIP/exFZCoi9/rf0S3G43ysqrxPjo5ht7o66hicTggtrdCMeFT9F06Syu1FTiTNUpHPhiJw6UFsLoqIZdEGC1WmE2NeKG8BvRL24AnC4BdqsNdvHhqwCVRgl9iBd6nQIe2r5A6/h9DC6bF+mDxsPj8Ilt7Q4H9p74SBRkUGrew8ZdKUhLA7a/v41k9X1mGOa8uQZrgpbleGosb5OApza9ADpd3x7n1mHG49thSV2EraunoPe/zIvQCZj9SVUrISno/8j+UITEQqNSQqtSoa7RispqI+rqG8D8HoR5G2Av34fqk3uw++B7KDz2ZxiunIeNLImVrI/Cp8YtCemYPiEX6UPGBOydmkEgEblcLrh9blQ0xMPiiYTfz6APpfhIr0DKoOHIvisHek1glINarUKjywibM/gQpYp381GcPAWvP5kD7NiIzTXSgu8lvZEyeSKyg5UhBuw4QJf6ybV4LlVq/m1gIas5dQlKo3Lw9p/mIOlfcDaBVq6dAuE/GIXogaNxY3wsrHYHGkxNsJGFaGw0oa6unqyFBaHMDq21Es4GA1xeFyw2KxrrG6H0acmqjMPsnGeRkTpejG58zEcuHe2EXDoln/xEqUCfUDNCVC7aHYPb64VL8GDsyB+KD269SgGhoSFUQhGpjUX/PjcFutaGCmzbakDSAxORNP4hzNQVY9vOOmmZTAveUix9dCkqEp7Cmv9MkSq/BbwVyP/pLGwHiejgCkyIlOr/xWgTIykUCkTED0Bov1vggQYXq2pIDGr4dLEwNJFHRQai3qnEpSYHLtcbSUAmcsf8GNJ3JHIyfobs2x9E//hEnLt0GhfJUmk1WhKPCjq9BlqtBiravlrpgt/rgE/pE10/qIATZcew69hf4fF6aLmaJK3EhFt/BCWt24FPNyLfkIaZ9yeQtctA9k90KF6/geTVkasBvwXFG+ZicqoULwweg4dfKezopwv0Df7KDGQ1t0scjLG561AcLGlpKkbBM5OQPrhV2xkbUSotbsFL+16bi7HN7VInYWEnwq/b+SoeHje41fZexY6vaG1Ll+VilSEJz22cj5QgFkCoLMSSGZlIHSj1a+BwZHWxP8vnGzHvvlFIFvtGZfAoTH5mY/Bz04IFe+dPxZKSFCz6S+ci6vZxWwLnvKXPdC7nbSimvbQmEDOKMVoNP8YxLX1OvW8uCo4H6bC3TrzuLdco6P0RiIUGPEN30/F1yLsj0LY5Rm8jJG6VlKExCB98NzRRN6G+3ob+aT/EjaN+hLhhWYgZmomo5Luh638rwmMTcOuA2zFt3CP4ec7TeCDrpxjQ/wfiVk5eOIqz1Seh0+qpaAMiImvk9vhQXh+FRieJhSwVT33zaboOHN0NP7wICw0Tp+waeMMt+OEd94kibM/eLQUQ0qZgYt/A54zJ06Ez5KPg88DnYJSufQgz3gGm/CoQNyzKAorW5yFzPpfYVfb+cgzyNhiR8uRyMcZYPu82mHcswbSfrqPT2Ary9yePnIoXPxCQ8Wyg7Zo/PIc0cwWMUpMAFmybfw9yP6Ub+g+8zVPIIKltnjMVS0ukJhIVa0mUc/JhSHkOy8XtzUZSRT5dsBnX7rqWvIG81WS1F6zFUwOlulZYdi3AmHF5yK+IxPRf83NCx7pgAnCE728S8s9JDSUq1k9F6oMvYrsjI3Ac1P7lRxJg3Poipo2hL6qgYqrD3mfuwmNbdZj+1nuYHaQfnG4fN3cPx9A5303bk/r88iQB21+aijEvBUmjNBRi3v2LcWzo7MB2l9B2q7bjxSkPtT0+bjGnjkLeegNSpGu5PC8J5XR/pD/yHh1FOypJRC+bMefjKlRWVWE53Usi/H2k9sVus7HjO//M/ve/ZnVc5nCwykuV7HDJIVZRVd5huUsQ2JZ9f2SP/CaTzfzdvWKZ8Zvx7Mcv38WeWPZD9l9vjmc/f2Msm/rrDHb/S3ewKfTz3qfS2M+W3MueXDaFLfrjv7N9xZ8wu9PRcdumLWxWn75s0tpLreoPswWJfVni/H2t6gKlfMVY1ofaJ+ZuZ8Z2y469MpqWDWALDl6tK1y9hBXVtW1X9FIqtRvLlpZJdXbaX3Jf1ic5jxW2a9u6NO978BM72+778yUsnffpl4ev1p1ZxcZQ3ZhlZVfreKnbznL5sbVu+49Kc//uXcVO2YMsN+0Utxl0eR0t4+tOymeG5jqpbx2Og5eyVSyTH0vrcy+1T0xOFo9/1tb6tuu0Lt0+bisrfGIA65OYx7a1O+enlvHz/ADbWN1cR8dA22xzzZpL3RY2gy+bVtByfIHr1LGt8YM8ltjm/jjHVo7j253M1lW2bctLO4t0FRUF/SFB5pjjU2z16dUPI5LTKYZJlGpbo0B0SC+Ea6MgCG7x9QmPm2IhuxuCmz4LDrj5u0g+H5ifwePyon9oOFKo/fDQBGQOnYyB5FoqFR2tUd0Hm7EDaZjyb72lGg59nqGD8M5GbLdLVW3ojdm/mIj2XkXKY9w6CCg6ctUpnPCL+Uhr1zBtdAb9W4HyC4HP2LcBBWYdZq7tjr+fhDlPTWi7b3JHcuLJtbKYpQqymFvW0R4m4OlZSVKNRORETMymtp8ebWsRu6D4lUepf+RK/XfwoF7YTedJoP4/H2R55AQ89yT1oXgztlUHqgJ9S8NzZLE6HO7AOXhuGm3znW0dnpcljJ8AHpntWPMeKjpJdXf7uO2FKNgqoPcvcpHdrhNJ2VPoLBeh6AupopmspztawcgptC8duSNFOCb2ibyD9XT9g7SNzJyIbH5/FLc780n3IEPyhloTXEjkd6kUSirS52skUtcLOsTAZnHCYbeLz5IsJgeqjRaUXvLCZPbCR26ez+2DYBWQqo/GuOh+GKSKQoI6BFoWbMd1KNxSRL7c9Ba3rpm0B2aTXHZg2+5gifAMDBsq/dqa3jfQOiSRilYnyiuggmKwpb9cgMcoHki/YzgGPL5dWhjAcI5HQRm4rVtZsBQkdfiuiURUDP0oLW8Rh7GGOxDkugyVfPRWJY/v/sypoDFgBz5fjFkbLEh5fkWnrpSxhu+18/4nDOS3fymdl8BnsW/x1D7IzcNJGsJFQP2ThNdCyny8+1YOIkvINZ4VXEzdPu46o3iu6lZP6tBuwD1LxTal59re8Elpw+ge7EjvfhRb0/EZxP7Sdrkvvmve1divuQzMA+9Cxel2Zz4liYTbkaCJSH4b85hG/RUGrXIarLWwuBoQEqqHUsmg9DDaHgmTrJyG4iUeHylJpT4vgyJMgbjQUPSKiYKXqXD+6E5EGWsxfNyUlimORc5sQL7oCi9EeuJCsao9e98mn/b+R0WBtIZCsU7RRUrzjpMPvjBzFjYbdUjIyEbG6Dl4IS0Bkec247Hft/++jYSum69QdbXvNsRmY9GrU8Avc0duwjDpt06xU/8fLxCf0yx/PNil/ucTmbUCW5+vQNZrCzFt/g04+IcgVu0ajjvlF8vxdFrwEx85hMx8a9RdXaB4RIZJvxKRkxfh9cnBe4CEdmdepZd+aUunl5ln8JTs2oV0qaYap6tOwqd2ISaM36QMLpcTfi+5imF66EN1okunIKH6fH4wBYOB3L3RahVu6t0L5w01cF0+BXPNcMT0Txb7wSndvpm+ldIw+805uE2saYtx1xK8uDUfG888iueSpUoR+natJLdtgPSxmZKj5BAAtw0JnEDDu6+SiJLw3J7dbQP0nYXSLwH0kfyC7UDRcSA7PVD3dYmKpItuEhA/ntyJVhe4+wjY+6u52MxdupVdP6eJ78uPl1ybEiDnzkBda5otbpqUMY/vS19LRmpPgX9KEKskfmPrZuK2/lJFO5Jy38Pbp3nSYRZmDNmNj3Kvirzbxx0WSbc+UK4bhOzJ3UvlByxJe3EIKOauvC4Dg8Rv2yhEURcsQjwmTJ4Y1IJ1l05jpOYb+FqpuFSGitovodVpodFooKai14ciLCwcISGh9E1OYgoh903M6OmgUWlwAQ6YSGwCxVKxMTGI0PrhNF0mDUpj7bxF5MuSG5BFImn/0FEqM/Ny6LQZsP2jdqaYDH/B/xa3G/1gwfblq8hZzEDO+ID9qhB9mfauGLXb0ta16z15Onn1AgpeJv++E9//WknLnk4XcS9Wbmjf9+4h7FuMeVvIpVu8FrPbf2G0Q5c5RfT9C14L0n+yyktXUx8ycnCPZNZTcqbTeS3G0tfbZjhFzq3D0q30jT5jahejJiIx4Y2/YBG5kqWvTUXeB1fzYN0+7t6ZyKYd1K1fix1BM4RB2LoRm03S782UrMDSXa37myY+PsGulR0ylddKp0L6KviZH3a/mS6TTRyhQEaHioKsj5KsEInD5oJb4K9N8AHhFCf53OKIidhY+jrzKyC4XIgM1SIkshei+w1sEbPw8UYUkBIm5HTxrZH8EGaSJTKs2YiiNjdIEiI/nYoxs94gkRVix0cbyYUbLub/U55/BdOb0+hjKbolr3jBj19FQUu7UdjsaHeLUMC6XPL9s+6ciiWbeFsqm97AY5MWdwi6u8Wd87FmWiQqXs9E+oPN+w9sc96MUVjY1XhCuvkXzN0MC7lIU/qeCqwXrByoCHyZhE3B60H6v33tXGSNlB6crn3oqnucPB9vP58CC1mU1My5yN8aaF/wylSk37MEpXzIz+J/MPhInYTZf9qAnCgLdjx9D517SQ3dPu7emLl0EVKE7cgbmYl5a7dJx7UN+a/MwuQH2z2eIHqnGrEkPRMLm49v2Syk37cKhqgcLH/2an8zFqylflVg6T2jMO2VjdJ26fiWzcXDdyzo/vVsn8bjxWG3s7P7P2Q7Fs3ssKyrcujYAbZgZS6bvTyH/fvqaeyp/3mQPfnmA2zW7yey++bfziY+O4pNf3k8+/nvJ4vl0dez2MOvTmAvrfoPVl78CTu3bxM7tn01u1J+jDmdLmm7VrZ5Fk87Psw2mzrus3UxrJ1M7fqy3I8CnwOpzTxWaCljG5/IYoliWrQvS7zjAbb4g9YpdF7qWdGKx1g6Tw3zdolZLHdTGTN/lNdmm83FeDCf5d6b2rLNPslj2bQXdrZLq9K+W60TKFIaddwqVt663k77X5vHMnn6WdpmYirfZgE71UWaveiFQJr5H5Z2+zOWFLB5rfufOLrLfRl2LWGzxrTaVzKdnxX7mKF9Cr05pb3iXNt6Xiq3sFni8WWxlS2PE7p/3OYz29niaaOv9rl/Mht+bx5buav1tQykv8esKGPGnUvYtJFX22Y+kd/h8YZYag6zdXR/DO4vte0zgA0fQ/cIXf+rKX/puj2xs+26Ugk6r53f64Hh6B5c+OR9jH9xvVT7j9ny8Tt4b9d63HBTHLlvOqi0KvEPizVZTLhSXQ+FSoHo2HBERESBDBHtx0uunxrRofHIHJaDtJtTQPYLMX1uCj6q4RrhIxvGvpaCt6tWkDsm8/2Aj2yYhdLnD2JXbicJhOtAp64dd8V46S4+vw/6CA2i4sNFcfBR3W67V3xOxOez87p98Hn9gXkbrORk0Ka5ggVafsV0Cce+PAx1RAzi+t38jYhIRuafSecxEt3wjATQXS5WV+L0uTIIbhfMZjPMTRbxhT2m8IqZOR4XhYdEQK/RksgoXnLwl/kccLrtsAtWlFUeF9eVkemJdJ1saM6adYPIiEgx48bAR3Q74fQ4YbZYYLXaxD+DydFpyN1TaBAarqE9M7JiHjAlLVMDTlhgbKwVLZuMTE/jG8valRtO44uKo2K6WxeiRQgVrkM+TIiLg7t6PpcffnIXFSqVOARIz1PhuhCyUnqEhGpQZ6mmtt9QTllG5p9Il0LyCi7Unu3wYkAHuDgabDUwOWtJQCFknSIQHh4OfYheevDqw48mTMOghKFinOQnhen0OoSFUrsQiqnISrkphvrz7k3iHBDfFAm5u1EpJxq+Z0zA8qqqf2qigdOlkNwUw1Qc3id96hxuRbiYuOsWoiUrQ0XFrY5WAYVaIVqmm/sPRExEnBgf8bnF1drAtMWNJjMcdv4w1oMLF8ulmYdkZHoWnQqJWw2r0wlrU/vHwx1RKPgDV4U4wttudcFmpvUabfB4BDHREMjPUTuyTjwP6PZ6xGUKio/8FCe5xSFEPmTfOQ2huq80RkZG5lslqJD4nHL8+Y+D4hsXxTZdweOf42cP4+CpnQiNCIEmVA0+T4NfxV/V8wUSDX4GrUoLfZgOKg0Xkx8CCcij8EKpU0IbRsvIDXSScOX57GR6Ip1aJP6ag83pJler62dJ/MY31tWipu6yKBRG//E0Np9my+3hlscDi9FJZkiD0LAQKHnMRPGQ+E6Syw3B4SYB8Vld6bNawP7P/yauKyPTk+hUSF6KeQQvf/7TtYXgr4OPHjYW40dORGNdE5rqzbCabbA1OeBsdFER4BX8JCAlEuMHIUwdDY/gE+v4w1qXzQOXlYvKCye5hWaHSRyzJyPTk1C9sHjxr/gvuT+ZxOchwZmyUjhsVpw7VoSL5WcQMSAZI8Z0nvfiA0tD9WFI7DsQetJcdU05bIJALp8fyTcPw8+y8/DI5FykDLwVCfE3Q68IR1NNHQTaB7d6Oo0ayYmpmJ71OCbdNQ3DkkaImbyvOvpcRubboGWs3b0jbkavmFiuDOj1IYiL0MN08QJMHgXCo2Iw8Jbh+NWqt8SVgsGnGzac2ocLRz9ATX0D4oaMxa1j7kN0RKw4CQofQ8dxuhziX5xoLPkQpuozqK2vx8j7/wN9E24JtJMFJNMDaXHtHvzpY+SSNcJGxVh7GfVWJ+qcXtQ31OP8mTJ89vfdWL/y91LrjpyjNps3bcKR/YdgOFkKodGB3lE3QK8NaRERJ0Qfim3vvgvLlTokxMVB5VbCZXGRi8hnFpJFJNMzaRFSdGwv8dkPv5n5YFWL2QI+WQnPuHH4n3mx1LedbKo1ZSXHcHB3IWx1Brgaa8hCdR7n1FUUY9+ePSg6fALHS76E4fxp2r6cYJDpubQIyUOCUam0JCQ1fF4vBGsTeoVooBGfA5GQSFTmhqtvN7am5kIZHGf3YWyCDwmRCkTr/DCfP4LqinaTt0k4KYY6crwEO/cdQlVVJbl7gbT35S8P4/8Wjsf7c0fgT0+OxKEtK+V0uEyPoEVIg4fdChUF/nxyEp5hc9od8Ln4aOxAEzfd/PVXOv5pl+qKUziy+XdQXNiFfhEMYRovCYmEeb4IDaeLSJQd/2hYjF4JFfMgQunETREe+KoOY8fSn6No1ePifA2C6SJgvojzHy/Dnvf/R1pLRua7S4uQbr0tHT6lCkq1Fiq1Gn6lAkaHQJaqeTQ2g8lYi88P/V36HMB26UtcObEDPrcLfv66uFcJm0dJMZaAgtW/xf6/bpZaBti06jXUnC3G0Hg1knurcXOMEjVf7IKt/AAEMwmV8YGtKnE7JnIvlZ6gk9XJyHynaBGSRqPFjMfyyCLxSUv0UKjU8PDFCiWUfNycWgOLxYyjB9uOvfP6+AgIHxwetSigJhcJzuGB0ebF5XorbA6n1DKAyXAaHnsD/cbg4X/SxaeEmdrbaRtWtwpWQQ0LhUtXbHyucT/Vy66dzHefFiFxBqWkiqO39WFh4jzcer0eutBQ6PgMQOFhFK/4UXOxecrRAPxl10tmP5qcfhKQD43iTwYbCcDuZnC3e71IFxZB1k5HAgEaSXSNThKQ4CchUuxEjZtcftRafTDafai1MezZf0BaU0bmu0uLkHi27pZbR+IHw0YgKjoaMb3iER3XCzFSie3VB73i+6Ke3LstfwzELU6HHRcv1+FotRc7yl3Yd96NQ5UeHL/sRanRh3qHH263II7ba+ZCbROOVtmw74KAT864UXjajcMXPfRTwIf0O//5yVkBeyvcKKnx4NCB/dKaMjLfXTpMfsIfrJZ/WYqTRz7FX7dSfMMYdGqVOBoc5N4lDRmG7Gk/wYhRt8PD/7pfyTFsWLMM+/9WCKWU4eMZ81F33o209AyMzZyIlBGjxHrOoX1/w9nSE22SEGoFKVp6hvTWulVobLRg9lPPiHPgjbx9LNIz7haXych8Vwk6i5CMjMy10SZGkpGR+WrIQpKR+QaQhSQj87UB/h+p+wHeZaVdCgAAAABJRU5ErkJggg==;" vertex="1" parent="1">
          <mxGeometry x="-120" y="210" width="158.52" height="46.8" as="geometry" />
        </mxCell>
        <mxCell id="7rcC4zyVuGGbeMlEar-x-8" value="" style="html=1;verticalLabelPosition=bottom;align=center;labelBackgroundColor=#ffffff;verticalAlign=top;strokeWidth=2;strokeColor=#0080F0;shadow=0;dashed=0;shape=mxgraph.ios7.icons.controls;" vertex="1" parent="1">
          <mxGeometry x="-190" y="609.5" width="80" height="70" as="geometry" />
        </mxCell>
        <mxCell id="7rcC4zyVuGGbeMlEar-x-9" value="" style="shape=image;verticalLabelPosition=bottom;labelBackgroundColor=default;verticalAlign=top;aspect=fixed;imageAspect=0;image=data:image/png,iVBORw0KGgoAAAANSUhEUgAAAFIAAABZCAYAAACt63NYAAAAAXNSR0IArs4c6QAAAARnQU1BAACxjwv8YQUAAAAJcEhZcwAADsMAAA7DAcdvqGQAABlYSURBVHhe7dxnrGZVuQfwPYUqSBFEQVQUNWrEABpLRBEvAjqohGJyxRok996gEkv8oFejMTFGY8SIAa4kKhoiYMcghBjFWBKsqFhQEBuKKNKnnXnv+j1n/i973nqYOYlfzl8Xqz3raetZZe/9nlk1aOhWsMNYvTVfwQ5ixZHLhBVHLhNWHLlMWHHkMmHFkcuEFUcuE1YcuUxYceQyYcWRy4QlPyIi256nydWrV3cbN27sdtppp6rjoW3z5s3dmjVrui1btnSrVq2qPpgmI/LRGp8xcu34gL7QpjwJ4TUJ2qf1TcNMR1JuYWFhqjJLgbGctvPOOxcvDt20aVO3yy67VJ3CfcfMQpweWnzvu+++brfddhtOViYoOj9Qh/RhLF70m4epjqRQZnlHgEffUZwHu+66a/fJT36y+9znPlf9oRl1gDpj1Pv6bNiwodKxxx7bveUtbxk6L84mZ6kTNA94S7Mw0ZGaRM2o8tsDkShq8BI59957b7f77rsX3/3337/75z//WXQxeII65RDt6WOU8anfdttt3UMe8pDuzjvv7B70oAeVEzmZHAGxI4hs0T5rUiY6kvBEzjxESCJYWa6eMgXQRZHMMOM5ct26dd0TnvCE7tZbby1HoCV/7dq1Zcg999xT7SYEHvWoR3V/+tOfuk984hNV/+tf/1q8onNk9WVOAxoYpUtdPx2APdMw5sg4YaR5Kjhk/fr1FXkMF3FyeyDD9Y8a1Xfk7bff3l1yySXdKaecUn192PfwBU4yJm2/+c1vusMOO6wiL47sR+lSEfp5jsSbTdMwtos+UEU4nWHGxUhKMJDhS4GJAON/8pOfdD/72c+6X//6190f//jH7vrrr+9+//vfl+N+8IMfdDfccEPJEqFkAHkxfDSfh/7YPsgY9cUs3+ywI80UhxknarIMODjlWcjyNf6cc87pjjjiiO7www/vnvKUp3SPf/zjK+oOOeSQyp/+9Kd3H/rQh2r/vuuuu4YOmKTzA7VjKZjFc76lc2DfyGEi9EUJgQ4WBs9DrkLGi0yTYnK0ywMTo4+8RH3fMOWkoF9eDsziN7ZHUviB7jVoGSYZO6kcGuAQyb52xx13dBdddFF30kkn1f5qeYtsyRUJD1Frsjicgw888MDud7/7XUUsvrfccku33377bddhsxRkj6QHvSdhhyOS8gykdH+PVCZ4HozfY489ymn77rtvOeSggw7qDj744Kq7ImlTV9aHfxwFo85KfbR9EsJrFHiH/1IwFpELm1o0FBPLaj4jsyVKstcpy9WVoygxUbgfkU7tL3zhC90JJ5zQXXnlld1HP/rROkiMT0TLTdAvfvGL7swzz+zOOuusOnye/OQnF1+n9rSInIfoNEqbuv6lRKQB22Bhw2Cw4b6FwX3rNw7Wb9gwaEtq0BxSebvPDVqkDdpetk15VmoKDP7xj38U77Z0B+3SXGXtzZG0HVx66aWD5oTBO9/5zkFz2KApX+1SU3yYN0MGL3nJS2r8TTfdNGz/y1/+Urq0balkKkc3ekt9naS2l1eiU+xLud+unDF0nIbxe+TGtk+2iR2sbgdFs2dNm43GpCLCbDSBNTOWs/LUGdoKY/faa6/hgWQJa8Pj4Q9/eF3IPSa6R37961/vPvvZz1YEiFZ0LuP77LNP5WjRnXrqqXU9OvLII+tw+9vf/lYR2ZxX+sjxl+cSncgLUpeTw55J9inHRXjRbRJmOlJg6CZMLmE0Wp4FilCUEowGeyKee+65Z3f33Xd3V199dfeCF7yglg/ok9TJ4BATCeTp82Rj37QN/PKXv6wyXuRJud/aXmYhMvo2QeRIsXE7HNmYrt7cmCzeDc0OY5RFlFw95VnAHg2D5WadcQx9zGMe07Vl351//vnd8ccfX+2cgYYznOJkZwI8OzMML5f24447rhzh0VLU6yMDvTpeichpQE8G2cqj9uG/XY5caBO4eaFFxqpFR65eff8jIAOV5eoUnsY4QC/yLE20lGEwR1mO/ZcWVME7yitHPW1kMhDw0scJv/rVr7oDDjig6DkBnUkgA99ZMIYd9FLu26eMR3SY5cgJrQYlLRoQZpQkhHIiap4TgRPRykUSR1CI8o973OO2Ui1uAUBGHKRMvpRoA+Pj7Ac/+MG1rI3v72lydPMQWoitsY+tS8VYRG7evKUicnXnpWt78mgbpqcUhmOuzKClLm3OFo1m2PIxBihprIikAieLInjoQx9aB4i3PGReccUV3dFHH12vyxjp8LFsjXe3pBt+eLvgJ7o4Js4YMXNYlxuHB37sI1NdORMGsyJyzJEctzB0ZPPkqsW7IYUwUZabOQKLZgYoJ7rQGhfHUopzKapM8fClknb9yg4TTzGgLll2Di05GfZPz99yuipzRMxLHqSOlk2JxNjXbw/tLEdObC3/tf+4zbUL33BWM8P6KD/PidB3kpSlrSwC8dRPWTyzB4a3nFP6/RInWcoxGo8cDvpNHqj3naicOt6xSVvfvpRHx0/DmCPbjtT+15i2qFwKg3kQMVnWOYUpqC56oG9cDIoBEgcmT7sIT3+QehLaoD8xyVOeh/CbhSmnhTuUrqUJmoUsa87jUJHDQGXtMGpUv5yIy9ILH2WRHYRHf2zf+JT7+TznwCS+kzDuyNVtQEurWmLEPPQFTUqMpTBeyokoDsn2IOkfTdpDD4nIlLVnfHikDJPKo2ke+rrMwvjSbspJlBxVdFKaB/uYCGK4ZW5vE11Z8hwTZ8Vho+D0gFEQ2dP06LfN6s/4aWmpGHek/zWDKm01ckcSZXK6c4Ky9pTjwH7KWGWwPSjjwanKcW7GSBmThH5Se59/ytNSf9wsjDmS8Pb/ZqhXXYuvxnYkcYKDBV9L24lKQe2ilEP6KePQB9rjdMAPMkHQN3jRhsXU12V7UvjMw9g9cuOgHQCDZvSqdg3QMIfHyPAxWMKWchxhOYNy/7AIHzkD5MYp33TTTd0jHvGIamMUR2a/7UcOxOg40STsCLIXS5noSRhzZFvZbfCW7qqrr+rOPPP19TyMgUiinDLFlZNiCMOB03Ih/sY3vlFPIk5rF2gvcuVo3/e+93XnnXdevU7Dxzh0Xji4tHsxQZ4nHE87rk9xDmf+61//6p71rGd1n/nMZ0pu9mO89btXnnbaad21115bb9vZoJ8cE8FJ6rmWsSGrJG65+eabu3e84x3dm970pm1sHEPr3Ab33XnPYLBpMDj55FPa9C8+dDehlUvNkErKzfhhez815SpvCg0+/elPF98WmYP2OFgvTIPm0OGL236KDKnf34yoPG3Rqz1OFv/mqEp5efzb3/52m/HRS+rrHr791G875JBDih/e0zAWkYON7Uqydk33Hy88tvvmNd/sjjz8iO7000+vSDFbZsRs5lnXjEqBfvW3ve1tFZVf/epXu+c973kVhVnezbga62WD5+dXvepV9Qk2JzneIlSUaMujnojC/2EPe1h9/Hrve99bvHz/zktiLzHQ0tdHMY+WbUK697znPfXiRNTSJdHNFnzxwVs72Y997GPrE8ill17a7b333t3f//73YbROBEf2sbB+02DTvZsGr3jF6RWRZ511VrW35Vsp5aAxr7wtpXpdHzSData/+MUvFn1zTtE05w7HtCVfM37FFVdUPQj/0KXenFM5/PnPfx5GTJuMaiOfDAmas4erp20Dw3ZoW0fxFclAFv7aIuf888+vsYcddtiQ9zSMLfhG3KJi8XNA6pI96zvf+U7Nllmzj4kwMFOg/rKXvazKYIZFgDFNVvExo8rpB29s9Hnr7ZcWHh2bQcP9kDyRak+0Xz7pSU8a6odGRNFPBMvJE5n0wgfoQWf8RbO3TXiTiwfIRd6zn/3s7tGPfnSNAft6f9VNRLmzBxE5aIHw4hevG+y0y86DM844o9p//OMf1+w248f2Ne3ytuSK1uwdcMAB1XbVVVdtM5NmPpHWluygHQiDdlhU/Zxzzqkx/T1ZIrMZUuXXvOY1RSva0i/aIJEbtCVfq4J+ynD00UfXmOb04Xg6pCxdfPHFFZUiEt1BBx1UY0f59zHxLB9s3vZFAZgddVGXSLK/SPYws2kPEgF5CwOiQxJBZt/epQ6iQntmWx9kDJ6iDC9jlUUaqIOxIpZeohHsscbkXaeyfRGib/RTT3TTh23k4qudTuTyQ2ROBG/2kYhct+7E2iPf8IY31D4iypqyFU32OzMm0uROSWU0QVuew0gVUfLmnGqTqyfZR52I5OBDjj0skYu/MpqU8zk2KVGc1RKZEplt2yheeItgujZn1i0ivJWT0+OCCy6o8Tm1jZ2GsYhcvfVUMgstLIZ3L/VEirK2Nr5ykajdbIoMaMoNI1db9sYkEA2An7JIMAatsgTalNGQpUyvIHtdyhA90Ebv1O2VeGnLalJXjk5kkpFx7El5EsYOm40tlHfebddaHs3iMhqDdkp2z3nOc+oqABS2PCLAhvzEJz6xvk2DS7hfQHzkIx+pH5JmmYFv1sY94xnPqOXjCgRf+9rXuje+8Y31EIAnZ9hSfE6wfH/+8593b33rW7v3v//9ZaiExqcIPE0q4/H0hRK9n0bjZbshH//LL7+89DOW49A74Ojk1xxthXQvetGLilcmHg/2cvpENKJtsbEtp61Le+3OOw3OPPPMWgJXXnnl2K8gktLmytOEF5sWZVW3bC0TPKCd0JVD/5cWcPbZZ1e9TdKQt3L4N6MHr3zlK2spXn/99bV89bn+aANyssXceOONw4MkS/vII4+suq0nMtgljyxLGi688MKqtztl1ZvjK5+EsYg0K1s2bf0I1JaLWQC/s/GY5OJrFl1ZsiRtyCLYlUGUgCWYSNMmIkWzskMB/6Zk8RAZUnNSHQr6jO9HBL3a/tgdddRRtYxLvzYmy1zueoSfJJK1iTZyyMXjzW9+c31YQysKE2H6JLpZeXhbZWTjoR7bJoI3+7j3jrtbVA4Gp5328jps/B6nMdrau3h9sRmbeSkRqA20OYCa02qWL7vssmp3QIkUfYAuNK5I+PYR2vCHZszW0uJvfxJJLuf6ckDlETEHEjqrIujzCfRHh+QXXXRRjX/qU59aekT3SRhzsdns2n7t8WrnVr7uuuvq58a+5PkIb/bNTvYjaHxqdu1jOXj0oRE9ZtTVwjhl7WiMAy8V7Iv2VHuvCBdxyviIBG3Geez02Pe9731v2CehHeVr1QAdPO558YFPIjof1ehsfHNg0YtW+z0Z2kWwlWfcVDRG22DLhnbFWb8wOO644ysim2I1o03Zmp1+0mbfUkbXhFa5LZchzZe+9KXi69FQlInMRLixGSO1Saw8PPsp8vt6ZP9rE1D8RKSrTSKnHRxD/vRLHv3s4cqjtoUvu9HbT+dhzJELLcQ3rd84OP/j5w3apWEoBEMC5AceeGA9laSdAyikTHgUbdeMwc0331zLpkVPOVLZ0rK0X/7ytn00OjJisDI57aSutvDCV12/NnXtxxxzTOl96623Vg450EzeoYceWnQmJ2OlTBqdpdiJTn9otb397W8f6j0N4y92t9zb1kI7IBYsk9Xd5lWbu3b81JIBeRPWPe1pT+t+9KMfdR/84AfrSmLJhqYpMLwqyInQl371tAX9ejOixjVnVd1fM/gJX19G+M8DGksSz5Tl6inPQ1zE7mn0Y63NtZUshDZXreV+Y+chAqFfBvV+CuJgCvbLUTjtkP7QyCfx7Ldxlv2Q4+2PzgBjneoc06edlJaKCe5dbOLMel1e28YDQxQYVSRO6KOv9GiCRPS0BKN8+3WRx4HqHOeASrQ7/JYL445sT42Lp0x72BedW5u3FzEqETRahr5TYFI9eT9Bn9do0idxmHrbY+tkNpaDc0ovB6ZEZHsc4sSKyvsNmoUYlnyp6Bs86oAg7f2+0M+DCHQ1E4X22HaQ1VhXtezBy4ExR2ZfXIzItqzm6DrPcfql/hLtl/s0/XLqMKt/1tLXx2n/lohcdGRTUEQOr4OzQbGlIAb2Mc3Bfbr0TXJa+lOGfv3ftke2BVR5U6UdNf67fegbBlmaSUF/mfbLfZrRvlG6pKDf9m87tdeuWd1Cfku3MGjLYu3iG2pLglAJoiBEGTNs9iX9Ud7yEQX4qKOXiwZtxqIxRp4ymiBGaevnEH7G0RPiaHti9EFHp8jwyIoHOrobSx906LOXhmfsnYYxR66/b0O3+267d7vtsmu3ZtWabkv9BdiichQglGMoRUmfRtNPAW2UQUMZG702dRAJ6gzxpsUYY/spbXIYbUsueetEnjYOxZsM8vIClxM4BD1n0Z0TldljLGQyMun6tKnHodMw9mRzx223d3vtt0/38f87tzvrjW/o9t97/8U/q9sqRCQR7MEeCMuLCjQgz/7zwx/+sH50zxii8JBTNAYoa894E4CeAWg92fjz4+x1oN348NLOieTiw1nKxtFV4lT6xrE5uTndKz7jvMhIkHhtZ1J8o//ABz4w1HMimiLbYqE9/N9192DdSeva0da2yHaAI5OaspU3A4fPpo3xsD1t6k3pKuc1mhcVzRH1vOqVm5cXTbFqV2/GVC6BuvFSc2TR6muGVVI2tjll2CZ5cUEG3HDDDdu8AImeEl3pHp2TtKU/9AcffHDJao4uvpMwFpFb1m/oVrdIOPU/T+0uu+Sy7phjjune/b/vru+9WT5N4ZpJM27p+qMjr8HMdFOglvvzn//8munPf/7z3Yknnji8wxmLRrSlnJmeFJHNmIpIv8QYjUhlPCxhssiwZeCn/w9/+EOtBpH4qU99qiIN6C3y6J4II8tWow8/f8p84YUX1m+T/EWuX3Poo+9EcGQfW5rnt2zaPHjhCccNup1WD/7rf/57a8/i25TA7IOIADMmaiTwGcGs+tQAeY2GThJxokd5VkSKikRkf7yyCO/nEn282BWV+faNh98HRTf0AXopckVdyj41GN8mo/SJrZMw5t7BloVu9U47d3vssWfb7O4/HUWkf8TDbJuZ7F+Bl6g+Ur3+9a+vuuhC14yruplEn6gUQdnHoM9LOXU5mcmzr4YGP9GFv8gjV7tIE8HaySBPBPvA5t/J8LHMpxB7I3r9bBJ5/gjf3ipC+0j0TkRjsi3sA5sXBi8+cd1g1do1g9e89rXV7JcW2W/McPJmWJUlUQhm3u962vIfXH755RUBkhk1s2bczIss7XJ9IkoZ1CPn2muvLZ7GJSIlvLzIlasnEkU62COjm1/C6TvqqKOGOtNP3ia08rTnz54/9rGPlc3ejYK2aRi7/piZrt0l16xqJ+LmhW7XNkvQaGuveOQjH1k/+vS50z/a4YOXf7PHzPq8CqJCJODVDBxeIyR8REZzVJVBxOgTESW/IVEoArPviWC80Elk2M/0qeeTgSgFtGhAdOo79NBDa+XQnT30Z5Pk13E+vknkSvTMrzSi70S0zm1gZsEfmOv2ORbyiy8wMyIkEBH9vQ323XffGp9TO9EkAhN5yY1RRpNoIiMRaY8E/dmnw0vkKsv14yPy8LzuuutqfHPs4JZbbqlx+qM7OsAHUhfZ+J177rk1frt+aTEKswL2lKZolbWJosDeJFqaQVtbFiNbRCwFTY+KSBBNeNuftMMzn/nMimKRKQKV0amTq0yWU1hdFOrzT9zQlV7aRBfarIjsecaSqS66jUHPrqViriMJtSz8FM6S9iXO10TJlYfCflZMQVeUCKcUZ84D/gw1zhgOZARj8FZmJGO1MTRLVnsmgNPxQgN4oUOvnS5kvPrVr6667/O2Iz/KYottQZsxX/7yl4vH6GEzC2OOJKQPCtp/3Ml8MHd6+0NzTwrujxTUztlObopLDB3lNQkcwRgRYpwJcQqTeeONN3bf/va36+noW9/6VpV9Fv7+97/fXXPNNXX6fve7363Pue6aymh/+tOf1qdUPz3hmEQ2+M5EL7pbYZzFHvKd4vQJ/WhEzrJn7EJuljnhpS99afeVr3ylO+OMM+ov/P32h6JgttEQKhGADSf4zYw+0US5iy++uDv55JPryiNa0CZKIlo5iXHGkmFytHEqqCvH6cp4SIlWubqyH646TLS51oi8q666qiaerviRwwYyPRKqOzQdRBdccEH9VsjBZFLxpc9EtM5t0BxZeQ6bd73rXbVBB03BytGFFppx2xxA+RXFvMNGexIe+vU5dNJm83fIZEwzvOi06fe46XCRjPM5Fq1PwXRoDh/TTz/gE+Dbp/GDU+Nz2MzCWEQGiUj/aMfrXve6WtKWidkza2YczJA2UYhVlsPZZ59de59L/KyIVBZZokPZgaEcflYIuWRmzxI9lr9rCVp0eNhmwgN/vyzzb6zp//CHP1xbiO1HP53xdjgZFx5t8kpPP7H2WGl7SETORGMwEc997nOH149ZqQkdltH3x+jL5VZ0iRgRIJJFVqJsRxLeolCKHDLI8kuLNrFDfdqEbKNbyvNSO1S3emU6pkakf1fHXuF3hLNg9swuNqIG1EWEugPCCwDvDUWWiEGbiNtR4BHZeIp8OVmiz7/e4jBpTq92sGroHdpZMNZB5wcRszDVkcDoeYgjU4aMi2MtHckyspzQM7TtW0Oa7QVe4UE+OUCWPo4iE5QzyWi1R+dpQCvNw0xH9oFMipP6zMMibaN1yvevEnj0DemPm8ZjWl/KkH78UzZZZJCvjUxjRh0YPtEn45eKJTtyBbMxO65XsGSsOHKZsOLIZcKKI5cJK45cFnTd/wPsaUQcYd4x/QAAAABJRU5ErkJggg==;" vertex="1" parent="1">
          <mxGeometry y="590.5" width="82" height="89" as="geometry" />
        </mxCell>
        <mxCell id="7rcC4zyVuGGbeMlEar-x-10" value="" style="shape=image;verticalLabelPosition=bottom;labelBackgroundColor=default;verticalAlign=top;aspect=fixed;imageAspect=0;image=data:image/png,iVBORw0KGgoAAAANSUhEUgAAAJcAAABrCAYAAAB6zxAbAAAAAXNSR0IArs4c6QAAAARnQU1BAACxjwv8YQUAAAAJcEhZcwAADsMAAA7DAcdvqGQAACf3SURBVHhe7V0HeBRVFz1ppJEESAGS0HtCRwRFEEFAFBsoYkFUEGzYyy9iBQUFBRQpAlJFijTpIKCAVJHeQw+EQEiAhPSE/56388Jk3YRFWRJgz/fly87s7OzsvPNue/fecbkogBNOOACuxn8nnLjqcJLLCYfBSS4nHAYnuZxwGJzkcsJhcJLLCYfBSS4nHAYnuZxwGJzkcsJhcJLLCYfBSS4nHAYnuZxwGJzkcsJhcJLLCYfBSa4rxH/NUMrOzjZeXcKRw4eNVzcWnOSyQn7kOXToEFxcXIyt/JGWloZjR48aWxacPXsWmZmZxpYFa9euhZu7u7GVG7yW9PR0Y8t+/JvPOAI3PbmsyXT+/HnjlYUgUVFR6vXp06exfds29doMEs4aJNDwYcMQUrKksQfIysrC7t27UaRIEWMPsH7dOuzYvh3h4eHGntz4a+PGXMcTcXFxSExMNLaAY8eO5ZKGPF9hyf+86cm1efNm4xWwccMGeHp6GlvAoG++QUBAgBqsfp9/buy14OTJk+jbpw9KlChh7LGAhPzoww9RuXLlXOcaM3q02qexZs0afPfdd+j89NPGntz4c/VqBBQrZmxZwHOTtH5+fmo7KSkJG9avh6urZRgTEhKwc+fOXN9bkLipyZWcnIxxY8caW8C0qVPh5eWlXs+ZPRsr//gDQUFBGD9unCLDxAkTMGL4cPT+4AN06thRHUfyEZQev69YgaefegonY2LQ9t571X4Sk4QgEYKDg9U+npfneOedd3K+zwxKww0itapWrWrssZz/8759Ua9ePbXN83L7tttvz9ke8NVXaHPPPWq7MOCmzqGfN3euGqBnn3sOmaK2Jk+ahG+Gj8Jfa1Zhwtgf4Vu0KNo/2QWTR49Qas0WSorqKyYSJjo6GhcuXFBSY/SPP6JKlSrYtGkTRo0cqaTJrDlzFFGn/Pyzkljdn38eXZ59Vr0XFhamzkFQIr4npBsix+h9xHfffquk1I9CdA8PDwwZPBgpMjn+16uXep+ThLZW9x491LYtpKam2iSzo3DTkSs16yKOx8Zh65bNGD98KGJjTxrvXC24ICgkBKkpyUgybKOHOzwiZOqGwUKIxYsWoXXr1vhAVCeJRjJ2evxxdRwN/h5COqrKdvffr/YRJA7V6vARI1CzVi38JJNg1A8/4JeZMxVh14pU/bJ/f0yeMgU+Pj7Gp3KDtuTWLVvQtFkzY4/jccOTKzk9E3sOHFZSZPPmv7F/xzYkJpwx3r02CA4ri3OnY0WypKF69eq4p21bpXZd3dwwViQRjfYzZ86g5yuvoIwY9/2+/DLHjhorUnCkkOqll1/G0126KNVNW/AVOfbJzp1xWFRoV5G874sEu7tVK/UZa1CqfiXkGyifs3YQHIkbklxnzidh1eo/sWbtOmzesO6KyMRB5S3Rt+WiSKKLbu5yp+S/qxuyiohkuJgN16wMuGRlWv5n21aZl0Pvjz9Bu/vuxe5du/CBkCNDvMwxQqYQkXwESUVy0X4jeSZNnKgkVvUaNfDDqFHKc3yhe3dUq1YNXw4YYDNMsm7tWqX6P/z4Y9x6663GXguo6t2E4I7CDUOu1LR0LP/9DyxYuBBb/9qIDJEStnDRxRVZnj7I9PZDpmdRZHn5im3lhzurloVPcgK2b9+KIykXkeofggzfEnKst5DKQi6SSl5YXmuIoe1xIQG+J6Pgm3Qa9erWVe8fPR6DhLjTeV4HUa5aJMJCgrBh7Z/qM1+LZGnUqJGyjfp8+imWLVuGZnfeidffeAPDhg7Fb7/9ptTeqDFjlCPx4gsvIFnsvAmiJgMDA42zWkDiTBg/HqNFnT722GN49bXXjHcsoOcZHx+P0qVLG3uuPq57cu3ZswezZ83GksWLxfu7YOw1IAOW4e2P9KIlkOlbDBk+xRWpLsp+SqMinl54/rYaCEuNw5SZs7HHrwKSQqvB3aco0rJFegkRIX/eHu5IyRTppG6V/AnJXIRUlFg50kv+Fzl/Cq2LiuorVRyhVSKQlHkRZ8+cRszRwzhx7ChOHDqANLHFrOEi3/FYj5545dknsWXTX+j/xRdKldUVz7B27dqY++uvKszgLoZ8L5FgtevUwas9eyJeVOnAr7/GLQ0bGmey4MSJE+j72Wf4+++/lXc5WJwBc3iCtt3q1avRrl07Y49jcF2Si7Nyhbj908X+2Lp1q7HXgmwhTWqJcKQFhKCYpzvOFwtDoosHskWdZXl4wU0I1bNpTdQNLYHyxXzw28/jMGzNbqTVb41kuCNDSBUZ4o/EtAwcPZeizvlcvfL4cbN9SzTP1Q7D4lFD8FGXR1G8ck0knjuL82fjkZyahgsZFxEfE42YQ1E4tndHjrr2EjJHNG6GM9GHcWTfLrXPGlRf9GorVa6s7CcGUt959108+NBDxhEWb5BOAkMnKSkpKF++vPI66dFqkHgMqfR89dU8jf+rheuKXHS1Fy5YoG4eb5KGr58/KlSPQPHAYMyJTkJy8XBkevmIJDmDhvXr4vfYVONI4KkaIRjyYGP1mr/8ke+n4/ckTxXwax8Rjl92RaNGsB9aVSyJb9dHwdvdFQs6N8VdY/9Qn6lXuhj2n0lCkjgKtvBCZV+M2JeIyF0L8a3YQe7evmp/ikjVgydO4dyZOCSdS1BfnhAbgyO7t+Lwzq1IT7UQOS9ERETA29tbOSb8/7IY9O07dFA24ulTpzBv3jxl7FPCEWXLlUO/fv0UGTWoZn8VR6JX7965COcoXBfkYgBxwfz5GC1GLONAGmUrV0P1ug1QvmoNBJUshUlrt2FZqh+tcvW+a1oyngxMw8Sk4mqb6FAsDT+88Kh6zR/+xMRlWHLcok4/bh6BYRsOoIS3B0Y80EARqmNkOD5sXgO1vl8KH3c39G9VC68u3KKOt8ZtZUrA79QhLEkLgEdiHD6qWRzN2j5gvCvqKF1sOdGumWKHnY07hbOnYpB8/qxI4kwc3bMD+/9eJ/suHxphpP9Wsc1oN+3auRN79+7NtQTE4CtDHTT0idjYWAwVCXZWiNfrgw9QOjRU7Xc0Cj256O0wYKjX8NzcPVAuog5qNGyC6lUrIyQsHMWDgpXd8siPCxCXoQ7LwdM4hHWBtbBPpI2XSKGVzzVHzK4tWLF8OU6lXUR4q0cw/O8jSBRJ9HD1UDQqE4jRmw5iXfeWaDRyGb69r66oT19EDl2CofKaUmvIOst6Y6miXrggn3MVG65LvXJoER6AZ3+YhYQSZdX7D7jE4K0e3dRrIllssPNW15cqEu3MiaNKimULyU4dPYRd61bi1DHL771S0CPsLoY+A7MHoqIwXyblcpFYd999N3q8+GKOJ3otUGjJxfjNkCFDFLl4iS4ijSrXbYiIRs0QWrk6SoeXRWjxosbRQNyFVHQQKWSNoEN/oXeXjnh95UGRTDXQvW4ZtP50OA6muYptFoZKISXwwwP18c6S7TgQn4TtL7fGc7M3YsqjjTFvXwzaVS2NUxfS8O6SbRj70C24bfQKRMlxnWqWQbkAH/RfvRfDW1VDxwYWKTFg1W70/3O/et3A5Sy+6fGkek2kiz0Xn4fzmJWZgfiTxxEXfUR5mKfl/861fwjZDhpH2A+GJPSwcsnp8SeewL333Zcr4n8tUOjIxYyCH8XVZkxHp46EV41A3TvboFxkHQSHlxevqQi83YCAIpdCAocTEtFl6kpj6xJcM1Lxlu8JnK3VEp/cFYGfl67CT7EiAV3dsOlEglKN9wuBht1fH/1X7UGbyiVRobgvQv28LScQpGRkIT0rG+fTM3DfxD8xuG0dhPp7o+W4P5CamY1PSl9Azy6PqwH95tcV+GJ3kvpcfZ9MDHr6QfWayBJync47MqGQLc5KgqjL2CNRoj7TEXf0AHatWprLHLAHXOZp3ry5ivTTu7yWwVONQkUupov06dMnJ3muWEgp1GtxL6qLCixZthLcTTfIR8jlbwe5iOCotZj/fjeULVsWjQdOw2EXP2VLvdyoEubtjcH0ndF4olZZvNXk0kKxLRxMSEKwjyc83FzRQoi1Ny4JQT5F0KdROIqc2I+fps/A2tK3IiW4vDq+WYg3+rRvoV4TvNOxqfbdbtpQ8THHlHos75mJ/bt2KFXOwGl+CBa116B+fdzepAlq1qyJUFGPBYVCQa6MjAwVeaaLzMtxd3dH5O3NUe/udgivEqFcdWtYk+tUUgoenbTc2MoN94vZ2NKtKcNeuG38WrF7LMZvRZFQYx5qgJohAdgScxb1Qy8Z/vnhw2U7cTJJ1HBkGJqVC8KJI4dx/9CZOB1cCRfdPIyjgE4RYXixWV1jy+JAxKZc2e3OEknuGX8EWaePKUm+d88eFb9irIqeIuNXQaL6GAytUKECypQRdV2+vLK5eB8LEgVOroMHD+LTTz5RN42gdGnT4XEERDZCseBSap8tWJMrLTML7cYuUerLGtVK+GKNGOjLfvsN/pUi0HXBThxPtLj+vh4WD/CJ2hYj/HLg7bogapI4KLZXqEc2On4xAluDa6p9ZrzdNAL3R1YwtkQayZ0+ZafkMqO0twuq+FiSDX8X6cVZwvvk6+urCObn76/sKRrrxYvbN0GuBQqUXL/OmYOvBw5ULjWDhC3Fo+nwyKOID6qKLC655AMvV1GbnpfIRXT7ZRX2x13KJNV4qEIxjHmsGbqOmoVS0VvRo/vzoj5KKfXm7pr7HPYgISVdGfXV/T3wZJ8h+LOYEMsIf5gx4uHbUaPkpcHOFHbFXcbmsoVg+Z1h2QkqTefE8eNqH0lF1ccUG3PeV2GC2ycC4/U1A8nUv18/lUbCaDvTRrp37668Gu/S5RCbZt+A+7jnPu6w2ES7T501ti6hoV827qldGR+vj8af8ZlYPW4oKpQKQoJXcczYFQ0vdzcVVrAX3iLtwsSg5xJS5YhaKCnGf7JIs1jxKjV4zh6NaygCa6SLUGWc60pBx2XqD0NVpqxGh0ceUZLqj99/x/HoaLWYXdBq0Br/nG4OBiPrz3ftqhL1CK6Lffzpp3i4QwdFspN22iSZchjVjBmNytiO4bilJSt1xlhWVolQpLd5Dn9u2YFiyWfw0q2VUCPY3zjSPvBcv+89gsenrcNDP6/BoLX7sS32nPGuBQ3CAuFTJPdgG6beFSP+xNGc+6VBqU+PkEtC9cSAP3LkiPFO4cE1JRcLDp595hns27dP3RhKqvfffx+33HJLjqt8Lt1+Lc24kRkNwgMRKN6cNdLTUpUxXUSkyO1lAlG/QhhcG7bBongXzNy012bhRX5gHKl5tXKY9UQT7Hy5FT5vEYFwv9zf26LyP6PglFxXCnqNYwZ/pZweM2jc/zBypNIAzKJlkUcBWjg2cc1sLibHMcebcSx6NJxxjMP4iFGqkSVXsuKk7TU7W7COdRETNu3HmI37jC0LOpd2weAu96PT9HVYeuCUsdeCuyuGYEDrWihb7NJ1XA6M0n+8fAf8kIFSKXEof/E8mjZthmVxWeizcg8CvDwx6fHmuVSiPTEuW1i/YAbmjvza2MoNpt1Q2nMRu4rYXV27dVNrkIUF14RcTHrThRDNmjXDU507o4bcBGsbgRN7eYz95CKtgr1cYLbJL6Rn4LGfVqisBuKBaqUx8oEGSmoRwzceQO9lOxHoXQSfiMRpULo4Vh+JQ+e65XKOsQe/HzqNzjM3KFvLLTUJwce24WVRsc0faI+VMSm4o2LuPKmkjItIsv+nKZw8HIURb3dDZobtOsRWrVvjvnbtlN2aIZKMBSdcsOaaIvPsCxoOJRcNd+YVLV26VLnKnTp1UlmVJUvlHWL4XSQX7Sl7UVT4WdQjt/Sau+soBq7crl6ve6YJqpS6lEjHU78yb7My4BdHncTBhAuY91QT1AnxV+qOXlh+oANQtIgHWlYMxppjZ9B5xsacDAm31EQ8WiwdLz6Tu1yMd/h06kU1eexFYnwcRr7XQy1u5wWaFoOGDFE5WxxGSjDec0q0gojIW8NhNhdzi957911FrDp166o03U5iY+VHLMJazV0OF2Rcs63mR7saZXBrmWA1qicP7jX2WpAhkm3trv0YvG4/dsclYkCb2qhXqhhGjx2viMVBYkDWGmuPxomUysSd5YPx+sItqD9iGVYdjkO/u2sK2SwS2M03AK3vv5RfpXFBZsuVEIsJhZM+fzdPYjHlRqnAyEi8/957qoKIE8Pf31+tJRYGYhEOCUUwesxig6j9+/GIuMxdxTskwewR1cwwuNJAI+16L7dLpOSNvq1cCJYfiMGqebNQpYQvAkuUUGXzo6b8gtkJQgZXNzwjqvDtJtUwccYc7PQshTaRFfDtuigE+nqqRWwGWJmFOnfPCaRlZaPbnE1oJ2o2UrzLn7Ydw9roeCzcfxL+nu5KPb7XvDYaktQmZApZz15BdX1qchIm9X1HJRPSdGjatCkqVqyoytxY+0hDnmqQMUHmczEcMWHcOLXMw6h8YcJVJ9epU6fwxmuvwdfHR6V+3P/AAyoxjQNuD3yFJKdTs6/Is6IadRcZbA6Ierq7oVHZYMxNcMPcGb9gytgx8Pcqguxqt2Dp4XiU8fdWUivuRDS6zd+Gbnc3VgR5cd7finAjNh5EhhCqZskAPD/nL7wo9tRXq/fi5+3HVKYEM1Zp2BP83HMNq6JDrUvReIIClcSyDpnkhXNxsZjw6VtCrJ1qu0WLFmpyMt2ZHnWDhg1RSiQ/VR/Tutu0aYM7hHy0sZYvX66WisqJzVVYcFVtLhLr048/Rl2RUjQ2aVxezoaxBeY8bYzLVPaRvSCtAj1zE4w4fu4C3pi7HrGi6mpGb8T8gb3RcsJqBHh6YFHnO/DIl6OwyqU0/nrhbnSctk5F3qNevwe1v1+K5qICJ7RviCrfLsJTtcthy8mzWCXGP9GxZjjm741RxOrRuDo61an4jwl0Xoz4ZDuN+BMH9ylVeD7ukjfLdcOh33+PWrVrG3uEgOfOqaAp07uZjvScqMc6deqoYotdu3YpJ6lxY0umbUHjqpGLs2npkiVqAVWl5P7H/OwTyRex69yVhbOpGUt4uqj/ZpxPTUefZZvx14FjGNk4GKWq11ELz/4J0ei04hhqhgahQWhxjNtyRCUUDmxTB6/M36xsqb+FdBFDFyvSPhIZjklbL3WuKSaS8H931RYV/M+UYbu9Q7n96xbMwKJxQ1WKjTVoX33erx9uN8r2NRj3OnTwoCrkYFZqUVGbVJexJ08q9VlBVGlBe4xXjVy0s2gPXM1Mx2MXsrH3/JVFHkms4mLPWkswGv2L9hzDwg2bMbfHffAVqdBh0CT8ke6P6kF+2CPGPVE2wFv+fLD6qKV4YlDbOnhjoaUIpI6oyK2x55SUbFk5FC/dVkPss38uG9lLrHMipWZ+9wUObLm0rGMGs0orVqqkek80ueMOZWJYg5OaRCO5NEguxhPZsMSRdYmXw1UjF09jr111JYgT437nuWxl49gLXkUxIZintQgTJKel4/yFJDQrH4S+y7bh+025l01K+3khJvFSQccdZQNziObp5ormFUuho6jAykGWBiRm8E5SFaZcRuCyGGPN3Kn4Y9r4fOsaWebPP8avGGYoIpKocpUqdkkkSjGOSUGuN14VcjGBbf++fWqNyxGNLtjfgRKMsaIrgS9jYO4uQnpjhxUYI5u0+SCWiVcZdSZR2U/WYPlZ9ZBiqB8WhNtF/fmJKrQFkv+caLX8YnQc8M3L5mPF1B+V1LIGF5/ri/E+e/ZsRSiW/o+bMMF4V4gr9pan3F/asYUhSHo5XBVy8aZxvfCX6dOVmK5Vq5a6MYxpMeeIhimlGo9Ll/eTU1JURxj2R6CBekbISbWaauxPFzHPkATtNop2eptcO/MPq4BzXoFIFOlgLyi8/GUcbEkxM1zEfWB0Pz0zS6lQZjUwDOHq6pavY8Fjk8QBSc5HWqUknsemZfOw5tdpOH8mN6k6duyIVLknLKLgLPhp8mRs2bxZFaWwTOzzL75Ai5YtjaMtoBpkRN68dFYYcdXUIhdYjx49qjyWjevXq0poZkDQDuMsY4EFXWXaAv8FoaFhqFD7FpSpdQsq1rkFPn7/VE+2wCC+L0kmttjV0N5cKySh6A3auoHMhT+8cwu2/rEY21YtRYYQyBbeevttVbK/c8cOVTrXuk0b1eWGXQe/+vJLdYyt7jW8j5Rg/8Ybv1a4auTS4I9mMQH/WG5OicRWQuflj+9dNOrrSDbeGI4zL4ESgAOSkpqqjqeqZTkZI/15gWVmpStWQaU6DVG1fmOEVqoOD1PZui3QzvcSG9dTxqSI/F2JnZgl15gmhGJOlq04HNcASSiWhu3ZsEqk1GnjHQtoXFN6m9GqVSv0+fxzNTlZfzj8++/x/gcfqHgWCccsXca43nv/feMT1w+uOrmswbJy2g86skwC8Qup9kgwPbTcx/cp3djtJU1IFcdeCF99pWI4GiQD1ynZb8p6oFgVFFalhqprDKtUDeFVI+EfyJrGvAnEfEMPIRm1Jolnvh7+0Y/IFCJRE1v7FCmJ53A8ag+i9+3CwR1/4+jubUIwq8JEA2wGR4lEz48BT0p2glJ9zty5Oe0v2eOU/bY6PvaY2ibB+nz2mWpG0vi229S+6wUOJ9d/Ae23+9q2Va41B4EtGhvKLC4RGIi/N23CjBkzjCMtoGdECcA/DR//AJSuUBXFS4YiOLycqigKCAxBQFAIvP38FSHzAomeKp5lYvxp1dfhzIljSIg9gTMx0Yg9elAVstoLSukpU6eqYgoGQXntTPjjtT7XtWuujoBs7ssJwXQagmuH3w8dir59+6rffr2gUJOLJeisX2SEuq2QjEUJrHDhDWbfg969eqlBo9rgrOZg8OewOmb+vHl22XeUnh5FPNW6I18znsDPZYkEYqHqvwG7x5SX62T4gIUnGzduVFKWqUav9OypjqHknT5tmuq/xUDpTPEQdSNdgtdgDiNs27oVixcvxptvvqmu9XpAgeTQ2wPmi7O5LXPF77nnHtRv0EAlxNGw5ayeJkYuVQi77dGbaiAEi4yMVMUKkRERYnBnY/t2S9pNvhAyKUdD1DaNbsadSCptG+YHVtrcJqSmfamJzOt78aWX0KhxY5W1wKUwdpuh9NknNhXjVrS96EFzJYMZDDTe+b9+/frqHIS1oU7Pu6h4h5tk4hTWggxrFEpy8eEAU0WFPPzww0oqMaPCPKsZvmADWmazUmKxopgRaj0gDGHQEfht6VK1zcYb7HNFMhJMTeHgm/POSQAO2nGjuoZZCG2F1GwFWaVyZfVZnpP2HolEdUa1zWtgn1GWyPG6iB4vvKCasZFoxcWWqlqtmroGhhsofXXnGUomxrYYWmAY5yH5veY+Wtagkc9QDs0Enrewo9CRSz1MQCROw4YNUa16dTXo1rN4ptgrzGilVODyiC2DfYC48ezu0lKk2qOPPoq7WrRQZCMxaFjTgN4sUoBgHI02D9ts00s9KqRr3KiRyj8jsbkwzGUtNkyj2u32/PNKCpFcdFReePFFVd28Q6QTY3fMVtD2EsHr5+8gOdly/F6jjThBgrGJ7uHDh1WKEjsL5gc+OOGcqFTGDwtyacce5B61AgYHSwVhRcqQWLbWKbkwy8GmCmRlsS1QQjDeRpX5wIMPqrSUGiIhuHpA9clFYM5+gt36qHpZhUTJ9drrr6sBZ9Idv4P/A4UoPE8lITLJxBQXNl5jxicfr0IDnSrwo48+UkRdt369OrcZJAKlHCXjKSG9GZRwb771llKdWnLmB0o/s9NSWFGoyEW7gxKFA2RLPfCGeonxy8yLMnKDbYFR7QkTJihpctddd6Hhrbcqg5kGNaUW7TeqKbr7RPM771QpKrqnKFcC6JVaR78pfbjyQMnF72CyHhuwkYg/T56sjuGEYMbtOuPc1iCJ2rdvr5wRa9B+o7FOqXw58FryU5+FBYWKXFRvHABrNajB/SRKXu44yce2jc8884xKQ+Fga5V57uxZZUDT9mKsiasJlIyMiJu77xG0s/TnzNAp2vweXguLIyj1Fi9ZopatCH4vybktj3I11hBoYluDpKdU3LN7t7Hn+kahIpc9yC8/nAl0bBlEFcWQhRm0v9ijKrxMGeXSE1R1tKmsbRdKMusALUE7h6SjOiT4OdpfwaI22YGG4PuPdeqk+ovZAiUkP2d+gJUZ9HzpHNwIuO7IlReo8mgz0Wu0ZavRW6MtR4nDEnhmcFDCaKKYwX22CklIHKpBc3ttEu757t1zqTqqLJ4/LwLxOnbs2GFs5QbPTxsxWrzT6x03DLk4KIzi59XlRVfGcP2OnhmDslySyQss3LUGl7FoD1rbY83FtmNmB9/X4OfzMrrpKLAXWV7gtfI7CnF82y7cMOQi8lOZlFhUR0zFpqFPyZLf8aVtSC6GGcKY+iODbwbPyzAGI/Fm2JKKBG0repj5gZPESa7rCFSdLGqgwW5LMpnBUi0eb0aiqLka4iRQFVqD3iPXO82w5RQQDMRebgmHn83LsblecFORi8QiCSJr/rNRmzVoN1kPbszJkypOZguMnnMt0R6QOAxr3Oi4qcjF5R56gtZPd80L1uSi+suvh7ufUYFjD7jCcKPjpiEX7SVG6fOK6l8ODJzSS6RTkBdKBAXlxLsuB0b9b3TcNOSiRGFUn0HafwOu+3HNML/IeIgQz9pOu5lx05CL3pe96tAWuCrAAGx+oDS6Ug9v9syZ6Prss7indWvV0fpGwk1DLsbAaDP9W1AqXY6cOj/rSrDxr7/UgjVrDaxDHNc7bhpy/VcwR+xyi8XMujBXPtsD/fQ1epBMy7mR4CSXneAKwOXAY/KKbeUFrnlq/Ftno7DCSa4CBHPKWH5HUJ1ezT4bhQHXrECDJWbMMOUaHBP0mL6c1zogVQUzPenW86Yzw4GzmnaTGUwsZHUywwzM/GSevbWEYcr07j171Dof021C84lT0SNkLIwV0Ezt4XMNmd9lHe9iPSUXlpneTNAT5UM2406fVsHRvHLN6EkyFYfSir/FS9Ts22+9pd5jgzcWv2okxMdj565dah2S94lJisy1571j3r41uF568MABde2ecs+YRsRViP9iZ/5XOJxcrD9khcv06dNzxYA4eIuWLMllx7CVONtfk4TWl0XSfDNokMqXIphtyu7Q+smoBJt0TPrpJ/Wa38V+rHxcsRl9+vZVvcPMWLRwIcaMGaOIaA0u9fw8daqSKvyuxzt1Ug/FpPG95LffsGXLFvU9bGVE8PdMlGtgtqgZ06ZNwzi5D9Y1mPp36uJYYtA336invvK9QYMHq3ZIb7/5JqKiotRn5sv1aueCqT6jRo1SxLIGyTt+0qQCawjnULVIadWzZ0+MGzdODTZnK2c1bwwll5lYkydPVq0uObM52ygBzJKIs76UkerCjIIPe/dWg83CDUoYGtKUTBpsQqeJxZtLCUSimBMDKXFYMv+JHEtikfCswKG00OAxXAskKE1ILIIGPqXVq3LNmlgEpSmfMaRBgvBavxk4UBGLv4cFJfx9ZvvMvNZJ6a5JR0n01htvKGIRXPPUxGLp3fv/+58iFp0J5t+bl6f4WXMu/7WGQ8n1Zb9+qt6O4I+eNWcOpv/yC+YtWIAv+vdX+4nVq1bhuyFD1A1lFHz8xIkYJZJk2PDhOUFPqiadqfCTSAa9zDJm7FhMEmJSCjKvnSBRVsk5CfZhmCpS85eZM7Fw8WKlfjRYE6nTitkakscMGzECn4l00+Bg6vDCaRl0DdLik48+UlkSX4ukMS/nmB9bx2tlJgbB30ap9oNIGv4+XpuG+dF1Og+M5Fu8aBEOCHkoKf0DAvDUU0+p9ybLeXj9BLNXWXDLh6V/Ifdck5bS1tYi+7WCw8i1W+wFnfHJG8NuLXoWkSjafuJMHzhggCIWbwpVAwshCJZz6RvNgfEwBlk/XIngwxNINLOndkpsHz3z+XQMPevNMSiem40/CEq9vvK9Oo+eTwfTMIcHzN+rH6753dChqjGb+Tgt6Xjto43AKK/tQ5GQ5gxZ2ngE3zPbaTExlkpu/oZVK1eqJnCzf/0Vc+fNU9mzJC/NB4K/qZ9IXy3VWZiif7t1Nu61hsPIxQee6x9JG0ffcGtwVuuBYjkZS7Q0/ly92niV2003F4/+JDbFKy+9pJ5Qr0E1SRVHUHUyAj5LpJIZs2bNynnkyUMPPZRLfTB7QsNsO5nTj0kIVuzozzFjQkNPDpay6UYqzMQwXzeJalanmgicKAyoapA8JCUlOM0ImgycUPq8zOM3OynmnLLLrSg4Gg4jFyuDNfJ7ZAjr+DTMaoLEnCuzVcPcBvvZrl1V9bXGZvEYu3XrlqOOmKTHrjDay6N0/FLUMJ+SpqGeW2igWfPmxitLtqnZZmKdoAbL2jRoI91p+pxZCrGWkjAPNGsszWCDNw2l8ozoPD1fc+rOg0J868XylSLNCH5XkyZN1GuChFsg0k2joFuHO4xcZruD1ct5QXd7IczSia2waWtomGcnB2K02CzsyaDBgR8vjoMGS8hogzAtWYPkYsdpuvVa9RBmY5qqko6IhnmAzNfDKh4zeVlNRHCfvlaGBzToUGgw1ELvUcP8njl3nuTh95hBx4ZP3ddgTwoN2mFmqWeeGAUBh5HLHKc2z3hiw4YNaj2NYHZnDgw1ykHUjc802B3GDKqI3mJQs7mHhnVBKdUsDWftXTHWxRgTg5daZXMANUnoWDAEYIYmF1WoJiQ/k0tqyWBrB4O2obbt9D6CPccIes186gW7KGqY1RdjaBq0AWmsm8HQjjnzQve02LB+fc7zlQheI6+lIOEwcmnVQHBGUdWw6qaXqKvXevbMeQydVgfElClT1JP5u4uK4+CbDVItgfg+JRAdBkoAtm/UYL4WZ656LIzYciSbiivJjSbYT5TeIu0X3nyC3zN82DD1xFp+jhmluq8rSacDvRx0XXDB8If52swxJvbe1yhusjNp49E+fKZLF1UkYg6bmNOA9FojwTx/axSRSaUnA6+dMUT2zXjzjTeUXWsOTPO3FCQcRi42EdGgtPigVy81eAx+kig6kMm6QQ0a8PSCOPD9RXLpm0h4GwPO2kSmpvC5je3FHmHDEoKznx1kWPBKEjO21EGu4Zmnn85ZYmE/CLrmJI+ZHLNl4NnOiK77t+L9Uc0RlI6aaOz5rkGnQ5OTMAdGzY4BHxOsQaKTBAyT8DrYPkBDfwdhllyMh1mDXrZ5/4IFCxRpmRI0RM6vnRTiShfRrzYcRi5WMvd89dVc3Wn4Yx9u3151KNZuPx+QpG0D3jjmuE+Qm8VIvF66oEFb1DhPZ1GDZhuJs57n/FFUggqoVqmi3HUdoCUJuI/u+pNPPqn2EezUpyUGCUdijpfror3E7yWx+T2aRBx0npOe4BNGrElDqz9r0j4u52zQoIF6ra5DvNgBIiHZ7E17szyn2S5kMS072DBuxiolW2AbAX1f+Z18BtCEiRNVJF/1GZPvojo3T86CgMOXf7SdQ+LkFS3m4NAuI8nMa4OUCBwEPRBmUBqxvSWljVmKaHAGMzxBVZFX12N6V1SjHFzzOXi9tNN0LO5yoHfH35BXuIXXwR4X5olG24sSkmrM1vVfDnRK6Fny2s0kosPC6zDH9AoK12zh2ombDwUrN524oeEklxMOg5NcTjgMTnI54TA4yeWEw+AklxMOg5NcTjgMTnI54TA4yeWEw+AklxMOg5NcTjgMTnI54TA4yeWEw+AklxMOg5NcTjgMTnI54TA4yeWEgwD8H4AfExvyAlHbAAAAAElFTkSuQmCC;" vertex="1" parent="1">
          <mxGeometry x="710" y="360.1" width="151" height="107" as="geometry" />
        </mxCell>
        <mxCell id="7rcC4zyVuGGbeMlEar-x-11" value="" style="shape=image;verticalLabelPosition=bottom;labelBackgroundColor=default;verticalAlign=top;aspect=fixed;imageAspect=0;image=data:image/png,iVBORw0KGgoAAAANSUhEUgAAAJAAAABJCAYAAADSd69fAAAAAXNSR0IArs4c6QAAAARnQU1BAACxjwv8YQUAAAAJcEhZcwAADsMAAA7DAcdvqGQAABYdSURBVHhe7Z0HeBRVu8ff9E7vEAgQIBTponTpSAm9i0gTEBQLdvzkUxELV4piEKxIUSmCCEgnQhSQonRD70iRmpCee/4nZ9yZ2XN2Z5e4kHv39zwhc2Y22+Y/73nbGXwiR07NJi9e3MRX/PbixS28AsqjhGWn0YjULfQ/yYvpuZR1VCzrpjjiWbxTWB6kcHYSzUyaT6Wyros9RDd8gmlcaA/a71dS7PEMXguUB3nx9hqDeEC+7BSamryQimfdEHs8g1dAeYzozEvUOOOoGBkJZdPayymrxcgzeAWUx+ia/ofYknN/xklqkZ4oRv8+XgHlMepmnBJbap5O2cCtkSfwCigPEZ6dSuWy/hYjNUWyb9HQ1F/E6N/FK6A8RFkL4tHom7aDKmZdFqN/D6+A8hAVJIK46BtBu/0jxcjI8yxacxdYu1bph7glG8J+amaeFUeMePNAeYhnU9ZTj7TdYpRDvH8lmhLSihbc+oxCstPFXhsTQ9rTyoAaYuSYWplnqEHGCXqA/VTNvCD22vgusC5NC24pRjl4LVAeolLmRbFl46BfCbrkE06zg5qIPUbGpMRzayIDz9crbRdNSl5Ka29Op4+TvqHHUrdKxQN6s8ean8sroDxElcy/xJaNw37F+O9vA+tRotjWkz/7No1OjefbsDADU7fR5OQlXDBfJs3hEVuzjCOWo7Ys8hFbOXgFlEdA5jmIMsTIxlG/omKL6J3gdmLLSGzaHkq4MZlbmJGpm6lhxjG3wvzjvkUo2SdQjHLwCiiPUCnLfvq65RPEpy+NP/2K09LAWmKU+8wKtp8mvQLKI1TMvCS2bBz2tZ+yZjFfCMJyB0R0KjBF/uwfLUY2vALKI0Rn2QtIP31pXPcJ4SKyAqajX/0r0PvBbahdxJN03ie/OGJkq395mh7cQoyMeAWUB6jMoqVqGefFyMYRiYDA4sA60mOp5E/b/aNoZlBTGh42gNpEPEXjQrvzae/JlE3cyTZzwrcwjQ+JFSN7vHmgexTkY5qy6KhJxlFlsxhEcEDR/wMxwGne5V+WdvlF0k72e49faXHUyIC07fREys9iZAPWbEjYQLrgm0/ssccroHsIZH4fyjhMD2YctxQltYoYSyk+AWLkHs3Z672dvEyMjIwI60/7/EqJkRyvgO4yaL9ol36ACSdRmklWcc43P/UKHy5G7oG8UlzSAml6YEJIJ1obECNGarw+0F0gKusKPZWykX64Gce7CB9O3++SeNKYL7Mi4D4xcg9Mi5OTF0vFAx/JiniA1wJ5EAhnXMo6qpNxWuyxzlWfUNoUUJlFTeUpwb+i2OsewUyss5PmSYuzPzJhTgqRJyRleAXkIXCyZjCnFr3LVkGZYgsTCwSDmldugZUc8LPM4HVeCO0mRtbwCshDwFGFw+qIdPJjUVMkE000xQdUois+YeJI7gEL2C3tdzGygToanGZMj67g9YE8RL1Mx62oyM90jxhBz4b2pCWBtf8V8aAVRCYehOlPh/ZyWTzAL3/99hPE9j3FW31b0Mi29WnD3uN0O83o6AUH+NP8p7tTr4bVqNV95SkpJZ1OXLomjtroUCeaJvZvyf4+nRLP23fz5QsJomc6PUhDW9ah3uy5dhw9T9eTbe0K2D+4RW1atfsIHxcIC6Y5T3al81dv0anLtmU11csUpRnDOvD3g5/C4SG045gx8dcpfR/ldzB9lc66xk9wyazr9LdvGF1yUFZwl4Gp25kfZv89QLyrAqqLkWvckxaoQXRperR5TXqwUmmqHmmfUY0uWYgfCw8KoIaVy9BXY7pQ6UL2X/jrvZrzxzWJKSv22MDjf3q1P3W5vwqdvHSdiuQLpUB/P3E0hza1KvDX0KhWugh/vmvJRiHULl+C79e4eCNJbNlYEHi/2FKDiKhz+l7u4H6V9BUXlKqXxx0+C24stow8lJ5oqdfannz3poDG92hCG/efoNT0TIphJ81MDSGqAdO/p/eW5TSPm0/+sFZ1qGB4MG3Yd1wqwo+GPkyXbiRTiwlzaMLCeGr31jw6csH4JVZlr33grC1SiSmT814On7/Cf2vgcbBIvT9YxH+WbDskjthYFliTR1FWwfovdCCuvvkhjb+9SlpmcJWjvkVoTUBVMbLhS9k0UpKJdk5M7gioQvGC9EzHB2jm4x1pzfgBdCpuLB2a+gTffq1HUypZ0NZy4Iz2tStS7agSNHXFNjp+8SpVY9ODmaqlc/bNGtGJJjAr88OORPZY2xQWHhxIT7P3M/fnvXxaqlWuuDiSQ6mCEVSvQkn6dMNuSkm3z4OAoswiFWRT1lMPN+CfBz94rWN/XeXC1hNTujCVLZKfP2br20PEXnteDYmlRYF1xcg6yBOhLNEo45jY4z6qQiuaylSdiGq235mAuj8QQ6te6U+bJjzKfQn4HJrFCGWmH9vDW9elbW8PpXGxDfl+Z7zYJcfMvtytCRNeBFVhJ8dMVWYJ/jx3hbYcOkVD4n6gMZ+tEkdyGNm2HvdvGlWJpB4P5lxxELkGxAGMvXVGtM8xmj13nymL+c/pyzfokM4iaVQpVYTmbd7LHzP04+Vir5wpwS2pW/gIms+mNKttF+jzGRA+mHaHVmbWuSl1rm/dkpk575tfKeInUl23Qm4JKCTQnz5mTuPUx9pJpwcZuJLnjOlKfr7q09a3cXWqWKIgsxrn+Pg68zXgoJrBlPHT70dp2srttPmgMbqBL/M4Ey0s0o3bqf84xfqp8CizIrA8zzLRN46J5D6S2U/C42FpljPr9mviGf5TLH8YHWLC1QPrmj80iPk9yXyclmm0TjLQdzMjuDl1jhjFk3aYWlTAYqCgGVO3AW1kFyo+29krd7b+/YugB+m2pIaGRYv1LCxc1OOygMKYZVn2Qh/qVK+S2GOdh6qXo4n9jF39GkEBfvRc54a09fBZ6j55IfclPli+lR/Tn3w4vzhhMksAMJUiSoM1wHP0mbKI768m/BdwKyWNXpq3nooXCKcFY7vT/LHd2LYxbIZIITSNqKIF+HuE5dODxwG87rfP9KABTayXGBA2I/P7aPhj9ERYX9oQUIUyxSlB8xYs1fcFmlPc8A58usbUC04wp/9OuOYTqnTq0fLqCi4nEvFB4KfcCc/NWUsLfz0gRjlgyoE1g+W4cO0W3wehwAc6yMRyLclaBrd+xVI8bN9/2taAhX1Xk27T0Qs2QWjUZP5RgJ8v7TSF3RBcFvtmNKFGsPcH533vqYtcgBqwShV10yMiunNX3b9XT9HsW1QgK5lnoZtWLUvTmJWHVdVASqPK2BliJIf7Y7o0gwzU3hbemk0Fs3Msp55XQrvw5UJWcElAyIu83quZGLnP6j+O0vCZP4qRFxkd61bilsfMgTOXqf3EeWJkD6b8L0bHUoOXP+PLcNBAjzzPb37l7JrMkCZApGfmlG8h6heuDgb0WJ7CCoWHKB3hyzeTaWjccqo57hOq9kwctzCXhU9g5q3Fm73isQDyWzJOX1Fblsgi+Wgum45LsKkZ22d8C/DGtDEpm3heCdV/pATaph/ky32+D6zNnWozWELdIX2fGDnGsoB6smgG/o8ZOKOx735La/cc49MMzDump1ZvfG3wF/66nkRd3vuWZq3bJfZ4cUS5ovL+5FMK/wfTHPw5ZMFBDIsMj5mcc9zZDCmB12+voJU3Z9CnSXN516GMYVZuztCko3UBybK5AGn+M5Ko4CoT08hZK/j2hn0nqDUT1O7jruYZ/v8CP0bGacl3jbzX1092NfwNAg/UuJJM67j0oKEsRpH7wZ3O0FLrkC0nrPtA6/8zkCqVLCRGNuCsPvz2fDGyByl+RFauAmv3cJ1onvPAvA5nVQNWbg2zeKtZKL9p/wm7Wpm7tKtVkVreF8VfD861Bpx61L/wOVbuOkx/nLRfIWoVRJH3lS1GVUoVJl9f4/X7TcI+/joASUkZj360lH3mk2KUw3fP9jSUUsDS3/6kpz7/iWYlzaPqmfYN+VaQrYU3Y1lAy1/qa5fR1Zi4ZDN9sjZ3pibUwQY2u4/XqKyQlJpOX278nWas3mGIjlxhRJu6PECA72CF346co1cWbLAL6R2BfNH7A9tQMxZZqXjglc+4gMoUzke/vDVY7DXS4r9zDNHkJ4935BeamXXsAhvC/NLnU9ZS1zTHdzVTsZAJaKoTAVmewvSlAjOvdm/KE3J3AswwEpOLnutpWTwAlmp0+/tp5Sv9DPkiKyD8xoWB929VPOD+6FK09rVHLGfXIZp17PGOxAM061O+WAH+W4ZePO890loqHviik5Ym8G0kIuOCmilXbzhCtYpDj2UBJRxy3IaJK8HRB3cEIoYVL/fjpRF3QaJv+Yt9DVOPI1rWKM9E119pVa2gZddlwYUG3s+nozrzPJIj9EnLSGaBZGj5MYDSETL3ZmCRH/lwKR0W7StwkucGNeBLgGIjRtHk4NY8SXnTJ5gfVwHxILHpDMsCgrPsaIpAInDeU91cKpwCbgXYiXdXfHqQKY4b1oFbM0dAqF+OjuUlmTvFUXYdz48LC5lxZ6DOpqGKwJCkBI+wKR6ZbzMovQz5+Afao/DR0KSG0P3l0K7UPmIMDQobxH0cVOixgBCc9i1InwQ1pVFh/fjYGZYbylIzMnlk1bpmBbHHnnyhQdSKXdmoH1lxbJFphgPoTHSoey3feZgSz1+hv2/dZmKzZX7N4DnxPhD5yUB2d/aITmIkB1Hlb0fP8dfdduQs/9zRJewDCA0Ud/exYAKVej3DW9WhDnWtZXTjD56kjeI992tcgzvZZuDE+/n50pRBbcUeI8NmLrerDToCjWu4MXl8QGVaEliHPg9qxAutf/jLc1AyXC5lvD+wNfVp5Lh7DSe6z5QldOWmPJmoMZdZLJVfgLke7RZLtx/iZlkPIpnXejbj1X8VDV/9nM7+bSwpIMxdxXwl1XQyfdV23gKinyo08JrvDGhFzauVE3uMoNyCniI9n7OpS3bBoe/orcVbeMlFA+G5lg5BrbFOefsm+l8Sz1AjRYLxsRk/8N4nT+NySysShpjX9e0RZgpHhPJ62do9x3lFXEb/JjV45CMDyUZktlF3Ss/MEntt3LydRj8yi5SZlc1bNmRAdKig65k+pD1vvTADq4bs+IKE/cppGq/5PRNzefa5Zc46WkQ2Mz9RXwd7mvkpyOCbafqfr1gEd5kLRvvRf08vdW3Mpj97v0rlGyG0RwPe3cCyD6Rn1OyVdsVHM3Bqlz7fm1+5ZuAT4EuSMXPtTl7usAIsxpo/5E1W9SsYow5MXS2qR4mRjYvXk6gtsxw/WzT9eG/mhjKNB0y5GH2RVQOtKjcVFxWAQy4TnYqBzGE254U8iVsCQvnisRnLnOZBkPz7dGRnMbLRs2FV3qBuBpHe20u2iJE1PvrpN7FlBH3KetBHIwN1O4jIKnjs4m0HxciIvncJkaUMZ60YyAFZBdZStpjAk7glIIBGrX7Tlvwzb6tAi8ajzWuKUQ6d6sk76iZ+75p4wO8nLkhzVPrQGmKV+S6wOvEHXL961++V+xr66A8WWIazNotIRQlDBl4Pvd13E7cFBFBxh4iuMB/CEaPa1hdbOdSJsncQIYR9zOdxB2elhZY17KcusIL5Ue6gsrz+frZuS1eLoRrlXBAQQB7rxS6NxMjz3JGAAHITmIcdAT9Ia31FeCrLv2xxkqh0BJrfHVFJEYKr8iXOQFgvA6s8NMorLNBJpxZIPoXB11P5e8jEm2thnuKOBQRgOVC4cwRWWgBV9PbXNet+iBlZVIQeJQ1VZfuSkzSDClVf98XrtueLUiRGnQlIZYFOMl/nxXnrDQsf9Uwb3J7nwDxNrggIoPq7hIW5KrTIQuUbYBWHO6CyXVxXqdfQR1VhwfLnRhrAHVRRkj5/JAu5k1PTlY12Giqxn7p8g+fVnv96rdhjRCvWehrLApJFTWZmO6jIZ4jVClh1IcPdUsbQVvJcUrwutE1RhN3VdY32rqDKx+gDinKSC8WZAw3UAsr5W2THcbHKQO4NWWxP4lRAsBjw9LdPGsoThI5wZJ61Ok6UwrnsWDea17JcAW2f3RvYF2AR3uojJVWY3raWe4sDVH6KJiAkFWV+HqyII/B3qu9A/92OX7CRd3jKmNC7ea7UFa2iFBByOJP6t6Sf3xhEsfUr8+TfsJa1xVE5qjQ/0JxkVR0L5YWRbeqJkXPgmMuazsHHq3cYMruqpCfSC1ar90ATjspKnBVZaNVxZykP1d8BfZ0Nn23cHPlUpq3Z8xR2AoIjhv6YhDcH04CmxjVOgx6qJS3yAZzQif3k9xKG2cWHhgi1VaEysC4MJQ5noEC5evwAqS8CH+PT9cb/0WaLgyzzgrHdlA3serDC9oXYnHBZdqJh9bSlR0pH2JkDrbDO5poeQP5qQYK88R0RL1b2egI7AWENFTr0ZKYUiauFz/bkLQwasByYd1UnFMSt2cF/q0y/HhQsl77Qh5cdzH02WM+ORYAzmeVB+4iMV7/ZyDPlepCn+s60Dk0D7x8LAr94Ipba1KxgaL3A9I0QGevdscZf80NkPpA2RYNyiinEmQ8k85uA6u/eXLRZOZWNaltPWXjNTaTVeLRTupJSdwSswRuLctZc414+OFGugMo1CqplmIVz1pT1+nfx9MVG+xsoAYgB07EVUMQtxV5PW+Gg8cLcdfRNwn7aM3mEXVCxcveRfxYRoN1CW5Ovp82bcx2Wf6YNbkfdJD4dXhOvLQNJ0i9HdxEjIxAXFjOoQv/cQOoDvStumXKnYN5+d1lOayUoa8ECmUEfDpYPOxNP3JqdSvEA1Iw0ITsDqQGzeMCJi9f4+5BFpPqGMHd9IFctEEDf0zJFVIb0xgeK3qHcQiogvCFzK4SrYEkwyhz6ynVkYbWTeCe8uXgzTbJQR4M1VH3ZVoAPU1ZhmfUnuazEl0H22tzXZEZZ/nAy9f3n203K7DimZb0vi4sRvdRjOzTgviRCf/i9/+39kHiEayijMLRsOGqkdwTu19P1/e/+aRLXkF2ZcDxlTqIV8Hd9pyym2S4sVnzy859oTvweMXINbcWEDGSKAXxHWWLTmfWBvyezekDvX8mAeF5jvp8KLEfXWkvQ+IaGv9nsYipZIJwqlSzMl1Enp7q3okUpIDRZdWcicKXXBB8UzU24Xw+yrmaiitkLCHcAQ/fgh6u2K5vPzEA4H/y4ld9dDF16rjKefdl9py6x3AOEPNIU9npAJSAtx6M67uxidORzOrNAABetqksAgQHu4aiRzbzebPzDSGQ+GQTv7to6Sy2taMYa1LwW1Yoqbnd1QTQJf56mX9gPPoQjEqePNkQ5YP6WffxWKxpoykIEhtAaCTH4GxDzrmPnaefxC7Tt8Nl/7h+UG8Aq4gpswZxROOo4kegqxKqGQ2ev8E4/fDYNRJJlCtmfbG3Kh4+k3YJPD6yXo94d7e4kMqy6E4iS4b+pOHDmEneoUfbA+9F+I7WCWwS6MxO43BPtLkhM7nhnmBjZeGdpAk/8ecmbKKew3EYVmbjr/3i5N/CYgNyNMLzc29x1C+QswvByb+M5AUmiDERqcJC95F3u6hTmrLjo5d7HYwJCbcmMs+Sal3sfj4XxXv4vQvS/ufnTQ6cxlNsAAAAASUVORK5CYII=;" vertex="1" parent="1">
          <mxGeometry x="171.37" y="340" width="98.63" height="50" as="geometry" />
        </mxCell>
        <mxCell id="7rcC4zyVuGGbeMlEar-x-12" value="" style="shape=image;verticalLabelPosition=bottom;labelBackgroundColor=default;verticalAlign=top;aspect=fixed;imageAspect=0;image=data:image/png,iVBORw0KGgoAAAANSUhEUgAAAJ8AAAA5CAYAAAAoXvkTAAAAAXNSR0IArs4c6QAAAARnQU1BAACxjwv8YQUAAAAJcEhZcwAADsMAAA7DAcdvqGQAAArNSURBVHhe7ZsLdBTVGcc/SLJJljwgVqigCS9B5SEvKWCRE0AeerSIigaORbSi+KK2ICAUgnhQQeUUii9oxaJCLaKiFaSoFVAjKgqCiAgCKg8V8thsHrvZbO//7tzs3dmZ3dkNYdZ4f+fM2ZnJ7MzdO//7fd/9vpsmfgYpFDbQVPtUKE47SnwK21DiU9iGEp/CNpT4FLahxKewDSU+hW0o8SlsQ4lPYRtKfArbaNDyWu4fTmp7Ae65Mp1vCgVQlk9hG0p8CttQ4lPYRoPGfEV7a7S9IP06J2t7icOhH2v5Z96ZiTMWK6r9tPOgj7q3TSJnahPtbOMiJvFBTB/s9WpHAfp3Tgk7BzCxWLSuUjsKkmgTji+/89GwwlK+v7Ewm847O4nv281NS1y0aYeXhl6YQv+4K1M727iIeahDUPImkM8VaWKUz2FLRNZv92h7oft2A+HJn42RhIv5IIAjJwNuUNG4STjxPbmhiiYsdtHxEiXAxk7M4uvPJgzyJoh2Tj5vxt7vffTpgRraw+KwPz/jpiqv+veSxkxC/QORPja8cXAa3T/WqR01DPIzE6kCI1eHDi/P0fYaF6biu25hGZvFBlMleCmY2Y5h52VenJrFZ7uyaGDl/sXOG5XXjO4hOvfeZ920eks13wetc5pS0YLm2lH8wILu+MZH73/ppS65SdTh14ENxCK+Qz/U0if7AxOA3h1SKK9l7FHLCVctfcbasv+Yj85nM2u0A79TTyzie3e3l7XNR7/PT9POGLP7sI8+3OelvDOTqEe7JDojM3L70S8wAC0yAqme4nI/b/dXR3z8uFteEuWye2U740sFJZT4bljk4h0ps2pKJpWwH42XdsLlp8t6O6hzG2vpEHTSgrWVtHWPl+fNZLrlJdO4Qak8towmPsShL31QzcMCGbTj6v6pdNuIyC8drNvmoWfeqmLiDc994jdNviKdi1FgRXw/ldXS4teraMXbVfx41hgnTRwW2hYPe9zc1W56a6c3bCLXu0MyTRiSRlf2dWhngkxeXk4vF3mobcskmjfOSa9+6KE17wcNg4xZv0UjoSYcbc4Ib07BIy6a9GQ5zXq+govk0jml9Lv5ZVHTIrCgQ2eX0sbPPGHCA58fqqHp/3RHTWWMfqiM5q+pCBMewDn8DddEAhb9zqfLDYUH3vjEQ8MLS0MGcDReYWIYs9BVJzzgrgr9na995KEefyymlf+rNswgoD1oF9qn51hx4PqDzKLCKJgJD8TSbpmEEl/3ttaqHzD/3XLNr0UyXN+hsMYYnYO6pFBmetBNQIRmDJhWQh9/Hfx7p9ZJdP3AVL5hX4BrcK0Rc1dXhIQSWcxFDe/poNtHBiwOjgUvbDZ/wQJUY6ascNPdy8rp66PBATGoawqN6he0YDsP1tAdT5VTuSZIuE48D88tYO1H+CFA+9BOK4g+uHZAKp2tGYvL+4RbTiuYul2j0lgsoIxm9R5yye3yeWURBQGQ8Ufm3wiM2L5Tg0Lo0S6Zpo1Op4vPD17/zXEfzXyugrtjGdl9PMFc7YPMqoEc9uKmjXZSwSWp/Fiwionl4bUVdJINBjDjGidNklzwO597afxfXdoR0RUXOfh9cqUy3hff+rjlePNTZv2YKJfdkcHPG7ldiHPJ65X0vc6KGblbWH0Rm0EcU0al18W5oNLj5+GEbLWenZxJ+d0C/aQPu8z6oD40mPisUuKuZbGLn35k8Qs6N1J+r1XzpjSW/fhI8cWtj5fXuWR0+hO3BV6mEbNfqAhxW0J8W77w0rjHgqJZeU8mt5hGIEaFWxI8/6dMGnhBCn+5wwvLuNsCj05oRtdebP7i0N/yIJTFt2FONi19o5K7UZl+nZLpsZsz6iyQAIISoorWB/K1iO/eLMyidEeTMPFF6oN4MRVfp0nFtufZYK0w4nLYrAyfEB4EGIm+U0romCbgaLVaT42fRs130a7DgU4W4vv7pqo6NwQXs2B8M75vhjxLn3O9k24emsZnliPvD9SML2ThxGuzsvi+VWTxwWUi1JApZM+5iT3HiIJHXfSeZtUxIYy2mAPWGVYarJ+dzV2yLD4rfRAPpm9Sdg128eANTlp6awbNG+vkoogmvB9Ka+uE1yanadRFAo7kJtTxrPB7hsRSFka7fI34LlISgnat6teXeuFNvSrdVHg17LHbvgqGE8gsQMiRNiE8ILdbcKotniBhxTfqNw7uBmLhwLGgy7ba/natwp9xQHoBVoJp+Rrx3VDxxfY7jJAnYwtfruQzWCMw+fGG68cyRuKz0gfxYPqGolmZhubGIcYjOxKyhTlSbC1kOKqlFICYwZ7bOviircS+8jXiu/JsWH5GPGAgIm5Dwlcw8zl3WAwIeraPX+gY7PIzGhpThbXMtk984/PTqFf7yHGKERgwImt/9KSPDmuLRCPx3Ylwa9leErHRWkU98jXiu7LllZ8RD4tvyaBzftWUlxqRkBbct9JdF9sJUlOa8LSSYM20LD5btrJtnp9dV804HQR7SMdVUs7odALRTxwe/+gTLx+ZfaRBIoHZ7lY2sxWgVCR/guX/rapLWRiBv+EagdE98AwrOTwr/G1iBvXpGBBXaYWfJ8qxEEMG1RvBso3BtiUapuKDCRY5n9MJhIdRHi/jJbcBt/Tv94xf+obtnpA0C0pkokaJHCLSJcBV6edVDKNYCOfwN1wD8B2Rf8S95LIbRPLRvnAXjskExIvAX865mZHMNL1Es4QASed7V7hDUlTXDAimdJA/fOBF40GIKsnA+0rplqXl2hnroCqD3/74+irDCpIVTFMtYNWWappmUHppKKLlpKyiX6CAVMdF5ybTsB4OnpdDEnuzVENG8vWdB7K1owAQVJe7irUj4lWRET0d1IfdB3zMhLSBvVghPLB7SYuQ6gnIn1UaIlzMHHt1SOYxIdry7i5vSEwI9wcgRoE4J7N9fw1d94iLqrV0GAzF8jszKUUzuA+9FBCGAAMD17Rnk59t+7y0dU8Nr4II9CkZOdWif/7ub320aYeHTpT5eXjhZZdNGhm7t4ooPqBPNjYUeCGvzIgtFxYJ5OmQr4vG4O4ptOJu4/+RQPUBqYoy5t4igRIZXt4F5wRdrYzVPkSRf25BYAlZNPEBJNORVBeIPKVAL0AzUAVaNzO07yOJD14Dvxl18a65SbSXhR4zro596VtU/xbPrDMeTqXwAJK9KBeZpWswYmFlzYQHIKZdi1twUZiBv+EaM+EBrPARojKi41lJPJaTrxGTBnnyoGdkL0fIekd9bDqdCeI/f8mi32ohhBEoB66dHt73SOwDo2VXqCPDYsOari3yUH7X+OYHUS0fwMoHLAlqCNDxb88LdXmnErhF5L4Cm5cF6yk8YMemd5GRwAoWcR8g7mF1eRfAyhJxj8M/+bjrPY99f3B3BzVvFtoWpG8WratglswZtUKB5U4HjvtCrJ4e8VxsiEc7sediCdclJglk8XwYH4hcD1TzKtPEEOY5YulHGUviA/o66KlgBPtRT99e/xhP8fPEsvgA1nQ9vLay3v/cg3gBoxQ1UMUvl5jEByA85KyirUAxAi4KM07MaiPFSIpfBjGLT6CPpYrdfirRtipP8JZYqo24ArPZhipQK36exC0+haK+xF9KUCjqiRKfwjaU+BS2ocSnsA0lPoVtKPEpbEOJT2EbSnwK21DiU9iGEp/CNpT4FLahxKewDSU+hU0Q/R/8xjUJ9O6p0AAAAABJRU5ErkJggg==;" vertex="1" parent="1">
          <mxGeometry x="590" y="70" width="199" height="71.34" as="geometry" />
        </mxCell>
        <mxCell id="7rcC4zyVuGGbeMlEar-x-13" value="Master" style="text;html=1;align=center;verticalAlign=middle;whiteSpace=wrap;rounded=0;fontStyle=1;fontSize=18;" vertex="1" parent="1">
          <mxGeometry x="190.68" y="480" width="60" height="30" as="geometry" />
        </mxCell>
        <mxCell id="7rcC4zyVuGGbeMlEar-x-14" value="" style="sketch=0;pointerEvents=1;shadow=0;dashed=0;html=1;strokeColor=none;fillColor=#434445;aspect=fixed;labelPosition=center;verticalLabelPosition=bottom;verticalAlign=top;align=center;outlineConnect=0;shape=mxgraph.vvd.cpu;" vertex="1" parent="1">
          <mxGeometry x="180" y="397.13" width="81.37" height="81.37" as="geometry" />
        </mxCell>
        <mxCell id="7rcC4zyVuGGbeMlEar-x-29" style="edgeStyle=orthogonalEdgeStyle;rounded=0;orthogonalLoop=1;jettySize=auto;html=1;" edge="1" parent="1" source="7rcC4zyVuGGbeMlEar-x-16">
          <mxGeometry relative="1" as="geometry">
            <mxPoint x="240.00000000000045" y="320" as="targetPoint" />
          </mxGeometry>
        </mxCell>
        <mxCell id="7rcC4zyVuGGbeMlEar-x-16" value="" style="sketch=0;pointerEvents=1;shadow=0;dashed=0;html=1;strokeColor=none;fillColor=#434445;aspect=fixed;labelPosition=center;verticalLabelPosition=bottom;verticalAlign=top;align=center;outlineConnect=0;shape=mxgraph.vvd.cpu;" vertex="1" parent="1">
          <mxGeometry x="480" y="270" width="40" height="40" as="geometry" />
        </mxCell>
        <mxCell id="7rcC4zyVuGGbeMlEar-x-32" style="edgeStyle=orthogonalEdgeStyle;rounded=0;orthogonalLoop=1;jettySize=auto;html=1;" edge="1" parent="1" source="7rcC4zyVuGGbeMlEar-x-17">
          <mxGeometry relative="1" as="geometry">
            <mxPoint x="290.00000000000045" y="370" as="targetPoint" />
          </mxGeometry>
        </mxCell>
        <mxCell id="7rcC4zyVuGGbeMlEar-x-17" value="" style="sketch=0;pointerEvents=1;shadow=0;dashed=0;html=1;strokeColor=none;fillColor=#434445;aspect=fixed;labelPosition=center;verticalLabelPosition=bottom;verticalAlign=top;align=center;outlineConnect=0;shape=mxgraph.vvd.cpu;" vertex="1" parent="1">
          <mxGeometry x="510" y="340" width="40" height="40" as="geometry" />
        </mxCell>
        <mxCell id="7rcC4zyVuGGbeMlEar-x-30" style="edgeStyle=orthogonalEdgeStyle;rounded=0;orthogonalLoop=1;jettySize=auto;html=1;" edge="1" parent="1" source="7rcC4zyVuGGbeMlEar-x-19">
          <mxGeometry relative="1" as="geometry">
            <mxPoint x="280.00000000000045" y="480.0000000000002" as="targetPoint" />
          </mxGeometry>
        </mxCell>
        <mxCell id="7rcC4zyVuGGbeMlEar-x-19" value="" style="sketch=0;pointerEvents=1;shadow=0;dashed=0;html=1;strokeColor=none;fillColor=#434445;aspect=fixed;labelPosition=center;verticalLabelPosition=bottom;verticalAlign=top;align=center;outlineConnect=0;shape=mxgraph.vvd.cpu;" vertex="1" parent="1">
          <mxGeometry x="490" y="478.5" width="40" height="40" as="geometry" />
        </mxCell>
        <mxCell id="7rcC4zyVuGGbeMlEar-x-31" style="edgeStyle=orthogonalEdgeStyle;rounded=0;orthogonalLoop=1;jettySize=auto;html=1;" edge="1" parent="1" source="7rcC4zyVuGGbeMlEar-x-20">
          <mxGeometry relative="1" as="geometry">
            <mxPoint x="280.00000000000045" y="427.20000000000005" as="targetPoint" />
          </mxGeometry>
        </mxCell>
        <mxCell id="7rcC4zyVuGGbeMlEar-x-20" value="" style="sketch=0;pointerEvents=1;shadow=0;dashed=0;html=1;strokeColor=none;fillColor=#434445;aspect=fixed;labelPosition=center;verticalLabelPosition=bottom;verticalAlign=top;align=center;outlineConnect=0;shape=mxgraph.vvd.cpu;" vertex="1" parent="1">
          <mxGeometry x="510" y="407.2" width="40" height="40" as="geometry" />
        </mxCell>
        <mxCell id="7rcC4zyVuGGbeMlEar-x-23" value="&lt;span&gt;SYSTEM ARCHITECTURE&lt;/span&gt;" style="rounded=1;whiteSpace=wrap;html=1;fontStyle=1;fontSize=45;strokeColor=#666666;fillColor=#f5f5f5;fontColor=#333333;" vertex="1" parent="1">
          <mxGeometry x="-140" y="10" width="600" height="60" as="geometry" />
        </mxCell>
        <mxCell id="7rcC4zyVuGGbeMlEar-x-26" value="" style="edgeStyle=orthogonalEdgeStyle;rounded=0;orthogonalLoop=1;jettySize=auto;html=1;" edge="1" parent="1">
          <mxGeometry relative="1" as="geometry">
            <mxPoint x="26" y="413.89" as="sourcePoint" />
            <mxPoint x="156" y="413.89" as="targetPoint" />
            <Array as="points">
              <mxPoint x="106" y="413.89" />
              <mxPoint x="106" y="413.89" />
            </Array>
          </mxGeometry>
        </mxCell>
        <mxCell id="7rcC4zyVuGGbeMlEar-x-27" value="" style="edgeStyle=orthogonalEdgeStyle;rounded=0;orthogonalLoop=1;jettySize=auto;html=1;" edge="1" parent="1">
          <mxGeometry relative="1" as="geometry">
            <mxPoint x="-270" y="413.89" as="sourcePoint" />
            <mxPoint x="-140" y="413.89" as="targetPoint" />
            <Array as="points">
              <mxPoint x="-190" y="413.89" />
              <mxPoint x="-190" y="413.89" />
            </Array>
          </mxGeometry>
        </mxCell>
        <mxCell id="7rcC4zyVuGGbeMlEar-x-28" value="" style="edgeStyle=orthogonalEdgeStyle;rounded=0;orthogonalLoop=1;jettySize=auto;html=1;" edge="1" parent="1">
          <mxGeometry relative="1" as="geometry">
            <mxPoint x="590" y="397.13" as="sourcePoint" />
            <mxPoint x="720" y="397.13" as="targetPoint" />
            <Array as="points" />
          </mxGeometry>
        </mxCell>
        <mxCell id="7rcC4zyVuGGbeMlEar-x-33" value="" style="shape=image;verticalLabelPosition=bottom;labelBackgroundColor=default;verticalAlign=top;aspect=fixed;imageAspect=0;image=data:image/png,iVBORw0KGgoAAAANSUhEUgAAAJAAAABJCAYAAADSd69fAAAAAXNSR0IArs4c6QAAAARnQU1BAACxjwv8YQUAAAAJcEhZcwAADsMAAA7DAcdvqGQAABYdSURBVHhe7Z0HeBRVu8ff9E7vEAgQIBTponTpSAm9i0gTEBQLdvzkUxELV4piEKxIUSmCCEgnQhSQonRD70iRmpCee/4nZ9yZ2XN2Z5e4kHv39zwhc2Y22+Y/73nbGXwiR07NJi9e3MRX/PbixS28AsqjhGWn0YjULfQ/yYvpuZR1VCzrpjjiWbxTWB6kcHYSzUyaT6Wyros9RDd8gmlcaA/a71dS7PEMXguUB3nx9hqDeEC+7BSamryQimfdEHs8g1dAeYzozEvUOOOoGBkJZdPayymrxcgzeAWUx+ia/ofYknN/xklqkZ4oRv8+XgHlMepmnBJbap5O2cCtkSfwCigPEZ6dSuWy/hYjNUWyb9HQ1F/E6N/FK6A8RFkL4tHom7aDKmZdFqN/D6+A8hAVJIK46BtBu/0jxcjI8yxacxdYu1bph7glG8J+amaeFUeMePNAeYhnU9ZTj7TdYpRDvH8lmhLSihbc+oxCstPFXhsTQ9rTyoAaYuSYWplnqEHGCXqA/VTNvCD22vgusC5NC24pRjl4LVAeolLmRbFl46BfCbrkE06zg5qIPUbGpMRzayIDz9crbRdNSl5Ka29Op4+TvqHHUrdKxQN6s8ean8sroDxElcy/xJaNw37F+O9vA+tRotjWkz/7No1OjefbsDADU7fR5OQlXDBfJs3hEVuzjCOWo7Ys8hFbOXgFlEdA5jmIMsTIxlG/omKL6J3gdmLLSGzaHkq4MZlbmJGpm6lhxjG3wvzjvkUo2SdQjHLwCiiPUCnLfvq65RPEpy+NP/2K09LAWmKU+8wKtp8mvQLKI1TMvCS2bBz2tZ+yZjFfCMJyB0R0KjBF/uwfLUY2vALKI0Rn2QtIP31pXPcJ4SKyAqajX/0r0PvBbahdxJN03ie/OGJkq395mh7cQoyMeAWUB6jMoqVqGefFyMYRiYDA4sA60mOp5E/b/aNoZlBTGh42gNpEPEXjQrvzae/JlE3cyTZzwrcwjQ+JFSN7vHmgexTkY5qy6KhJxlFlsxhEcEDR/wMxwGne5V+WdvlF0k72e49faXHUyIC07fREys9iZAPWbEjYQLrgm0/ssccroHsIZH4fyjhMD2YctxQltYoYSyk+AWLkHs3Z672dvEyMjIwI60/7/EqJkRyvgO4yaL9ol36ACSdRmklWcc43P/UKHy5G7oG8UlzSAml6YEJIJ1obECNGarw+0F0gKusKPZWykX64Gce7CB9O3++SeNKYL7Mi4D4xcg9Mi5OTF0vFAx/JiniA1wJ5EAhnXMo6qpNxWuyxzlWfUNoUUJlFTeUpwb+i2OsewUyss5PmSYuzPzJhTgqRJyRleAXkIXCyZjCnFr3LVkGZYgsTCwSDmldugZUc8LPM4HVeCO0mRtbwCshDwFGFw+qIdPJjUVMkE000xQdUois+YeJI7gEL2C3tdzGygToanGZMj67g9YE8RL1Mx62oyM90jxhBz4b2pCWBtf8V8aAVRCYehOlPh/ZyWTzAL3/99hPE9j3FW31b0Mi29WnD3uN0O83o6AUH+NP8p7tTr4bVqNV95SkpJZ1OXLomjtroUCeaJvZvyf4+nRLP23fz5QsJomc6PUhDW9ah3uy5dhw9T9eTbe0K2D+4RW1atfsIHxcIC6Y5T3al81dv0anLtmU11csUpRnDOvD3g5/C4SG045gx8dcpfR/ldzB9lc66xk9wyazr9LdvGF1yUFZwl4Gp25kfZv89QLyrAqqLkWvckxaoQXRperR5TXqwUmmqHmmfUY0uWYgfCw8KoIaVy9BXY7pQ6UL2X/jrvZrzxzWJKSv22MDjf3q1P3W5vwqdvHSdiuQLpUB/P3E0hza1KvDX0KhWugh/vmvJRiHULl+C79e4eCNJbNlYEHi/2FKDiKhz+l7u4H6V9BUXlKqXxx0+C24stow8lJ5oqdfannz3poDG92hCG/efoNT0TIphJ81MDSGqAdO/p/eW5TSPm0/+sFZ1qGB4MG3Yd1wqwo+GPkyXbiRTiwlzaMLCeGr31jw6csH4JVZlr33grC1SiSmT814On7/Cf2vgcbBIvT9YxH+WbDskjthYFliTR1FWwfovdCCuvvkhjb+9SlpmcJWjvkVoTUBVMbLhS9k0UpKJdk5M7gioQvGC9EzHB2jm4x1pzfgBdCpuLB2a+gTffq1HUypZ0NZy4Iz2tStS7agSNHXFNjp+8SpVY9ODmaqlc/bNGtGJJjAr88OORPZY2xQWHhxIT7P3M/fnvXxaqlWuuDiSQ6mCEVSvQkn6dMNuSkm3z4OAoswiFWRT1lMPN+CfBz94rWN/XeXC1hNTujCVLZKfP2br20PEXnteDYmlRYF1xcg6yBOhLNEo45jY4z6qQiuaylSdiGq235mAuj8QQ6te6U+bJjzKfQn4HJrFCGWmH9vDW9elbW8PpXGxDfl+Z7zYJcfMvtytCRNeBFVhJ8dMVWYJ/jx3hbYcOkVD4n6gMZ+tEkdyGNm2HvdvGlWJpB4P5lxxELkGxAGMvXVGtM8xmj13nymL+c/pyzfokM4iaVQpVYTmbd7LHzP04+Vir5wpwS2pW/gIms+mNKttF+jzGRA+mHaHVmbWuSl1rm/dkpk575tfKeInUl23Qm4JKCTQnz5mTuPUx9pJpwcZuJLnjOlKfr7q09a3cXWqWKIgsxrn+Pg68zXgoJrBlPHT70dp2srttPmgMbqBL/M4Ey0s0o3bqf84xfqp8CizIrA8zzLRN46J5D6S2U/C42FpljPr9mviGf5TLH8YHWLC1QPrmj80iPk9yXyclmm0TjLQdzMjuDl1jhjFk3aYWlTAYqCgGVO3AW1kFyo+29krd7b+/YugB+m2pIaGRYv1LCxc1OOygMKYZVn2Qh/qVK+S2GOdh6qXo4n9jF39GkEBfvRc54a09fBZ6j55IfclPli+lR/Tn3w4vzhhMksAMJUiSoM1wHP0mbKI768m/BdwKyWNXpq3nooXCKcFY7vT/LHd2LYxbIZIITSNqKIF+HuE5dODxwG87rfP9KABTayXGBA2I/P7aPhj9ERYX9oQUIUyxSlB8xYs1fcFmlPc8A58usbUC04wp/9OuOYTqnTq0fLqCi4nEvFB4KfcCc/NWUsLfz0gRjlgyoE1g+W4cO0W3wehwAc6yMRyLclaBrd+xVI8bN9/2taAhX1Xk27T0Qs2QWjUZP5RgJ8v7TSF3RBcFvtmNKFGsPcH533vqYtcgBqwShV10yMiunNX3b9XT9HsW1QgK5lnoZtWLUvTmJWHVdVASqPK2BliJIf7Y7o0gwzU3hbemk0Fs3Msp55XQrvw5UJWcElAyIu83quZGLnP6j+O0vCZP4qRFxkd61bilsfMgTOXqf3EeWJkD6b8L0bHUoOXP+PLcNBAjzzPb37l7JrMkCZApGfmlG8h6heuDgb0WJ7CCoWHKB3hyzeTaWjccqo57hOq9kwctzCXhU9g5q3Fm73isQDyWzJOX1Fblsgi+Wgum45LsKkZ22d8C/DGtDEpm3heCdV/pATaph/ky32+D6zNnWozWELdIX2fGDnGsoB6smgG/o8ZOKOx735La/cc49MMzDump1ZvfG3wF/66nkRd3vuWZq3bJfZ4cUS5ovL+5FMK/wfTHPw5ZMFBDIsMj5mcc9zZDCmB12+voJU3Z9CnSXN516GMYVZuztCko3UBybK5AGn+M5Ko4CoT08hZK/j2hn0nqDUT1O7jruYZ/v8CP0bGacl3jbzX1092NfwNAg/UuJJM67j0oKEsRpH7wZ3O0FLrkC0nrPtA6/8zkCqVLCRGNuCsPvz2fDGyByl+RFauAmv3cJ1onvPAvA5nVQNWbg2zeKtZKL9p/wm7Wpm7tKtVkVreF8VfD861Bpx61L/wOVbuOkx/nLRfIWoVRJH3lS1GVUoVJl9f4/X7TcI+/joASUkZj360lH3mk2KUw3fP9jSUUsDS3/6kpz7/iWYlzaPqmfYN+VaQrYU3Y1lAy1/qa5fR1Zi4ZDN9sjZ3pibUwQY2u4/XqKyQlJpOX278nWas3mGIjlxhRJu6PECA72CF346co1cWbLAL6R2BfNH7A9tQMxZZqXjglc+4gMoUzke/vDVY7DXS4r9zDNHkJ4935BeamXXsAhvC/NLnU9ZS1zTHdzVTsZAJaKoTAVmewvSlAjOvdm/KE3J3AswwEpOLnutpWTwAlmp0+/tp5Sv9DPkiKyD8xoWB929VPOD+6FK09rVHLGfXIZp17PGOxAM061O+WAH+W4ZePO890loqHviik5Ym8G0kIuOCmilXbzhCtYpDj2UBJRxy3IaJK8HRB3cEIoYVL/fjpRF3QaJv+Yt9DVOPI1rWKM9E119pVa2gZddlwYUG3s+nozrzPJIj9EnLSGaBZGj5MYDSETL3ZmCRH/lwKR0W7StwkucGNeBLgGIjRtHk4NY8SXnTJ5gfVwHxILHpDMsCgrPsaIpAInDeU91cKpwCbgXYiXdXfHqQKY4b1oFbM0dAqF+OjuUlmTvFUXYdz48LC5lxZ6DOpqGKwJCkBI+wKR6ZbzMovQz5+Afao/DR0KSG0P3l0K7UPmIMDQobxH0cVOixgBCc9i1InwQ1pVFh/fjYGZYbylIzMnlk1bpmBbHHnnyhQdSKXdmoH1lxbJFphgPoTHSoey3feZgSz1+hv2/dZmKzZX7N4DnxPhD5yUB2d/aITmIkB1Hlb0fP8dfdduQs/9zRJewDCA0Ud/exYAKVej3DW9WhDnWtZXTjD56kjeI992tcgzvZZuDE+/n50pRBbcUeI8NmLrerDToCjWu4MXl8QGVaEliHPg9qxAutf/jLc1AyXC5lvD+wNfVp5Lh7DSe6z5QldOWmPJmoMZdZLJVfgLke7RZLtx/iZlkPIpnXejbj1X8VDV/9nM7+bSwpIMxdxXwl1XQyfdV23gKinyo08JrvDGhFzauVE3uMoNyCniI9n7OpS3bBoe/orcVbeMlFA+G5lg5BrbFOefsm+l8Sz1AjRYLxsRk/8N4nT+NySysShpjX9e0RZgpHhPJ62do9x3lFXEb/JjV45CMDyUZktlF3Ss/MEntt3LydRj8yi5SZlc1bNmRAdKig65k+pD1vvTADq4bs+IKE/cppGq/5PRNzefa5Zc46WkQ2Mz9RXwd7mvkpyOCbafqfr1gEd5kLRvvRf08vdW3Mpj97v0rlGyG0RwPe3cCyD6Rn1OyVdsVHM3Bqlz7fm1+5ZuAT4EuSMXPtTl7usAIsxpo/5E1W9SsYow5MXS2qR4mRjYvXk6gtsxw/WzT9eG/mhjKNB0y5GH2RVQOtKjcVFxWAQy4TnYqBzGE254U8iVsCQvnisRnLnOZBkPz7dGRnMbLRs2FV3qBuBpHe20u2iJE1PvrpN7FlBH3KetBHIwN1O4jIKnjs4m0HxciIvncJkaUMZ60YyAFZBdZStpjAk7glIIBGrX7Tlvwzb6tAi8ajzWuKUQ6d6sk76iZ+75p4wO8nLkhzVPrQGmKV+S6wOvEHXL961++V+xr66A8WWIazNotIRQlDBl4Pvd13E7cFBFBxh4iuMB/CEaPa1hdbOdSJsncQIYR9zOdxB2elhZY17KcusIL5Ue6gsrz+frZuS1eLoRrlXBAQQB7rxS6NxMjz3JGAAHITmIcdAT9Ia31FeCrLv2xxkqh0BJrfHVFJEYKr8iXOQFgvA6s8NMorLNBJpxZIPoXB11P5e8jEm2thnuKOBQRgOVC4cwRWWgBV9PbXNet+iBlZVIQeJQ1VZfuSkzSDClVf98XrtueLUiRGnQlIZYFOMl/nxXnrDQsf9Uwb3J7nwDxNrggIoPq7hIW5KrTIQuUbYBWHO6CyXVxXqdfQR1VhwfLnRhrAHVRRkj5/JAu5k1PTlY12Giqxn7p8g+fVnv96rdhjRCvWehrLApJFTWZmO6jIZ4jVClh1IcPdUsbQVvJcUrwutE1RhN3VdY32rqDKx+gDinKSC8WZAw3UAsr5W2THcbHKQO4NWWxP4lRAsBjw9LdPGsoThI5wZJ61Ok6UwrnsWDea17JcAW2f3RvYF2AR3uojJVWY3raWe4sDVH6KJiAkFWV+HqyII/B3qu9A/92OX7CRd3jKmNC7ea7UFa2iFBByOJP6t6Sf3xhEsfUr8+TfsJa1xVE5qjQ/0JxkVR0L5YWRbeqJkXPgmMuazsHHq3cYMruqpCfSC1ar90ATjspKnBVZaNVxZykP1d8BfZ0Nn23cHPlUpq3Z8xR2AoIjhv6YhDcH04CmxjVOgx6qJS3yAZzQif3k9xKG2cWHhgi1VaEysC4MJQ5noEC5evwAqS8CH+PT9cb/0WaLgyzzgrHdlA3serDC9oXYnHBZdqJh9bSlR0pH2JkDrbDO5poeQP5qQYK88R0RL1b2egI7AWENFTr0ZKYUiauFz/bkLQwasByYd1UnFMSt2cF/q0y/HhQsl77Qh5cdzH02WM+ORYAzmeVB+4iMV7/ZyDPlepCn+s60Dk0D7x8LAr94Ipba1KxgaL3A9I0QGevdscZf80NkPpA2RYNyiinEmQ8k85uA6u/eXLRZOZWNaltPWXjNTaTVeLRTupJSdwSswRuLctZc414+OFGugMo1CqplmIVz1pT1+nfx9MVG+xsoAYgB07EVUMQtxV5PW+Gg8cLcdfRNwn7aM3mEXVCxcveRfxYRoN1CW5Ovp82bcx2Wf6YNbkfdJD4dXhOvLQNJ0i9HdxEjIxAXFjOoQv/cQOoDvStumXKnYN5+d1lOayUoa8ECmUEfDpYPOxNP3JqdSvEA1Iw0ITsDqQGzeMCJi9f4+5BFpPqGMHd9IFctEEDf0zJFVIb0xgeK3qHcQiogvCFzK4SrYEkwyhz6ynVkYbWTeCe8uXgzTbJQR4M1VH3ZVoAPU1ZhmfUnuazEl0H22tzXZEZZ/nAy9f3n203K7DimZb0vi4sRvdRjOzTgviRCf/i9/+39kHiEayijMLRsOGqkdwTu19P1/e/+aRLXkF2ZcDxlTqIV8Hd9pyym2S4sVnzy859oTvweMXINbcWEDGSKAXxHWWLTmfWBvyezekDvX8mAeF5jvp8KLEfXWkvQ+IaGv9nsYipZIJwqlSzMl1Enp7q3okUpIDRZdWcicKXXBB8UzU24Xw+yrmaiitkLCHcAQ/fgh6u2K5vPzEA4H/y4ld9dDF16rjKefdl9py6x3AOEPNIU9npAJSAtx6M67uxidORzOrNAABetqksAgQHu4aiRzbzebPzDSGQ+GQTv7to6Sy2taMYa1LwW1Yoqbnd1QTQJf56mX9gPPoQjEqePNkQ5YP6WffxWKxpoykIEhtAaCTH4GxDzrmPnaefxC7Tt8Nl/7h+UG8Aq4gpswZxROOo4kegqxKqGQ2ev8E4/fDYNRJJlCtmfbG3Kh4+k3YJPD6yXo94d7e4kMqy6E4iS4b+pOHDmEneoUfbA+9F+I7WCWwS6MxO43BPtLkhM7nhnmBjZeGdpAk/8ecmbKKew3EYVmbjr/3i5N/CYgNyNMLzc29x1C+QswvByb+M5AUmiDERqcJC95F3u6hTmrLjo5d7HYwJCbcmMs+Sal3sfj4XxXv4vQvS/ufnTQ6cxlNsAAAAASUVORK5CYII=;" vertex="1" parent="1">
          <mxGeometry x="470.55" y="250" width="39.45" height="20" as="geometry" />
        </mxCell>
        <mxCell id="7rcC4zyVuGGbeMlEar-x-34" value="" style="shape=image;verticalLabelPosition=bottom;labelBackgroundColor=default;verticalAlign=top;aspect=fixed;imageAspect=0;image=data:image/png,iVBORw0KGgoAAAANSUhEUgAAAJAAAABJCAYAAADSd69fAAAAAXNSR0IArs4c6QAAAARnQU1BAACxjwv8YQUAAAAJcEhZcwAADsMAAA7DAcdvqGQAABYdSURBVHhe7Z0HeBRVu8ff9E7vEAgQIBTponTpSAm9i0gTEBQLdvzkUxELV4piEKxIUSmCCEgnQhSQonRD70iRmpCee/4nZ9yZ2XN2Z5e4kHv39zwhc2Y22+Y/73nbGXwiR07NJi9e3MRX/PbixS28AsqjhGWn0YjULfQ/yYvpuZR1VCzrpjjiWbxTWB6kcHYSzUyaT6Wyros9RDd8gmlcaA/a71dS7PEMXguUB3nx9hqDeEC+7BSamryQimfdEHs8g1dAeYzozEvUOOOoGBkJZdPayymrxcgzeAWUx+ia/ofYknN/xklqkZ4oRv8+XgHlMepmnBJbap5O2cCtkSfwCigPEZ6dSuWy/hYjNUWyb9HQ1F/E6N/FK6A8RFkL4tHom7aDKmZdFqN/D6+A8hAVJIK46BtBu/0jxcjI8yxacxdYu1bph7glG8J+amaeFUeMePNAeYhnU9ZTj7TdYpRDvH8lmhLSihbc+oxCstPFXhsTQ9rTyoAaYuSYWplnqEHGCXqA/VTNvCD22vgusC5NC24pRjl4LVAeolLmRbFl46BfCbrkE06zg5qIPUbGpMRzayIDz9crbRdNSl5Ka29Op4+TvqHHUrdKxQN6s8ean8sroDxElcy/xJaNw37F+O9vA+tRotjWkz/7No1OjefbsDADU7fR5OQlXDBfJs3hEVuzjCOWo7Ys8hFbOXgFlEdA5jmIMsTIxlG/omKL6J3gdmLLSGzaHkq4MZlbmJGpm6lhxjG3wvzjvkUo2SdQjHLwCiiPUCnLfvq65RPEpy+NP/2K09LAWmKU+8wKtp8mvQLKI1TMvCS2bBz2tZ+yZjFfCMJyB0R0KjBF/uwfLUY2vALKI0Rn2QtIP31pXPcJ4SKyAqajX/0r0PvBbahdxJN03ie/OGJkq395mh7cQoyMeAWUB6jMoqVqGefFyMYRiYDA4sA60mOp5E/b/aNoZlBTGh42gNpEPEXjQrvzae/JlE3cyTZzwrcwjQ+JFSN7vHmgexTkY5qy6KhJxlFlsxhEcEDR/wMxwGne5V+WdvlF0k72e49faXHUyIC07fREys9iZAPWbEjYQLrgm0/ssccroHsIZH4fyjhMD2YctxQltYoYSyk+AWLkHs3Z672dvEyMjIwI60/7/EqJkRyvgO4yaL9ol36ACSdRmklWcc43P/UKHy5G7oG8UlzSAml6YEJIJ1obECNGarw+0F0gKusKPZWykX64Gce7CB9O3++SeNKYL7Mi4D4xcg9Mi5OTF0vFAx/JiniA1wJ5EAhnXMo6qpNxWuyxzlWfUNoUUJlFTeUpwb+i2OsewUyss5PmSYuzPzJhTgqRJyRleAXkIXCyZjCnFr3LVkGZYgsTCwSDmldugZUc8LPM4HVeCO0mRtbwCshDwFGFw+qIdPJjUVMkE000xQdUois+YeJI7gEL2C3tdzGygToanGZMj67g9YE8RL1Mx62oyM90jxhBz4b2pCWBtf8V8aAVRCYehOlPh/ZyWTzAL3/99hPE9j3FW31b0Mi29WnD3uN0O83o6AUH+NP8p7tTr4bVqNV95SkpJZ1OXLomjtroUCeaJvZvyf4+nRLP23fz5QsJomc6PUhDW9ah3uy5dhw9T9eTbe0K2D+4RW1atfsIHxcIC6Y5T3al81dv0anLtmU11csUpRnDOvD3g5/C4SG045gx8dcpfR/ldzB9lc66xk9wyazr9LdvGF1yUFZwl4Gp25kfZv89QLyrAqqLkWvckxaoQXRperR5TXqwUmmqHmmfUY0uWYgfCw8KoIaVy9BXY7pQ6UL2X/jrvZrzxzWJKSv22MDjf3q1P3W5vwqdvHSdiuQLpUB/P3E0hza1KvDX0KhWugh/vmvJRiHULl+C79e4eCNJbNlYEHi/2FKDiKhz+l7u4H6V9BUXlKqXxx0+C24stow8lJ5oqdfannz3poDG92hCG/efoNT0TIphJ81MDSGqAdO/p/eW5TSPm0/+sFZ1qGB4MG3Yd1wqwo+GPkyXbiRTiwlzaMLCeGr31jw6csH4JVZlr33grC1SiSmT814On7/Cf2vgcbBIvT9YxH+WbDskjthYFliTR1FWwfovdCCuvvkhjb+9SlpmcJWjvkVoTUBVMbLhS9k0UpKJdk5M7gioQvGC9EzHB2jm4x1pzfgBdCpuLB2a+gTffq1HUypZ0NZy4Iz2tStS7agSNHXFNjp+8SpVY9ODmaqlc/bNGtGJJjAr88OORPZY2xQWHhxIT7P3M/fnvXxaqlWuuDiSQ6mCEVSvQkn6dMNuSkm3z4OAoswiFWRT1lMPN+CfBz94rWN/XeXC1hNTujCVLZKfP2br20PEXnteDYmlRYF1xcg6yBOhLNEo45jY4z6qQiuaylSdiGq235mAuj8QQ6te6U+bJjzKfQn4HJrFCGWmH9vDW9elbW8PpXGxDfl+Z7zYJcfMvtytCRNeBFVhJ8dMVWYJ/jx3hbYcOkVD4n6gMZ+tEkdyGNm2HvdvGlWJpB4P5lxxELkGxAGMvXVGtM8xmj13nymL+c/pyzfokM4iaVQpVYTmbd7LHzP04+Vir5wpwS2pW/gIms+mNKttF+jzGRA+mHaHVmbWuSl1rm/dkpk575tfKeInUl23Qm4JKCTQnz5mTuPUx9pJpwcZuJLnjOlKfr7q09a3cXWqWKIgsxrn+Pg68zXgoJrBlPHT70dp2srttPmgMbqBL/M4Ey0s0o3bqf84xfqp8CizIrA8zzLRN46J5D6S2U/C42FpljPr9mviGf5TLH8YHWLC1QPrmj80iPk9yXyclmm0TjLQdzMjuDl1jhjFk3aYWlTAYqCgGVO3AW1kFyo+29krd7b+/YugB+m2pIaGRYv1LCxc1OOygMKYZVn2Qh/qVK+S2GOdh6qXo4n9jF39GkEBfvRc54a09fBZ6j55IfclPli+lR/Tn3w4vzhhMksAMJUiSoM1wHP0mbKI768m/BdwKyWNXpq3nooXCKcFY7vT/LHd2LYxbIZIITSNqKIF+HuE5dODxwG87rfP9KABTayXGBA2I/P7aPhj9ERYX9oQUIUyxSlB8xYs1fcFmlPc8A58usbUC04wp/9OuOYTqnTq0fLqCi4nEvFB4KfcCc/NWUsLfz0gRjlgyoE1g+W4cO0W3wehwAc6yMRyLclaBrd+xVI8bN9/2taAhX1Xk27T0Qs2QWjUZP5RgJ8v7TSF3RBcFvtmNKFGsPcH533vqYtcgBqwShV10yMiunNX3b9XT9HsW1QgK5lnoZtWLUvTmJWHVdVASqPK2BliJIf7Y7o0gwzU3hbemk0Fs3Msp55XQrvw5UJWcElAyIu83quZGLnP6j+O0vCZP4qRFxkd61bilsfMgTOXqf3EeWJkD6b8L0bHUoOXP+PLcNBAjzzPb37l7JrMkCZApGfmlG8h6heuDgb0WJ7CCoWHKB3hyzeTaWjccqo57hOq9kwctzCXhU9g5q3Fm73isQDyWzJOX1Fblsgi+Wgum45LsKkZ22d8C/DGtDEpm3heCdV/pATaph/ky32+D6zNnWozWELdIX2fGDnGsoB6smgG/o8ZOKOx735La/cc49MMzDump1ZvfG3wF/66nkRd3vuWZq3bJfZ4cUS5ovL+5FMK/wfTHPw5ZMFBDIsMj5mcc9zZDCmB12+voJU3Z9CnSXN516GMYVZuztCko3UBybK5AGn+M5Ko4CoT08hZK/j2hn0nqDUT1O7jruYZ/v8CP0bGacl3jbzX1092NfwNAg/UuJJM67j0oKEsRpH7wZ3O0FLrkC0nrPtA6/8zkCqVLCRGNuCsPvz2fDGyByl+RFauAmv3cJ1onvPAvA5nVQNWbg2zeKtZKL9p/wm7Wpm7tKtVkVreF8VfD861Bpx61L/wOVbuOkx/nLRfIWoVRJH3lS1GVUoVJl9f4/X7TcI+/joASUkZj360lH3mk2KUw3fP9jSUUsDS3/6kpz7/iWYlzaPqmfYN+VaQrYU3Y1lAy1/qa5fR1Zi4ZDN9sjZ3pibUwQY2u4/XqKyQlJpOX278nWas3mGIjlxhRJu6PECA72CF346co1cWbLAL6R2BfNH7A9tQMxZZqXjglc+4gMoUzke/vDVY7DXS4r9zDNHkJ4935BeamXXsAhvC/NLnU9ZS1zTHdzVTsZAJaKoTAVmewvSlAjOvdm/KE3J3AswwEpOLnutpWTwAlmp0+/tp5Sv9DPkiKyD8xoWB929VPOD+6FK09rVHLGfXIZp17PGOxAM061O+WAH+W4ZePO890loqHviik5Ym8G0kIuOCmilXbzhCtYpDj2UBJRxy3IaJK8HRB3cEIoYVL/fjpRF3QaJv+Yt9DVOPI1rWKM9E119pVa2gZddlwYUG3s+nozrzPJIj9EnLSGaBZGj5MYDSETL3ZmCRH/lwKR0W7StwkucGNeBLgGIjRtHk4NY8SXnTJ5gfVwHxILHpDMsCgrPsaIpAInDeU91cKpwCbgXYiXdXfHqQKY4b1oFbM0dAqF+OjuUlmTvFUXYdz48LC5lxZ6DOpqGKwJCkBI+wKR6ZbzMovQz5+Afao/DR0KSG0P3l0K7UPmIMDQobxH0cVOixgBCc9i1InwQ1pVFh/fjYGZYbylIzMnlk1bpmBbHHnnyhQdSKXdmoH1lxbJFphgPoTHSoey3feZgSz1+hv2/dZmKzZX7N4DnxPhD5yUB2d/aITmIkB1Hlb0fP8dfdduQs/9zRJewDCA0Ud/exYAKVej3DW9WhDnWtZXTjD56kjeI992tcgzvZZuDE+/n50pRBbcUeI8NmLrerDToCjWu4MXl8QGVaEliHPg9qxAutf/jLc1AyXC5lvD+wNfVp5Lh7DSe6z5QldOWmPJmoMZdZLJVfgLke7RZLtx/iZlkPIpnXejbj1X8VDV/9nM7+bSwpIMxdxXwl1XQyfdV23gKinyo08JrvDGhFzauVE3uMoNyCniI9n7OpS3bBoe/orcVbeMlFA+G5lg5BrbFOefsm+l8Sz1AjRYLxsRk/8N4nT+NySysShpjX9e0RZgpHhPJ62do9x3lFXEb/JjV45CMDyUZktlF3Ss/MEntt3LydRj8yi5SZlc1bNmRAdKig65k+pD1vvTADq4bs+IKE/cppGq/5PRNzefa5Zc46WkQ2Mz9RXwd7mvkpyOCbafqfr1gEd5kLRvvRf08vdW3Mpj97v0rlGyG0RwPe3cCyD6Rn1OyVdsVHM3Bqlz7fm1+5ZuAT4EuSMXPtTl7usAIsxpo/5E1W9SsYow5MXS2qR4mRjYvXk6gtsxw/WzT9eG/mhjKNB0y5GH2RVQOtKjcVFxWAQy4TnYqBzGE254U8iVsCQvnisRnLnOZBkPz7dGRnMbLRs2FV3qBuBpHe20u2iJE1PvrpN7FlBH3KetBHIwN1O4jIKnjs4m0HxciIvncJkaUMZ60YyAFZBdZStpjAk7glIIBGrX7Tlvwzb6tAi8ajzWuKUQ6d6sk76iZ+75p4wO8nLkhzVPrQGmKV+S6wOvEHXL961++V+xr66A8WWIazNotIRQlDBl4Pvd13E7cFBFBxh4iuMB/CEaPa1hdbOdSJsncQIYR9zOdxB2elhZY17KcusIL5Ue6gsrz+frZuS1eLoRrlXBAQQB7rxS6NxMjz3JGAAHITmIcdAT9Ia31FeCrLv2xxkqh0BJrfHVFJEYKr8iXOQFgvA6s8NMorLNBJpxZIPoXB11P5e8jEm2thnuKOBQRgOVC4cwRWWgBV9PbXNet+iBlZVIQeJQ1VZfuSkzSDClVf98XrtueLUiRGnQlIZYFOMl/nxXnrDQsf9Uwb3J7nwDxNrggIoPq7hIW5KrTIQuUbYBWHO6CyXVxXqdfQR1VhwfLnRhrAHVRRkj5/JAu5k1PTlY12Giqxn7p8g+fVnv96rdhjRCvWehrLApJFTWZmO6jIZ4jVClh1IcPdUsbQVvJcUrwutE1RhN3VdY32rqDKx+gDinKSC8WZAw3UAsr5W2THcbHKQO4NWWxP4lRAsBjw9LdPGsoThI5wZJ61Ok6UwrnsWDea17JcAW2f3RvYF2AR3uojJVWY3raWe4sDVH6KJiAkFWV+HqyII/B3qu9A/92OX7CRd3jKmNC7ea7UFa2iFBByOJP6t6Sf3xhEsfUr8+TfsJa1xVE5qjQ/0JxkVR0L5YWRbeqJkXPgmMuazsHHq3cYMruqpCfSC1ar90ATjspKnBVZaNVxZykP1d8BfZ0Nn23cHPlUpq3Z8xR2AoIjhv6YhDcH04CmxjVOgx6qJS3yAZzQif3k9xKG2cWHhgi1VaEysC4MJQ5noEC5evwAqS8CH+PT9cb/0WaLgyzzgrHdlA3serDC9oXYnHBZdqJh9bSlR0pH2JkDrbDO5poeQP5qQYK88R0RL1b2egI7AWENFTr0ZKYUiauFz/bkLQwasByYd1UnFMSt2cF/q0y/HhQsl77Qh5cdzH02WM+ORYAzmeVB+4iMV7/ZyDPlepCn+s60Dk0D7x8LAr94Ipba1KxgaL3A9I0QGevdscZf80NkPpA2RYNyiinEmQ8k85uA6u/eXLRZOZWNaltPWXjNTaTVeLRTupJSdwSswRuLctZc414+OFGugMo1CqplmIVz1pT1+nfx9MVG+xsoAYgB07EVUMQtxV5PW+Gg8cLcdfRNwn7aM3mEXVCxcveRfxYRoN1CW5Ovp82bcx2Wf6YNbkfdJD4dXhOvLQNJ0i9HdxEjIxAXFjOoQv/cQOoDvStumXKnYN5+d1lOayUoa8ECmUEfDpYPOxNP3JqdSvEA1Iw0ITsDqQGzeMCJi9f4+5BFpPqGMHd9IFctEEDf0zJFVIb0xgeK3qHcQiogvCFzK4SrYEkwyhz6ynVkYbWTeCe8uXgzTbJQR4M1VH3ZVoAPU1ZhmfUnuazEl0H22tzXZEZZ/nAy9f3n203K7DimZb0vi4sRvdRjOzTgviRCf/i9/+39kHiEayijMLRsOGqkdwTu19P1/e/+aRLXkF2ZcDxlTqIV8Hd9pyym2S4sVnzy859oTvweMXINbcWEDGSKAXxHWWLTmfWBvyezekDvX8mAeF5jvp8KLEfXWkvQ+IaGv9nsYipZIJwqlSzMl1Enp7q3okUpIDRZdWcicKXXBB8UzU24Xw+yrmaiitkLCHcAQ/fgh6u2K5vPzEA4H/y4ld9dDF16rjKefdl9py6x3AOEPNIU9npAJSAtx6M67uxidORzOrNAABetqksAgQHu4aiRzbzebPzDSGQ+GQTv7to6Sy2taMYa1LwW1Yoqbnd1QTQJf56mX9gPPoQjEqePNkQ5YP6WffxWKxpoykIEhtAaCTH4GxDzrmPnaefxC7Tt8Nl/7h+UG8Aq4gpswZxROOo4kegqxKqGQ2ev8E4/fDYNRJJlCtmfbG3Kh4+k3YJPD6yXo94d7e4kMqy6E4iS4b+pOHDmEneoUfbA+9F+I7WCWwS6MxO43BPtLkhM7nhnmBjZeGdpAk/8ecmbKKew3EYVmbjr/3i5N/CYgNyNMLzc29x1C+QswvByb+M5AUmiDERqcJC95F3u6hTmrLjo5d7HYwJCbcmMs+Sal3sfj4XxXv4vQvS/ufnTQ6cxlNsAAAAASUVORK5CYII=;" vertex="1" parent="1">
          <mxGeometry x="500" y="320" width="39.45" height="20" as="geometry" />
        </mxCell>
        <mxCell id="7rcC4zyVuGGbeMlEar-x-35" value="" style="shape=image;verticalLabelPosition=bottom;labelBackgroundColor=default;verticalAlign=top;aspect=fixed;imageAspect=0;image=data:image/png,iVBORw0KGgoAAAANSUhEUgAAAJAAAABJCAYAAADSd69fAAAAAXNSR0IArs4c6QAAAARnQU1BAACxjwv8YQUAAAAJcEhZcwAADsMAAA7DAcdvqGQAABYdSURBVHhe7Z0HeBRVu8ff9E7vEAgQIBTponTpSAm9i0gTEBQLdvzkUxELV4piEKxIUSmCCEgnQhSQonRD70iRmpCee/4nZ9yZ2XN2Z5e4kHv39zwhc2Y22+Y/73nbGXwiR07NJi9e3MRX/PbixS28AsqjhGWn0YjULfQ/yYvpuZR1VCzrpjjiWbxTWB6kcHYSzUyaT6Wyros9RDd8gmlcaA/a71dS7PEMXguUB3nx9hqDeEC+7BSamryQimfdEHs8g1dAeYzozEvUOOOoGBkJZdPayymrxcgzeAWUx+ia/ofYknN/xklqkZ4oRv8+XgHlMepmnBJbap5O2cCtkSfwCigPEZ6dSuWy/hYjNUWyb9HQ1F/E6N/FK6A8RFkL4tHom7aDKmZdFqN/D6+A8hAVJIK46BtBu/0jxcjI8yxacxdYu1bph7glG8J+amaeFUeMePNAeYhnU9ZTj7TdYpRDvH8lmhLSihbc+oxCstPFXhsTQ9rTyoAaYuSYWplnqEHGCXqA/VTNvCD22vgusC5NC24pRjl4LVAeolLmRbFl46BfCbrkE06zg5qIPUbGpMRzayIDz9crbRdNSl5Ka29Op4+TvqHHUrdKxQN6s8ean8sroDxElcy/xJaNw37F+O9vA+tRotjWkz/7No1OjefbsDADU7fR5OQlXDBfJs3hEVuzjCOWo7Ys8hFbOXgFlEdA5jmIMsTIxlG/omKL6J3gdmLLSGzaHkq4MZlbmJGpm6lhxjG3wvzjvkUo2SdQjHLwCiiPUCnLfvq65RPEpy+NP/2K09LAWmKU+8wKtp8mvQLKI1TMvCS2bBz2tZ+yZjFfCMJyB0R0KjBF/uwfLUY2vALKI0Rn2QtIP31pXPcJ4SKyAqajX/0r0PvBbahdxJN03ie/OGJkq395mh7cQoyMeAWUB6jMoqVqGefFyMYRiYDA4sA60mOp5E/b/aNoZlBTGh42gNpEPEXjQrvzae/JlE3cyTZzwrcwjQ+JFSN7vHmgexTkY5qy6KhJxlFlsxhEcEDR/wMxwGne5V+WdvlF0k72e49faXHUyIC07fREys9iZAPWbEjYQLrgm0/ssccroHsIZH4fyjhMD2YctxQltYoYSyk+AWLkHs3Z672dvEyMjIwI60/7/EqJkRyvgO4yaL9ol36ACSdRmklWcc43P/UKHy5G7oG8UlzSAml6YEJIJ1obECNGarw+0F0gKusKPZWykX64Gce7CB9O3++SeNKYL7Mi4D4xcg9Mi5OTF0vFAx/JiniA1wJ5EAhnXMo6qpNxWuyxzlWfUNoUUJlFTeUpwb+i2OsewUyss5PmSYuzPzJhTgqRJyRleAXkIXCyZjCnFr3LVkGZYgsTCwSDmldugZUc8LPM4HVeCO0mRtbwCshDwFGFw+qIdPJjUVMkE000xQdUois+YeJI7gEL2C3tdzGygToanGZMj67g9YE8RL1Mx62oyM90jxhBz4b2pCWBtf8V8aAVRCYehOlPh/ZyWTzAL3/99hPE9j3FW31b0Mi29WnD3uN0O83o6AUH+NP8p7tTr4bVqNV95SkpJZ1OXLomjtroUCeaJvZvyf4+nRLP23fz5QsJomc6PUhDW9ah3uy5dhw9T9eTbe0K2D+4RW1atfsIHxcIC6Y5T3al81dv0anLtmU11csUpRnDOvD3g5/C4SG045gx8dcpfR/ldzB9lc66xk9wyazr9LdvGF1yUFZwl4Gp25kfZv89QLyrAqqLkWvckxaoQXRperR5TXqwUmmqHmmfUY0uWYgfCw8KoIaVy9BXY7pQ6UL2X/jrvZrzxzWJKSv22MDjf3q1P3W5vwqdvHSdiuQLpUB/P3E0hza1KvDX0KhWugh/vmvJRiHULl+C79e4eCNJbNlYEHi/2FKDiKhz+l7u4H6V9BUXlKqXxx0+C24stow8lJ5oqdfannz3poDG92hCG/efoNT0TIphJ81MDSGqAdO/p/eW5TSPm0/+sFZ1qGB4MG3Yd1wqwo+GPkyXbiRTiwlzaMLCeGr31jw6csH4JVZlr33grC1SiSmT814On7/Cf2vgcbBIvT9YxH+WbDskjthYFliTR1FWwfovdCCuvvkhjb+9SlpmcJWjvkVoTUBVMbLhS9k0UpKJdk5M7gioQvGC9EzHB2jm4x1pzfgBdCpuLB2a+gTffq1HUypZ0NZy4Iz2tStS7agSNHXFNjp+8SpVY9ODmaqlc/bNGtGJJjAr88OORPZY2xQWHhxIT7P3M/fnvXxaqlWuuDiSQ6mCEVSvQkn6dMNuSkm3z4OAoswiFWRT1lMPN+CfBz94rWN/XeXC1hNTujCVLZKfP2br20PEXnteDYmlRYF1xcg6yBOhLNEo45jY4z6qQiuaylSdiGq235mAuj8QQ6te6U+bJjzKfQn4HJrFCGWmH9vDW9elbW8PpXGxDfl+Z7zYJcfMvtytCRNeBFVhJ8dMVWYJ/jx3hbYcOkVD4n6gMZ+tEkdyGNm2HvdvGlWJpB4P5lxxELkGxAGMvXVGtM8xmj13nymL+c/pyzfokM4iaVQpVYTmbd7LHzP04+Vir5wpwS2pW/gIms+mNKttF+jzGRA+mHaHVmbWuSl1rm/dkpk575tfKeInUl23Qm4JKCTQnz5mTuPUx9pJpwcZuJLnjOlKfr7q09a3cXWqWKIgsxrn+Pg68zXgoJrBlPHT70dp2srttPmgMbqBL/M4Ey0s0o3bqf84xfqp8CizIrA8zzLRN46J5D6S2U/C42FpljPr9mviGf5TLH8YHWLC1QPrmj80iPk9yXyclmm0TjLQdzMjuDl1jhjFk3aYWlTAYqCgGVO3AW1kFyo+29krd7b+/YugB+m2pIaGRYv1LCxc1OOygMKYZVn2Qh/qVK+S2GOdh6qXo4n9jF39GkEBfvRc54a09fBZ6j55IfclPli+lR/Tn3w4vzhhMksAMJUiSoM1wHP0mbKI768m/BdwKyWNXpq3nooXCKcFY7vT/LHd2LYxbIZIITSNqKIF+HuE5dODxwG87rfP9KABTayXGBA2I/P7aPhj9ERYX9oQUIUyxSlB8xYs1fcFmlPc8A58usbUC04wp/9OuOYTqnTq0fLqCi4nEvFB4KfcCc/NWUsLfz0gRjlgyoE1g+W4cO0W3wehwAc6yMRyLclaBrd+xVI8bN9/2taAhX1Xk27T0Qs2QWjUZP5RgJ8v7TSF3RBcFvtmNKFGsPcH533vqYtcgBqwShV10yMiunNX3b9XT9HsW1QgK5lnoZtWLUvTmJWHVdVASqPK2BliJIf7Y7o0gwzU3hbemk0Fs3Msp55XQrvw5UJWcElAyIu83quZGLnP6j+O0vCZP4qRFxkd61bilsfMgTOXqf3EeWJkD6b8L0bHUoOXP+PLcNBAjzzPb37l7JrMkCZApGfmlG8h6heuDgb0WJ7CCoWHKB3hyzeTaWjccqo57hOq9kwctzCXhU9g5q3Fm73isQDyWzJOX1Fblsgi+Wgum45LsKkZ22d8C/DGtDEpm3heCdV/pATaph/ky32+D6zNnWozWELdIX2fGDnGsoB6smgG/o8ZOKOx735La/cc49MMzDump1ZvfG3wF/66nkRd3vuWZq3bJfZ4cUS5ovL+5FMK/wfTHPw5ZMFBDIsMj5mcc9zZDCmB12+voJU3Z9CnSXN516GMYVZuztCko3UBybK5AGn+M5Ko4CoT08hZK/j2hn0nqDUT1O7jruYZ/v8CP0bGacl3jbzX1092NfwNAg/UuJJM67j0oKEsRpH7wZ3O0FLrkC0nrPtA6/8zkCqVLCRGNuCsPvz2fDGyByl+RFauAmv3cJ1onvPAvA5nVQNWbg2zeKtZKL9p/wm7Wpm7tKtVkVreF8VfD861Bpx61L/wOVbuOkx/nLRfIWoVRJH3lS1GVUoVJl9f4/X7TcI+/joASUkZj360lH3mk2KUw3fP9jSUUsDS3/6kpz7/iWYlzaPqmfYN+VaQrYU3Y1lAy1/qa5fR1Zi4ZDN9sjZ3pibUwQY2u4/XqKyQlJpOX278nWas3mGIjlxhRJu6PECA72CF346co1cWbLAL6R2BfNH7A9tQMxZZqXjglc+4gMoUzke/vDVY7DXS4r9zDNHkJ4935BeamXXsAhvC/NLnU9ZS1zTHdzVTsZAJaKoTAVmewvSlAjOvdm/KE3J3AswwEpOLnutpWTwAlmp0+/tp5Sv9DPkiKyD8xoWB929VPOD+6FK09rVHLGfXIZp17PGOxAM061O+WAH+W4ZePO890loqHviik5Ym8G0kIuOCmilXbzhCtYpDj2UBJRxy3IaJK8HRB3cEIoYVL/fjpRF3QaJv+Yt9DVOPI1rWKM9E119pVa2gZddlwYUG3s+nozrzPJIj9EnLSGaBZGj5MYDSETL3ZmCRH/lwKR0W7StwkucGNeBLgGIjRtHk4NY8SXnTJ5gfVwHxILHpDMsCgrPsaIpAInDeU91cKpwCbgXYiXdXfHqQKY4b1oFbM0dAqF+OjuUlmTvFUXYdz48LC5lxZ6DOpqGKwJCkBI+wKR6ZbzMovQz5+Afao/DR0KSG0P3l0K7UPmIMDQobxH0cVOixgBCc9i1InwQ1pVFh/fjYGZYbylIzMnlk1bpmBbHHnnyhQdSKXdmoH1lxbJFphgPoTHSoey3feZgSz1+hv2/dZmKzZX7N4DnxPhD5yUB2d/aITmIkB1Hlb0fP8dfdduQs/9zRJewDCA0Ud/exYAKVej3DW9WhDnWtZXTjD56kjeI992tcgzvZZuDE+/n50pRBbcUeI8NmLrerDToCjWu4MXl8QGVaEliHPg9qxAutf/jLc1AyXC5lvD+wNfVp5Lh7DSe6z5QldOWmPJmoMZdZLJVfgLke7RZLtx/iZlkPIpnXejbj1X8VDV/9nM7+bSwpIMxdxXwl1XQyfdV23gKinyo08JrvDGhFzauVE3uMoNyCniI9n7OpS3bBoe/orcVbeMlFA+G5lg5BrbFOefsm+l8Sz1AjRYLxsRk/8N4nT+NySysShpjX9e0RZgpHhPJ62do9x3lFXEb/JjV45CMDyUZktlF3Ss/MEntt3LydRj8yi5SZlc1bNmRAdKig65k+pD1vvTADq4bs+IKE/cppGq/5PRNzefa5Zc46WkQ2Mz9RXwd7mvkpyOCbafqfr1gEd5kLRvvRf08vdW3Mpj97v0rlGyG0RwPe3cCyD6Rn1OyVdsVHM3Bqlz7fm1+5ZuAT4EuSMXPtTl7usAIsxpo/5E1W9SsYow5MXS2qR4mRjYvXk6gtsxw/WzT9eG/mhjKNB0y5GH2RVQOtKjcVFxWAQy4TnYqBzGE254U8iVsCQvnisRnLnOZBkPz7dGRnMbLRs2FV3qBuBpHe20u2iJE1PvrpN7FlBH3KetBHIwN1O4jIKnjs4m0HxciIvncJkaUMZ60YyAFZBdZStpjAk7glIIBGrX7Tlvwzb6tAi8ajzWuKUQ6d6sk76iZ+75p4wO8nLkhzVPrQGmKV+S6wOvEHXL961++V+xr66A8WWIazNotIRQlDBl4Pvd13E7cFBFBxh4iuMB/CEaPa1hdbOdSJsncQIYR9zOdxB2elhZY17KcusIL5Ue6gsrz+frZuS1eLoRrlXBAQQB7rxS6NxMjz3JGAAHITmIcdAT9Ia31FeCrLv2xxkqh0BJrfHVFJEYKr8iXOQFgvA6s8NMorLNBJpxZIPoXB11P5e8jEm2thnuKOBQRgOVC4cwRWWgBV9PbXNet+iBlZVIQeJQ1VZfuSkzSDClVf98XrtueLUiRGnQlIZYFOMl/nxXnrDQsf9Uwb3J7nwDxNrggIoPq7hIW5KrTIQuUbYBWHO6CyXVxXqdfQR1VhwfLnRhrAHVRRkj5/JAu5k1PTlY12Giqxn7p8g+fVnv96rdhjRCvWehrLApJFTWZmO6jIZ4jVClh1IcPdUsbQVvJcUrwutE1RhN3VdY32rqDKx+gDinKSC8WZAw3UAsr5W2THcbHKQO4NWWxP4lRAsBjw9LdPGsoThI5wZJ61Ok6UwrnsWDea17JcAW2f3RvYF2AR3uojJVWY3raWe4sDVH6KJiAkFWV+HqyII/B3qu9A/92OX7CRd3jKmNC7ea7UFa2iFBByOJP6t6Sf3xhEsfUr8+TfsJa1xVE5qjQ/0JxkVR0L5YWRbeqJkXPgmMuazsHHq3cYMruqpCfSC1ar90ATjspKnBVZaNVxZykP1d8BfZ0Nn23cHPlUpq3Z8xR2AoIjhv6YhDcH04CmxjVOgx6qJS3yAZzQif3k9xKG2cWHhgi1VaEysC4MJQ5noEC5evwAqS8CH+PT9cb/0WaLgyzzgrHdlA3serDC9oXYnHBZdqJh9bSlR0pH2JkDrbDO5poeQP5qQYK88R0RL1b2egI7AWENFTr0ZKYUiauFz/bkLQwasByYd1UnFMSt2cF/q0y/HhQsl77Qh5cdzH02WM+ORYAzmeVB+4iMV7/ZyDPlepCn+s60Dk0D7x8LAr94Ipba1KxgaL3A9I0QGevdscZf80NkPpA2RYNyiinEmQ8k85uA6u/eXLRZOZWNaltPWXjNTaTVeLRTupJSdwSswRuLctZc414+OFGugMo1CqplmIVz1pT1+nfx9MVG+xsoAYgB07EVUMQtxV5PW+Gg8cLcdfRNwn7aM3mEXVCxcveRfxYRoN1CW5Ovp82bcx2Wf6YNbkfdJD4dXhOvLQNJ0i9HdxEjIxAXFjOoQv/cQOoDvStumXKnYN5+d1lOayUoa8ECmUEfDpYPOxNP3JqdSvEA1Iw0ITsDqQGzeMCJi9f4+5BFpPqGMHd9IFctEEDf0zJFVIb0xgeK3qHcQiogvCFzK4SrYEkwyhz6ynVkYbWTeCe8uXgzTbJQR4M1VH3ZVoAPU1ZhmfUnuazEl0H22tzXZEZZ/nAy9f3n203K7DimZb0vi4sRvdRjOzTgviRCf/i9/+39kHiEayijMLRsOGqkdwTu19P1/e/+aRLXkF2ZcDxlTqIV8Hd9pyym2S4sVnzy859oTvweMXINbcWEDGSKAXxHWWLTmfWBvyezekDvX8mAeF5jvp8KLEfXWkvQ+IaGv9nsYipZIJwqlSzMl1Enp7q3okUpIDRZdWcicKXXBB8UzU24Xw+yrmaiitkLCHcAQ/fgh6u2K5vPzEA4H/y4ld9dDF16rjKefdl9py6x3AOEPNIU9npAJSAtx6M67uxidORzOrNAABetqksAgQHu4aiRzbzebPzDSGQ+GQTv7to6Sy2taMYa1LwW1Yoqbnd1QTQJf56mX9gPPoQjEqePNkQ5YP6WffxWKxpoykIEhtAaCTH4GxDzrmPnaefxC7Tt8Nl/7h+UG8Aq4gpswZxROOo4kegqxKqGQ2ev8E4/fDYNRJJlCtmfbG3Kh4+k3YJPD6yXo94d7e4kMqy6E4iS4b+pOHDmEneoUfbA+9F+I7WCWwS6MxO43BPtLkhM7nhnmBjZeGdpAk/8ecmbKKew3EYVmbjr/3i5N/CYgNyNMLzc29x1C+QswvByb+M5AUmiDERqcJC95F3u6hTmrLjo5d7HYwJCbcmMs+Sal3sfj4XxXv4vQvS/ufnTQ6cxlNsAAAAASUVORK5CYII=;" vertex="1" parent="1">
          <mxGeometry x="500" y="387.2" width="39.45" height="20" as="geometry" />
        </mxCell>
        <mxCell id="7rcC4zyVuGGbeMlEar-x-36" value="" style="shape=image;verticalLabelPosition=bottom;labelBackgroundColor=default;verticalAlign=top;aspect=fixed;imageAspect=0;image=data:image/png,iVBORw0KGgoAAAANSUhEUgAAAJAAAABJCAYAAADSd69fAAAAAXNSR0IArs4c6QAAAARnQU1BAACxjwv8YQUAAAAJcEhZcwAADsMAAA7DAcdvqGQAABYdSURBVHhe7Z0HeBRVu8ff9E7vEAgQIBTponTpSAm9i0gTEBQLdvzkUxELV4piEKxIUSmCCEgnQhSQonRD70iRmpCee/4nZ9yZ2XN2Z5e4kHv39zwhc2Y22+Y/73nbGXwiR07NJi9e3MRX/PbixS28AsqjhGWn0YjULfQ/yYvpuZR1VCzrpjjiWbxTWB6kcHYSzUyaT6Wyros9RDd8gmlcaA/a71dS7PEMXguUB3nx9hqDeEC+7BSamryQimfdEHs8g1dAeYzozEvUOOOoGBkJZdPayymrxcgzeAWUx+ia/ofYknN/xklqkZ4oRv8+XgHlMepmnBJbap5O2cCtkSfwCigPEZ6dSuWy/hYjNUWyb9HQ1F/E6N/FK6A8RFkL4tHom7aDKmZdFqN/D6+A8hAVJIK46BtBu/0jxcjI8yxacxdYu1bph7glG8J+amaeFUeMePNAeYhnU9ZTj7TdYpRDvH8lmhLSihbc+oxCstPFXhsTQ9rTyoAaYuSYWplnqEHGCXqA/VTNvCD22vgusC5NC24pRjl4LVAeolLmRbFl46BfCbrkE06zg5qIPUbGpMRzayIDz9crbRdNSl5Ka29Op4+TvqHHUrdKxQN6s8ean8sroDxElcy/xJaNw37F+O9vA+tRotjWkz/7No1OjefbsDADU7fR5OQlXDBfJs3hEVuzjCOWo7Ys8hFbOXgFlEdA5jmIMsTIxlG/omKL6J3gdmLLSGzaHkq4MZlbmJGpm6lhxjG3wvzjvkUo2SdQjHLwCiiPUCnLfvq65RPEpy+NP/2K09LAWmKU+8wKtp8mvQLKI1TMvCS2bBz2tZ+yZjFfCMJyB0R0KjBF/uwfLUY2vALKI0Rn2QtIP31pXPcJ4SKyAqajX/0r0PvBbahdxJN03ie/OGJkq395mh7cQoyMeAWUB6jMoqVqGefFyMYRiYDA4sA60mOp5E/b/aNoZlBTGh42gNpEPEXjQrvzae/JlE3cyTZzwrcwjQ+JFSN7vHmgexTkY5qy6KhJxlFlsxhEcEDR/wMxwGne5V+WdvlF0k72e49faXHUyIC07fREys9iZAPWbEjYQLrgm0/ssccroHsIZH4fyjhMD2YctxQltYoYSyk+AWLkHs3Z672dvEyMjIwI60/7/EqJkRyvgO4yaL9ol36ACSdRmklWcc43P/UKHy5G7oG8UlzSAml6YEJIJ1obECNGarw+0F0gKusKPZWykX64Gce7CB9O3++SeNKYL7Mi4D4xcg9Mi5OTF0vFAx/JiniA1wJ5EAhnXMo6qpNxWuyxzlWfUNoUUJlFTeUpwb+i2OsewUyss5PmSYuzPzJhTgqRJyRleAXkIXCyZjCnFr3LVkGZYgsTCwSDmldugZUc8LPM4HVeCO0mRtbwCshDwFGFw+qIdPJjUVMkE000xQdUois+YeJI7gEL2C3tdzGygToanGZMj67g9YE8RL1Mx62oyM90jxhBz4b2pCWBtf8V8aAVRCYehOlPh/ZyWTzAL3/99hPE9j3FW31b0Mi29WnD3uN0O83o6AUH+NP8p7tTr4bVqNV95SkpJZ1OXLomjtroUCeaJvZvyf4+nRLP23fz5QsJomc6PUhDW9ah3uy5dhw9T9eTbe0K2D+4RW1atfsIHxcIC6Y5T3al81dv0anLtmU11csUpRnDOvD3g5/C4SG045gx8dcpfR/ldzB9lc66xk9wyazr9LdvGF1yUFZwl4Gp25kfZv89QLyrAqqLkWvckxaoQXRperR5TXqwUmmqHmmfUY0uWYgfCw8KoIaVy9BXY7pQ6UL2X/jrvZrzxzWJKSv22MDjf3q1P3W5vwqdvHSdiuQLpUB/P3E0hza1KvDX0KhWugh/vmvJRiHULl+C79e4eCNJbNlYEHi/2FKDiKhz+l7u4H6V9BUXlKqXxx0+C24stow8lJ5oqdfannz3poDG92hCG/efoNT0TIphJ81MDSGqAdO/p/eW5TSPm0/+sFZ1qGB4MG3Yd1wqwo+GPkyXbiRTiwlzaMLCeGr31jw6csH4JVZlr33grC1SiSmT814On7/Cf2vgcbBIvT9YxH+WbDskjthYFliTR1FWwfovdCCuvvkhjb+9SlpmcJWjvkVoTUBVMbLhS9k0UpKJdk5M7gioQvGC9EzHB2jm4x1pzfgBdCpuLB2a+gTffq1HUypZ0NZy4Iz2tStS7agSNHXFNjp+8SpVY9ODmaqlc/bNGtGJJjAr88OORPZY2xQWHhxIT7P3M/fnvXxaqlWuuDiSQ6mCEVSvQkn6dMNuSkm3z4OAoswiFWRT1lMPN+CfBz94rWN/XeXC1hNTujCVLZKfP2br20PEXnteDYmlRYF1xcg6yBOhLNEo45jY4z6qQiuaylSdiGq235mAuj8QQ6te6U+bJjzKfQn4HJrFCGWmH9vDW9elbW8PpXGxDfl+Z7zYJcfMvtytCRNeBFVhJ8dMVWYJ/jx3hbYcOkVD4n6gMZ+tEkdyGNm2HvdvGlWJpB4P5lxxELkGxAGMvXVGtM8xmj13nymL+c/pyzfokM4iaVQpVYTmbd7LHzP04+Vir5wpwS2pW/gIms+mNKttF+jzGRA+mHaHVmbWuSl1rm/dkpk575tfKeInUl23Qm4JKCTQnz5mTuPUx9pJpwcZuJLnjOlKfr7q09a3cXWqWKIgsxrn+Pg68zXgoJrBlPHT70dp2srttPmgMbqBL/M4Ey0s0o3bqf84xfqp8CizIrA8zzLRN46J5D6S2U/C42FpljPr9mviGf5TLH8YHWLC1QPrmj80iPk9yXyclmm0TjLQdzMjuDl1jhjFk3aYWlTAYqCgGVO3AW1kFyo+29krd7b+/YugB+m2pIaGRYv1LCxc1OOygMKYZVn2Qh/qVK+S2GOdh6qXo4n9jF39GkEBfvRc54a09fBZ6j55IfclPli+lR/Tn3w4vzhhMksAMJUiSoM1wHP0mbKI768m/BdwKyWNXpq3nooXCKcFY7vT/LHd2LYxbIZIITSNqKIF+HuE5dODxwG87rfP9KABTayXGBA2I/P7aPhj9ERYX9oQUIUyxSlB8xYs1fcFmlPc8A58usbUC04wp/9OuOYTqnTq0fLqCi4nEvFB4KfcCc/NWUsLfz0gRjlgyoE1g+W4cO0W3wehwAc6yMRyLclaBrd+xVI8bN9/2taAhX1Xk27T0Qs2QWjUZP5RgJ8v7TSF3RBcFvtmNKFGsPcH533vqYtcgBqwShV10yMiunNX3b9XT9HsW1QgK5lnoZtWLUvTmJWHVdVASqPK2BliJIf7Y7o0gwzU3hbemk0Fs3Msp55XQrvw5UJWcElAyIu83quZGLnP6j+O0vCZP4qRFxkd61bilsfMgTOXqf3EeWJkD6b8L0bHUoOXP+PLcNBAjzzPb37l7JrMkCZApGfmlG8h6heuDgb0WJ7CCoWHKB3hyzeTaWjccqo57hOq9kwctzCXhU9g5q3Fm73isQDyWzJOX1Fblsgi+Wgum45LsKkZ22d8C/DGtDEpm3heCdV/pATaph/ky32+D6zNnWozWELdIX2fGDnGsoB6smgG/o8ZOKOx735La/cc49MMzDump1ZvfG3wF/66nkRd3vuWZq3bJfZ4cUS5ovL+5FMK/wfTHPw5ZMFBDIsMj5mcc9zZDCmB12+voJU3Z9CnSXN516GMYVZuztCko3UBybK5AGn+M5Ko4CoT08hZK/j2hn0nqDUT1O7jruYZ/v8CP0bGacl3jbzX1092NfwNAg/UuJJM67j0oKEsRpH7wZ3O0FLrkC0nrPtA6/8zkCqVLCRGNuCsPvz2fDGyByl+RFauAmv3cJ1onvPAvA5nVQNWbg2zeKtZKL9p/wm7Wpm7tKtVkVreF8VfD861Bpx61L/wOVbuOkx/nLRfIWoVRJH3lS1GVUoVJl9f4/X7TcI+/joASUkZj360lH3mk2KUw3fP9jSUUsDS3/6kpz7/iWYlzaPqmfYN+VaQrYU3Y1lAy1/qa5fR1Zi4ZDN9sjZ3pibUwQY2u4/XqKyQlJpOX278nWas3mGIjlxhRJu6PECA72CF346co1cWbLAL6R2BfNH7A9tQMxZZqXjglc+4gMoUzke/vDVY7DXS4r9zDNHkJ4935BeamXXsAhvC/NLnU9ZS1zTHdzVTsZAJaKoTAVmewvSlAjOvdm/KE3J3AswwEpOLnutpWTwAlmp0+/tp5Sv9DPkiKyD8xoWB929VPOD+6FK09rVHLGfXIZp17PGOxAM061O+WAH+W4ZePO890loqHviik5Ym8G0kIuOCmilXbzhCtYpDj2UBJRxy3IaJK8HRB3cEIoYVL/fjpRF3QaJv+Yt9DVOPI1rWKM9E119pVa2gZddlwYUG3s+nozrzPJIj9EnLSGaBZGj5MYDSETL3ZmCRH/lwKR0W7StwkucGNeBLgGIjRtHk4NY8SXnTJ5gfVwHxILHpDMsCgrPsaIpAInDeU91cKpwCbgXYiXdXfHqQKY4b1oFbM0dAqF+OjuUlmTvFUXYdz48LC5lxZ6DOpqGKwJCkBI+wKR6ZbzMovQz5+Afao/DR0KSG0P3l0K7UPmIMDQobxH0cVOixgBCc9i1InwQ1pVFh/fjYGZYbylIzMnlk1bpmBbHHnnyhQdSKXdmoH1lxbJFphgPoTHSoey3feZgSz1+hv2/dZmKzZX7N4DnxPhD5yUB2d/aITmIkB1Hlb0fP8dfdduQs/9zRJewDCA0Ud/exYAKVej3DW9WhDnWtZXTjD56kjeI992tcgzvZZuDE+/n50pRBbcUeI8NmLrerDToCjWu4MXl8QGVaEliHPg9qxAutf/jLc1AyXC5lvD+wNfVp5Lh7DSe6z5QldOWmPJmoMZdZLJVfgLke7RZLtx/iZlkPIpnXejbj1X8VDV/9nM7+bSwpIMxdxXwl1XQyfdV23gKinyo08JrvDGhFzauVE3uMoNyCniI9n7OpS3bBoe/orcVbeMlFA+G5lg5BrbFOefsm+l8Sz1AjRYLxsRk/8N4nT+NySysShpjX9e0RZgpHhPJ62do9x3lFXEb/JjV45CMDyUZktlF3Ss/MEntt3LydRj8yi5SZlc1bNmRAdKig65k+pD1vvTADq4bs+IKE/cppGq/5PRNzefa5Zc46WkQ2Mz9RXwd7mvkpyOCbafqfr1gEd5kLRvvRf08vdW3Mpj97v0rlGyG0RwPe3cCyD6Rn1OyVdsVHM3Bqlz7fm1+5ZuAT4EuSMXPtTl7usAIsxpo/5E1W9SsYow5MXS2qR4mRjYvXk6gtsxw/WzT9eG/mhjKNB0y5GH2RVQOtKjcVFxWAQy4TnYqBzGE254U8iVsCQvnisRnLnOZBkPz7dGRnMbLRs2FV3qBuBpHe20u2iJE1PvrpN7FlBH3KetBHIwN1O4jIKnjs4m0HxciIvncJkaUMZ60YyAFZBdZStpjAk7glIIBGrX7Tlvwzb6tAi8ajzWuKUQ6d6sk76iZ+75p4wO8nLkhzVPrQGmKV+S6wOvEHXL961++V+xr66A8WWIazNotIRQlDBl4Pvd13E7cFBFBxh4iuMB/CEaPa1hdbOdSJsncQIYR9zOdxB2elhZY17KcusIL5Ue6gsrz+frZuS1eLoRrlXBAQQB7rxS6NxMjz3JGAAHITmIcdAT9Ia31FeCrLv2xxkqh0BJrfHVFJEYKr8iXOQFgvA6s8NMorLNBJpxZIPoXB11P5e8jEm2thnuKOBQRgOVC4cwRWWgBV9PbXNet+iBlZVIQeJQ1VZfuSkzSDClVf98XrtueLUiRGnQlIZYFOMl/nxXnrDQsf9Uwb3J7nwDxNrggIoPq7hIW5KrTIQuUbYBWHO6CyXVxXqdfQR1VhwfLnRhrAHVRRkj5/JAu5k1PTlY12Giqxn7p8g+fVnv96rdhjRCvWehrLApJFTWZmO6jIZ4jVClh1IcPdUsbQVvJcUrwutE1RhN3VdY32rqDKx+gDinKSC8WZAw3UAsr5W2THcbHKQO4NWWxP4lRAsBjw9LdPGsoThI5wZJ61Ok6UwrnsWDea17JcAW2f3RvYF2AR3uojJVWY3raWe4sDVH6KJiAkFWV+HqyII/B3qu9A/92OX7CRd3jKmNC7ea7UFa2iFBByOJP6t6Sf3xhEsfUr8+TfsJa1xVE5qjQ/0JxkVR0L5YWRbeqJkXPgmMuazsHHq3cYMruqpCfSC1ar90ATjspKnBVZaNVxZykP1d8BfZ0Nn23cHPlUpq3Z8xR2AoIjhv6YhDcH04CmxjVOgx6qJS3yAZzQif3k9xKG2cWHhgi1VaEysC4MJQ5noEC5evwAqS8CH+PT9cb/0WaLgyzzgrHdlA3serDC9oXYnHBZdqJh9bSlR0pH2JkDrbDO5poeQP5qQYK88R0RL1b2egI7AWENFTr0ZKYUiauFz/bkLQwasByYd1UnFMSt2cF/q0y/HhQsl77Qh5cdzH02WM+ORYAzmeVB+4iMV7/ZyDPlepCn+s60Dk0D7x8LAr94Ipba1KxgaL3A9I0QGevdscZf80NkPpA2RYNyiinEmQ8k85uA6u/eXLRZOZWNaltPWXjNTaTVeLRTupJSdwSswRuLctZc414+OFGugMo1CqplmIVz1pT1+nfx9MVG+xsoAYgB07EVUMQtxV5PW+Gg8cLcdfRNwn7aM3mEXVCxcveRfxYRoN1CW5Ovp82bcx2Wf6YNbkfdJD4dXhOvLQNJ0i9HdxEjIxAXFjOoQv/cQOoDvStumXKnYN5+d1lOayUoa8ECmUEfDpYPOxNP3JqdSvEA1Iw0ITsDqQGzeMCJi9f4+5BFpPqGMHd9IFctEEDf0zJFVIb0xgeK3qHcQiogvCFzK4SrYEkwyhz6ynVkYbWTeCe8uXgzTbJQR4M1VH3ZVoAPU1ZhmfUnuazEl0H22tzXZEZZ/nAy9f3n203K7DimZb0vi4sRvdRjOzTgviRCf/i9/+39kHiEayijMLRsOGqkdwTu19P1/e/+aRLXkF2ZcDxlTqIV8Hd9pyym2S4sVnzy859oTvweMXINbcWEDGSKAXxHWWLTmfWBvyezekDvX8mAeF5jvp8KLEfXWkvQ+IaGv9nsYipZIJwqlSzMl1Enp7q3okUpIDRZdWcicKXXBB8UzU24Xw+yrmaiitkLCHcAQ/fgh6u2K5vPzEA4H/y4ld9dDF16rjKefdl9py6x3AOEPNIU9npAJSAtx6M67uxidORzOrNAABetqksAgQHu4aiRzbzebPzDSGQ+GQTv7to6Sy2taMYa1LwW1Yoqbnd1QTQJf56mX9gPPoQjEqePNkQ5YP6WffxWKxpoykIEhtAaCTH4GxDzrmPnaefxC7Tt8Nl/7h+UG8Aq4gpswZxROOo4kegqxKqGQ2ev8E4/fDYNRJJlCtmfbG3Kh4+k3YJPD6yXo94d7e4kMqy6E4iS4b+pOHDmEneoUfbA+9F+I7WCWwS6MxO43BPtLkhM7nhnmBjZeGdpAk/8ecmbKKew3EYVmbjr/3i5N/CYgNyNMLzc29x1C+QswvByb+M5AUmiDERqcJC95F3u6hTmrLjo5d7HYwJCbcmMs+Sal3sfj4XxXv4vQvS/ufnTQ6cxlNsAAAAASUVORK5CYII=;" vertex="1" parent="1">
          <mxGeometry x="480.55" y="458.5" width="39.45" height="20" as="geometry" />
        </mxCell>
        <mxCell id="7rcC4zyVuGGbeMlEar-x-39" value="&lt;font style=&quot;font-size: 13px;&quot;&gt;Worker nodes&lt;/font&gt;" style="text;html=1;align=center;verticalAlign=middle;whiteSpace=wrap;rounded=0;fontStyle=1;fontSize=18;" vertex="1" parent="1">
          <mxGeometry x="460.27" y="520" width="99.45" height="30" as="geometry" />
        </mxCell>
        <mxCell id="7rcC4zyVuGGbeMlEar-x-44" value="Streaming" style="text;html=1;align=center;verticalAlign=middle;whiteSpace=wrap;rounded=0;fontStyle=1;fontSize=18;" vertex="1" parent="1">
          <mxGeometry x="-240" y="387.2" width="60" height="30" as="geometry" />
        </mxCell>
        <mxCell id="7rcC4zyVuGGbeMlEar-x-45" value="Streaming" style="text;html=1;align=center;verticalAlign=middle;whiteSpace=wrap;rounded=0;fontStyle=1;fontSize=18;" vertex="1" parent="1">
          <mxGeometry x="620" y="367.73" width="60" height="30" as="geometry" />
        </mxCell>
        <mxCell id="7rcC4zyVuGGbeMlEar-x-46" value="Streaming" style="text;html=1;align=center;verticalAlign=middle;whiteSpace=wrap;rounded=0;fontStyle=1;fontSize=18;" vertex="1" parent="1">
          <mxGeometry x="50" y="390" width="60" height="30" as="geometry" />
        </mxCell>
        <mxCell id="7rcC4zyVuGGbeMlEar-x-51" value="Data Source" style="text;html=1;align=center;verticalAlign=middle;whiteSpace=wrap;rounded=0;fontStyle=1;fontSize=18;" vertex="1" parent="1">
          <mxGeometry x="-720" y="461.1" width="150" height="30" as="geometry" />
        </mxCell>
        <mxCell id="7rcC4zyVuGGbeMlEar-x-52" value="Control centre" style="text;html=1;align=center;verticalAlign=middle;whiteSpace=wrap;rounded=0;fontStyle=1;fontSize=18;" vertex="1" parent="1">
          <mxGeometry x="-225" y="679.5" width="150" height="30" as="geometry" />
        </mxCell>
        <mxCell id="7rcC4zyVuGGbeMlEar-x-53" value="Schema Registry" style="text;html=1;align=center;verticalAlign=middle;whiteSpace=wrap;rounded=0;fontStyle=1;fontSize=18;" vertex="1" parent="1">
          <mxGeometry x="-20" y="679.5" width="150" height="30" as="geometry" />
        </mxCell>
        <mxCell id="7rcC4zyVuGGbeMlEar-x-57" value="" style="edgeStyle=none;orthogonalLoop=1;jettySize=auto;html=1;rounded=0;" edge="1" parent="1">
          <mxGeometry width="80" relative="1" as="geometry">
            <mxPoint x="200" y="390" as="sourcePoint" />
            <mxPoint x="280" y="390" as="targetPoint" />
            <Array as="points" />
          </mxGeometry>
        </mxCell>
      </root>
    </mxGraphModel>
  </diagram>
</mxfile>
